<?xml version="1.0" encoding="UTF-8" standalone="no"?>
<!DOCTYPE svg PUBLIC "-//W3C//DTD SVG 1.1//EN" "http://www.w3.org/Graphics/SVG/1.1/DTD/svg11.dtd">
<svg version="1.1" xmlns="http://www.w3.org/2000/svg" xmlns:xlink="http://www.w3.org/1999/xlink" preserveAspectRatio="xMidYMid meet" viewBox="0 0 1150 504" width="1150" height="504"><defs><path d="M139.54 234.5C139.54 271.14 109.94 300.76 73.29 300.76C36.65 300.76 7.04 271.14 7.04 234.5C7.04 197.86 36.65 168.24 73.29 168.24C109.94 168.24 139.54 197.86 139.54 234.5Z" id="e1XG0LQgvd"></path><path d="M139.54 234.5C139.54 271.14 109.94 300.76 73.29 300.76C36.65 300.76 7.04 271.14 7.04 234.5C7.04 197.86 36.65 168.24 73.29 168.24C109.94 168.24 139.54 197.86 139.54 234.5Z" id="cjQHbRI2f"></path><path d="M1141.45 334.53C1141.45 371.18 1111.84 400.79 1075.2 400.79C1038.55 400.79 1008.95 371.18 1008.95 334.53C1008.95 297.89 1038.55 268.28 1075.2 268.28C1111.84 268.28 1141.45 297.89 1141.45 334.53Z" id="b2XYQKlYPv"></path><path d="M1141.45 334.53C1141.45 371.18 1111.84 400.79 1075.2 400.79C1038.55 400.79 1008.95 371.18 1008.95 334.53C1008.95 297.89 1038.55 268.28 1075.2 268.28C1111.84 268.28 1141.45 297.89 1141.45 334.53Z" id="c5wenQUP2I"></path><path d="M791 54.74C791 81.15 769.66 102.5 743.25 102.5C716.84 102.5 695.5 81.15 695.5 54.74C695.5 28.34 716.84 6.99 743.25 6.99C769.66 6.99 791 28.34 791 54.74Z" id="a2GeuEksVT"></path><path d="M791 54.74C791 81.15 769.66 102.5 743.25 102.5C716.84 102.5 695.5 81.15 695.5 54.74C695.5 28.34 716.84 6.99 743.25 6.99C769.66 6.99 791 28.34 791 54.74Z" id="b1kPZotxi"></path><path d="M743.92 61.66C754.9 61.66 761 61.66 762.22 61.66C761.46 65.87 759.02 69.59 755.45 71.96C755.45 72.52 755.45 75.35 755.45 80.43C762.01 80.43 765.65 80.43 766.38 80.43C772.77 74.53 776.46 65.81 776.46 55.5C776.46 53.19 776.26 50.89 775.87 48.61C773.74 48.61 763.09 48.61 743.92 48.61C743.92 49.92 743.92 60.36 743.92 61.66Z" id="b1QEJck9N"></path><path d="M743.92 61.66C754.9 61.66 761 61.66 762.22 61.66C761.46 65.87 759.02 69.59 755.45 71.96C755.45 72.52 755.45 75.35 755.45 80.43C762.01 80.43 765.65 80.43 766.38 80.43C772.77 74.53 776.46 65.81 776.46 55.5C776.46 53.19 776.26 50.89 775.87 48.61C773.74 48.61 763.09 48.61 743.92 48.61C743.92 49.92 743.92 60.36 743.92 61.66Z" id="a4EVWxrqLs"></path><path d="M743.92 61.66C754.9 61.66 761 61.66 762.22 61.66C761.46 65.87 759.02 69.59 755.45 71.96C755.45 72.52 755.45 75.35 755.45 80.43C762.01 80.43 765.65 80.43 766.38 80.43C772.77 74.53 776.46 65.81 776.46 55.5C776.46 53.19 776.26 50.89 775.87 48.61C773.74 48.61 763.09 48.61 743.92 48.61C743.92 49.92 743.92 60.36 743.92 61.66Z" id="abT4IYK82"></path><path d="M743.92 61.66C754.9 61.66 761 61.66 762.22 61.66C761.46 65.87 759.02 69.59 755.45 71.96C755.45 72.52 755.45 75.35 755.45 80.43C762.01 80.43 765.65 80.43 766.38 80.43C772.77 74.53 776.46 65.81 776.46 55.5C776.46 53.19 776.26 50.89 775.87 48.61C773.74 48.61 763.09 48.61 743.92 48.61C743.92 49.92 743.92 60.36 743.92 61.66Z" id="a2WbnWkdaN"></path><path d="M743.92 75.2C735.08 75.2 727.58 69.24 724.9 61.21C724.15 61.21 720.4 61.21 713.65 61.21C713.65 66.45 713.65 69.36 713.65 69.94C719.4 81.38 731.11 88.61 743.92 88.61C753.06 88.61 760.76 85.61 766.38 80.43C765.28 79.58 756.55 72.81 755.45 71.96C752.41 74.02 748.5 75.2 743.92 75.2Z" id="d1tgMjRHIU"></path><path d="M743.92 75.2C735.08 75.2 727.58 69.24 724.9 61.21C724.15 61.21 720.4 61.21 713.65 61.21C713.65 66.45 713.65 69.36 713.65 69.94C719.4 81.38 731.11 88.61 743.92 88.61C753.06 88.61 760.76 85.61 766.38 80.43C765.28 79.58 756.55 72.81 755.45 71.96C752.41 74.02 748.5 75.2 743.92 75.2Z" id="dgLXiklln"></path><path d="M743.92 75.2C735.08 75.2 727.58 69.24 724.9 61.21C724.15 61.21 720.4 61.21 713.65 61.21C713.65 66.45 713.65 69.36 713.65 69.94C719.4 81.38 731.11 88.61 743.92 88.61C753.06 88.61 760.76 85.61 766.38 80.43C765.28 79.58 756.55 72.81 755.45 71.96C752.41 74.02 748.5 75.2 743.92 75.2Z" id="dD9CwqXTX"></path><path d="M743.92 75.2C735.08 75.2 727.58 69.24 724.9 61.21C724.15 61.21 720.4 61.21 713.65 61.21C713.65 66.45 713.65 69.36 713.65 69.94C719.4 81.38 731.11 88.61 743.92 88.61C753.06 88.61 760.76 85.61 766.38 80.43C765.28 79.58 756.55 72.81 755.45 71.96C752.41 74.02 748.5 75.2 743.92 75.2Z" id="f5fbbmjWye"></path><path d="M724.9 39.51C718.15 39.51 714.4 39.51 713.65 39.51C708.84 49.09 708.84 60.37 713.65 69.94C715.9 68.2 722.65 62.96 724.9 61.21C723.48 57.01 723.48 52.45 724.9 48.24C724.9 47.66 724.9 44.75 724.9 39.51Z" id="gO9czSWxg"></path><path d="M724.9 39.51C718.15 39.51 714.4 39.51 713.65 39.51C708.84 49.09 708.84 60.37 713.65 69.94C715.9 68.2 722.65 62.96 724.9 61.21C723.48 57.01 723.48 52.45 724.9 48.24C724.9 47.66 724.9 44.75 724.9 39.51Z" id="a5X1AooHNC"></path><path d="M724.9 39.51C718.15 39.51 714.4 39.51 713.65 39.51C708.84 49.09 708.84 60.37 713.65 69.94C715.9 68.2 722.65 62.96 724.9 61.21C723.48 57.01 723.48 52.45 724.9 48.24C724.9 47.66 724.9 44.75 724.9 39.51Z" id="b10zBFojTS"></path><path d="M724.9 39.51C718.15 39.51 714.4 39.51 713.65 39.51C708.84 49.09 708.84 60.37 713.65 69.94C715.9 68.2 722.65 62.96 724.9 61.21C723.48 57.01 723.48 52.45 724.9 48.24C724.9 47.66 724.9 44.75 724.9 39.51Z" id="a4yvwO6Q5V"></path><path d="M766.59 29.67C760.46 23.91 752.33 20.75 743.92 20.85C731.11 20.85 719.4 28.07 713.65 39.51C714.77 40.39 723.78 47.37 724.9 48.24C727.58 40.22 735.08 34.26 743.92 34.26C748.75 34.18 753.42 36 756.92 39.34C756.92 39.34 756.92 39.34 756.92 39.34C762.72 33.54 765.94 30.31 766.59 29.67Z" id="i8KLMXHDg"></path><path d="M766.59 29.67C760.46 23.91 752.33 20.75 743.92 20.85C731.11 20.85 719.4 28.07 713.65 39.51C714.77 40.39 723.78 47.37 724.9 48.24C727.58 40.22 735.08 34.26 743.92 34.26C748.75 34.18 753.42 36 756.92 39.34C756.92 39.34 756.92 39.34 756.92 39.34C762.72 33.54 765.94 30.31 766.59 29.67Z" id="b1pKo72olX"></path><path d="M766.59 29.67C760.46 23.91 752.33 20.75 743.92 20.85C731.11 20.85 719.4 28.07 713.65 39.51C714.77 40.39 723.78 47.37 724.9 48.24C727.58 40.22 735.08 34.26 743.92 34.26C748.75 34.18 753.42 36 756.92 39.34C756.92 39.34 756.92 39.34 756.92 39.34C762.72 33.54 765.94 30.31 766.59 29.67Z" id="d5lRrPEjeI"></path><path d="M766.59 29.67C760.46 23.91 752.33 20.75 743.92 20.85C731.11 20.85 719.4 28.07 713.65 39.51C714.77 40.39 723.78 47.37 724.9 48.24C727.58 40.22 735.08 34.26 743.92 34.26C748.75 34.18 753.42 36 756.92 39.34C756.92 39.34 756.92 39.34 756.92 39.34C762.72 33.54 765.94 30.31 766.59 29.67Z" id="b38xDKRWrb"></path><path d="M81.01 188.75L82.81 189.08L84.59 189.48L86.33 189.95L88.05 190.48L89.74 191.08L91.4 191.75L93.02 192.47L94.61 193.26L96.17 194.1L97.68 195.01L99.16 195.96L100.6 196.98L102 198.04L103.36 199.16L104.67 200.33L105.93 201.55L107.15 202.81L108.32 204.12L109.44 205.48L110.51 206.88L111.52 208.32L112.48 209.8L113.38 211.31L114.23 212.87L115.01 214.46L115.73 216.09L116.4 217.75L117 219.43L117.53 221.15L118 222.9L118.4 224.67L118.73 226.47L118.99 228.29L119.18 230.14L119.3 232L119.33 233.89L119.31 235.4L119.23 236.89L119.11 238.38L118.95 239.85L118.73 241.3L118.48 242.75L118.17 244.17L117.82 245.57L117.44 246.97L117 248.34L116.53 249.69L116.01 251.02L115.46 252.34L114.86 253.63L114.23 254.9L113.56 256.14L112.85 257.37L112.11 258.57L111.33 259.74L110.52 260.89L109.67 262.01L108.78 263.1L107.87 264.17L106.92 265.2L105.95 266.21L104.94 267.19L103.9 268.14L102.84 269.05L101.75 269.94L100.62 270.78L99.47 271.6L98.3 272.38L97.1 273.12L95.88 273.83L94.63 274.5L93.37 275.14L92.08 275.73L90.76 276.29L89.43 276.8L88.08 277.28L87.91 277.31L87.74 277.33L87.58 277.35L87.43 277.36L87.28 277.37L87.13 277.36L86.99 277.36L86.86 277.34L86.73 277.32L86.61 277.3L86.49 277.27L86.37 277.24L86.27 277.19L86.16 277.15L86.06 277.1L85.97 277.05L85.88 277L85.79 276.94L85.71 276.87L85.63 276.8L85.56 276.73L85.49 276.66L85.43 276.59L85.37 276.51L85.32 276.43L85.27 276.35L85.22 276.27L85.18 276.18L85.14 276.09L85.1 276L85.07 275.91L85.04 275.82L85.02 275.73L84.99 275.63L84.98 275.54L84.96 275.45L84.95 275.36L84.95 275.26L84.94 275.17L84.94 275.08L84.94 274.96L84.94 274.83L84.94 274.68L84.94 274.53L84.94 274.36L84.94 274.18L84.94 273.98L84.94 273.78L84.95 273.57L84.95 273.34L84.95 273.11L84.95 272.86L84.95 272.61L84.96 272.34L84.96 272.06L84.96 271.77L84.96 271.48L84.96 271.17L84.96 270.86L84.96 270.54L84.97 270.2L84.97 269.87L84.97 269.51L84.97 269.16L84.97 268.79L84.98 268.42L84.98 268.04L84.98 267.66L84.98 267.27L84.98 266.86L84.99 266.46L84.99 266.05L84.99 265.63L84.99 265.2L84.99 264.77L84.99 264.33L84.99 263.89L84.99 263.45L84.99 263L84.99 262.54L84.99 262.22L84.98 261.91L84.97 261.61L84.95 261.31L84.93 261.01L84.9 260.72L84.87 260.44L84.83 260.15L84.79 259.88L84.74 259.62L84.69 259.35L84.63 259.1L84.57 258.84L84.51 258.6L84.44 258.36L84.37 258.12L84.29 257.89L84.22 257.67L84.14 257.45L84.05 257.23L83.96 257.02L83.87 256.82L83.78 256.62L83.69 256.43L83.59 256.24L83.48 256.06L83.38 255.88L83.27 255.71L83.17 255.54L83.06 255.38L82.95 255.23L82.83 255.08L82.72 254.94L82.6 254.79L82.48 254.66L82.36 254.53L82.24 254.41L82.12 254.28L82 254.17L81.88 254.06L82.64 253.97L83.41 253.87L84.17 253.76L84.94 253.63L85.7 253.49L86.46 253.33L87.21 253.16L87.96 252.97L88.71 252.76L89.44 252.53L90.16 252.28L90.88 252.01L91.59 251.72L92.28 251.4L92.97 251.06L93.63 250.7L94.29 250.3L94.92 249.88L95.54 249.43L96.14 248.95L96.73 248.44L97.29 247.89L97.83 247.32L98.35 246.71L98.85 246.06L99.31 245.38L99.76 244.66L100.18 243.91L100.57 243.11L100.94 242.28L101.27 241.4L101.57 240.48L101.84 239.52L102.08 238.52L102.28 237.47L102.46 236.37L102.59 235.23L102.69 234.04L102.75 232.79L102.77 231.5L102.76 231.13L102.75 230.76L102.74 230.39L102.72 230.03L102.68 229.67L102.65 229.31L102.61 228.96L102.56 228.61L102.5 228.26L102.44 227.92L102.38 227.59L102.3 227.25L102.23 226.92L102.14 226.59L102.05 226.26L101.96 225.94L101.85 225.62L101.75 225.31L101.63 224.99L101.52 224.69L101.39 224.38L101.26 224.08L101.13 223.78L100.99 223.49L100.84 223.2L100.69 222.9L100.53 222.62L100.37 222.34L100.21 222.06L100.04 221.79L99.86 221.51L99.68 221.25L99.49 220.98L99.31 220.72L99.11 220.46L98.91 220.21L98.71 219.95L98.49 219.71L98.28 219.46L98.06 219.22L98.1 219.12L98.14 219.02L98.19 218.9L98.23 218.77L98.28 218.63L98.34 218.47L98.39 218.3L98.44 218.12L98.49 217.93L98.55 217.73L98.6 217.51L98.64 217.29L98.7 217.05L98.74 216.81L98.79 216.55L98.83 216.28L98.86 216L98.9 215.71L98.93 215.41L98.95 215.1L98.97 214.78L98.98 214.45L98.99 214.12L98.98 213.77L98.97 213.41L98.96 213.05L98.93 212.67L98.9 212.29L98.86 211.9L98.8 211.51L98.74 211.1L98.66 210.69L98.57 210.27L98.48 209.83L98.37 209.4L98.24 208.96L98.11 208.51L97.96 208.05L97.79 207.59L97.61 207.12L97.61 207.12L97.59 207.11L97.55 207.1L97.5 207.09L97.43 207.07L97.35 207.06L97.26 207.05L97.15 207.04L97.02 207.03L96.88 207.02L96.72 207.01L96.55 207.01L96.36 207.02L96.16 207.03L95.94 207.04L95.71 207.07L95.45 207.1L95.19 207.14L94.91 207.19L94.61 207.24L94.29 207.31L93.96 207.4L93.61 207.49L93.24 207.6L92.86 207.73L92.47 207.86L92.05 208.02L91.61 208.19L91.16 208.37L90.7 208.58L90.21 208.8L89.71 209.05L89.19 209.31L88.65 209.6L88.1 209.91L87.52 210.24L86.93 210.59L86.32 210.97L85.7 211.38L85.05 211.81L84.77 211.73L84.5 211.66L84.22 211.59L83.94 211.52L83.67 211.45L83.39 211.38L83.1 211.32L82.82 211.26L82.54 211.2L82.26 211.14L81.98 211.08L81.69 211.03L81.41 210.98L81.13 210.93L80.84 210.88L80.56 210.84L80.27 210.79L79.98 210.75L79.69 210.71L79.41 210.67L79.12 210.63L78.83 210.59L78.54 210.56L78.25 210.53L77.96 210.5L77.67 210.47L77.38 210.44L77.09 210.42L76.8 210.4L76.51 210.38L76.22 210.36L75.93 210.34L75.64 210.33L75.35 210.32L75.05 210.3L74.76 210.29L74.47 210.29L74.18 210.28L73.89 210.28L73.59 210.27L73.3 210.28L73.01 210.28L72.72 210.29L72.43 210.29L72.14 210.3L71.84 210.32L71.55 210.33L71.26 210.34L70.97 210.36L70.68 210.38L70.39 210.4L70.09 210.42L69.8 210.44L69.51 210.47L69.22 210.5L68.93 210.53L68.64 210.56L68.35 210.59L68.07 210.63L67.78 210.67L67.49 210.71L67.2 210.75L66.91 210.79L66.63 210.84L66.34 210.88L66.06 210.93L65.77 210.98L65.49 211.03L65.2 211.08L64.92 211.14L64.64 211.2L64.36 211.26L64.08 211.32L63.8 211.38L63.52 211.45L63.24 211.52L62.96 211.59L62.69 211.66L62.41 211.73L62.14 211.81L61.49 211.38L60.87 210.97L60.26 210.59L59.67 210.24L59.09 209.91L58.54 209.6L58 209.31L57.48 209.05L56.97 208.8L56.49 208.58L56.02 208.37L55.57 208.19L55.14 208.02L54.72 207.86L54.32 207.73L53.94 207.6L53.57 207.49L53.22 207.4L52.89 207.31L52.57 207.24L52.27 207.19L51.99 207.14L51.73 207.1L51.47 207.07L51.24 207.04L51.02 207.03L50.82 207.02L50.63 207.01L50.46 207.01L50.3 207.02L50.16 207.03L50.03 207.04L49.92 207.05L49.82 207.06L49.74 207.07L49.68 207.09L49.63 207.1L49.59 207.11L49.57 207.12L49.56 207.12L49.38 207.59L49.22 208.05L49.07 208.51L48.93 208.96L48.81 209.4L48.7 209.83L48.6 210.27L48.52 210.69L48.44 211.1L48.38 211.51L48.32 211.9L48.28 212.29L48.24 212.67L48.22 213.05L48.2 213.41L48.2 213.77L48.19 214.12L48.2 214.45L48.21 214.78L48.23 215.1L48.25 215.41L48.29 215.71L48.32 216L48.36 216.28L48.4 216.55L48.44 216.81L48.49 217.05L48.54 217.29L48.59 217.51L48.64 217.73L48.69 217.93L48.75 218.12L48.8 218.3L48.85 218.47L48.91 218.63L48.95 218.77L49 218.9L49.05 219.02L49.09 219.12L49.13 219.22L48.91 219.46L48.69 219.71L48.48 219.95L48.28 220.21L48.08 220.46L47.88 220.72L47.69 220.98L47.51 221.25L47.33 221.51L47.15 221.79L46.98 222.06L46.81 222.34L46.65 222.62L46.49 222.9L46.34 223.2L46.2 223.49L46.06 223.78L45.92 224.08L45.79 224.38L45.67 224.69L45.55 224.99L45.43 225.31L45.33 225.62L45.22 225.94L45.13 226.26L45.04 226.59L44.95 226.92L44.87 227.25L44.8 227.59L44.73 227.92L44.67 228.26L44.62 228.61L44.57 228.96L44.53 229.31L44.49 229.67L44.46 230.03L44.44 230.39L44.42 230.76L44.41 231.13L44.41 231.5L44.43 232.79L44.49 234.03L44.59 235.22L44.72 236.36L44.89 237.46L45.09 238.51L45.33 239.51L45.6 240.47L45.9 241.39L46.23 242.26L46.6 243.1L46.99 243.89L47.41 244.65L47.85 245.37L48.32 246.05L48.82 246.69L49.34 247.31L49.88 247.88L50.44 248.43L51.02 248.94L51.62 249.42L52.24 249.88L52.87 250.3L53.52 250.7L54.19 251.07L54.87 251.41L55.56 251.73L56.27 252.03L56.98 252.3L57.7 252.55L58.44 252.78L59.18 252.99L59.92 253.19L60.67 253.36L61.43 253.52L62.19 253.67L62.96 253.79L63.71 253.91L64.48 254.01L65.24 254.11L65.14 254.19L65.04 254.28L64.95 254.37L64.85 254.47L64.76 254.57L64.67 254.68L64.57 254.78L64.48 254.89L64.39 255.01L64.3 255.12L64.21 255.24L64.12 255.37L64.03 255.49L63.94 255.62L63.86 255.76L63.78 255.9L63.7 256.04L63.61 256.18L63.54 256.33L63.46 256.48L63.38 256.63L63.31 256.79L63.24 256.95L63.17 257.11L63.1 257.28L63.03 257.46L62.96 257.63L62.9 257.81L62.84 257.99L62.78 258.17L62.73 258.36L62.67 258.55L62.62 258.75L62.58 258.95L62.53 259.15L62.48 259.35L62.44 259.56L62.4 259.77L62.37 259.99L62.34 260.21L62.14 260.3L61.92 260.39L61.69 260.49L61.44 260.58L61.18 260.67L60.92 260.76L60.64 260.85L60.35 260.94L60.05 261.02L59.74 261.1L59.41 261.17L59.09 261.23L58.75 261.29L58.41 261.33L58.06 261.37L57.7 261.4L57.35 261.41L56.98 261.41L56.61 261.4L56.24 261.37L55.86 261.33L55.49 261.27L55.11 261.2L54.73 261.11L54.35 261L53.97 260.87L53.59 260.71L53.21 260.54L52.84 260.34L52.47 260.12L52.1 259.88L51.73 259.61L51.37 259.31L51.01 258.99L50.67 258.64L50.32 258.25L49.99 257.84L49.66 257.4L49.34 256.93L49.03 256.42L49.02 256.41L49.01 256.39L48.98 256.35L48.96 256.3L48.91 256.23L48.86 256.15L48.81 256.06L48.74 255.96L48.66 255.85L48.58 255.73L48.48 255.6L48.38 255.46L48.27 255.32L48.15 255.17L48.02 255.01L47.88 254.85L47.74 254.69L47.58 254.52L47.42 254.35L47.25 254.18L47.06 254.01L46.88 253.84L46.68 253.67L46.47 253.5L46.25 253.34L46.03 253.17L45.8 253.02L45.56 252.86L45.31 252.72L45.05 252.58L44.79 252.44L44.51 252.32L44.23 252.2L43.94 252.1L43.64 252L43.34 251.91L43.02 251.84L42.69 251.78L42.36 251.74L42.02 251.7L42.01 251.7L41.99 251.7L41.95 251.7L41.9 251.7L41.84 251.71L41.77 251.71L41.68 251.71L41.59 251.72L41.49 251.73L41.39 251.74L41.28 251.75L41.17 251.77L41.06 251.79L40.94 251.81L40.83 251.83L40.72 251.87L40.61 251.9L40.5 251.94L40.4 251.98L40.31 252.03L40.22 252.08L40.15 252.14L40.08 252.21L40.03 252.28L39.99 252.36L39.96 252.44L39.94 252.53L39.95 252.63L39.97 252.74L40.01 252.85L40.07 252.97L40.15 253.1L40.25 253.24L40.38 253.39L40.53 253.55L40.71 253.72L40.92 253.89L41.15 254.08L41.42 254.27L41.71 254.48L41.72 254.49L41.73 254.49L41.76 254.51L41.8 254.53L41.85 254.56L41.9 254.58L41.97 254.63L42.04 254.67L42.12 254.72L42.21 254.79L42.31 254.85L42.42 254.93L42.52 255.01L42.65 255.1L42.77 255.21L42.9 255.31L43.04 255.43L43.18 255.56L43.32 255.7L43.47 255.84L43.62 256L43.78 256.17L43.94 256.35L44.1 256.53L44.27 256.73L44.44 256.94L44.6 257.16L44.77 257.39L44.95 257.64L45.12 257.9L45.29 258.16L45.46 258.44L45.64 258.73L45.8 259.04L45.98 259.36L46.15 259.7L46.31 260.04L46.47 260.4L46.64 260.78L46.8 261.17L46.8 261.18L46.82 261.23L46.84 261.31L46.88 261.41L46.93 261.54L47 261.7L47.08 261.87L47.18 262.07L47.28 262.28L47.41 262.51L47.56 262.76L47.72 263.01L47.9 263.28L48.09 263.56L48.32 263.84L48.55 264.12L48.81 264.41L49.09 264.7L49.4 264.98L49.73 265.27L50.08 265.55L50.45 265.82L50.85 266.09L51.28 266.33L51.74 266.57L52.21 266.8L52.72 267.01L53.26 267.2L53.82 267.36L54.42 267.51L55.05 267.63L55.71 267.72L56.4 267.79L57.12 267.83L57.88 267.83L58.67 267.8L59.5 267.73L60.36 267.63L61.26 267.49L62.2 267.3L62.2 267.58L62.2 267.87L62.2 268.14L62.21 268.42L62.21 268.69L62.21 268.95L62.21 269.21L62.21 269.47L62.22 269.73L62.22 269.97L62.22 270.22L62.22 270.46L62.22 270.7L62.22 271.15L62.23 271.37L62.23 271.59L62.23 271.81L62.23 272.01L62.23 272.21L62.23 272.41L62.24 272.61L62.24 272.79L62.24 272.97L62.24 273.15L62.24 273.32L62.24 273.48L62.24 273.64L62.25 273.8L62.25 273.94L62.25 274.09L62.25 274.22L62.25 274.35L62.25 274.47L62.25 274.59L62.25 274.7L62.25 274.8L62.25 274.9L62.25 274.99L62.25 275.08L62.25 275.17L62.24 275.26L62.24 275.36L62.22 275.45L62.21 275.54L62.19 275.63L62.17 275.73L62.14 275.82L62.12 275.9L62.08 276L62.05 276.08L62.01 276.17L61.97 276.26L61.92 276.34L61.87 276.42L61.81 276.5L61.76 276.58L61.69 276.65L61.62 276.72L61.55 276.79L61.47 276.86L61.4 276.93L61.31 276.98L61.22 277.04L61.13 277.09L61.03 277.14L60.93 277.18L60.82 277.22L60.71 277.26L60.59 277.29L60.46 277.31L60.34 277.33L60.21 277.35L60.07 277.35L59.92 277.36L59.78 277.36L59.62 277.35L59.47 277.33L59.31 277.31L59.13 277.28L57.78 276.81L56.45 276.29L55.13 275.74L53.84 275.14L52.57 274.51L51.32 273.84L50.1 273.13L48.9 272.39L47.72 271.6L46.58 270.79L45.46 269.94L44.36 269.06L43.29 268.14L42.26 267.2L41.25 266.22L40.27 265.21L39.32 264.17L38.41 263.11L37.53 262.01L36.68 260.89L35.86 259.74L35.09 258.57L34.34 257.37L33.63 256.15L32.96 254.9L32.33 253.63L31.73 252.34L31.18 251.03L30.66 249.69L30.19 248.34L29.75 246.97L29.36 245.58L29.02 244.17L28.71 242.75L28.46 241.31L28.24 239.85L28.08 238.38L27.95 236.89L27.88 235.4L27.86 233.89L27.89 232L28.01 230.14L28.19 228.29L28.46 226.47L28.79 224.67L29.19 222.9L29.66 221.15L30.19 219.43L30.79 217.75L31.45 216.09L32.18 214.46L32.96 212.87L33.81 211.31L34.71 209.8L35.67 208.32L36.68 206.88L37.75 205.48L38.87 204.12L40.04 202.81L41.25 201.55L42.52 200.33L43.83 199.16L45.19 198.04L46.59 196.98L48.02 195.96L49.51 195.01L51.02 194.1L52.58 193.26L54.17 192.47L55.79 191.75L57.45 191.08L59.14 190.48L60.86 189.95L62.6 189.48L64.38 189.08L66.18 188.75L68 188.49L69.84 188.3L71.71 188.19L73.59 188.15L75.48 188.19L77.35 188.3L79.19 188.49L81.01 188.75Z" id="h7wp4NBTP"></path><path d="M81.01 188.75L82.81 189.08L84.59 189.48L86.33 189.95L88.05 190.48L89.74 191.08L91.4 191.75L93.02 192.47L94.61 193.26L96.17 194.1L97.68 195.01L99.16 195.96L100.6 196.98L102 198.04L103.36 199.16L104.67 200.33L105.93 201.55L107.15 202.81L108.32 204.12L109.44 205.48L110.51 206.88L111.52 208.32L112.48 209.8L113.38 211.31L114.23 212.87L115.01 214.46L115.73 216.09L116.4 217.75L117 219.43L117.53 221.15L118 222.9L118.4 224.67L118.73 226.47L118.99 228.29L119.18 230.14L119.3 232L119.33 233.89L119.31 235.4L119.23 236.89L119.11 238.38L118.95 239.85L118.73 241.3L118.48 242.75L118.17 244.17L117.82 245.57L117.44 246.97L117 248.34L116.53 249.69L116.01 251.02L115.46 252.34L114.86 253.63L114.23 254.9L113.56 256.14L112.85 257.37L112.11 258.57L111.33 259.74L110.52 260.89L109.67 262.01L108.78 263.1L107.87 264.17L106.92 265.2L105.95 266.21L104.94 267.19L103.9 268.14L102.84 269.05L101.75 269.94L100.62 270.78L99.47 271.6L98.3 272.38L97.1 273.12L95.88 273.83L94.63 274.5L93.37 275.14L92.08 275.73L90.76 276.29L89.43 276.8L88.08 277.28L87.91 277.31L87.74 277.33L87.58 277.35L87.43 277.36L87.28 277.37L87.13 277.36L86.99 277.36L86.86 277.34L86.73 277.32L86.61 277.3L86.49 277.27L86.37 277.24L86.27 277.19L86.16 277.15L86.06 277.1L85.97 277.05L85.88 277L85.79 276.94L85.71 276.87L85.63 276.8L85.56 276.73L85.49 276.66L85.43 276.59L85.37 276.51L85.32 276.43L85.27 276.35L85.22 276.27L85.18 276.18L85.14 276.09L85.1 276L85.07 275.91L85.04 275.82L85.02 275.73L84.99 275.63L84.98 275.54L84.96 275.45L84.95 275.36L84.95 275.26L84.94 275.17L84.94 275.08L84.94 274.96L84.94 274.83L84.94 274.68L84.94 274.53L84.94 274.36L84.94 274.18L84.94 273.98L84.94 273.78L84.95 273.57L84.95 273.34L84.95 273.11L84.95 272.86L84.95 272.61L84.96 272.34L84.96 272.06L84.96 271.77L84.96 271.48L84.96 271.17L84.96 270.86L84.96 270.54L84.97 270.2L84.97 269.87L84.97 269.51L84.97 269.16L84.97 268.79L84.98 268.42L84.98 268.04L84.98 267.66L84.98 267.27L84.98 266.86L84.99 266.46L84.99 266.05L84.99 265.63L84.99 265.2L84.99 264.77L84.99 264.33L84.99 263.89L84.99 263.45L84.99 263L84.99 262.54L84.99 262.22L84.98 261.91L84.97 261.61L84.95 261.31L84.93 261.01L84.9 260.72L84.87 260.44L84.83 260.15L84.79 259.88L84.74 259.62L84.69 259.35L84.63 259.1L84.57 258.84L84.51 258.6L84.44 258.36L84.37 258.12L84.29 257.89L84.22 257.67L84.14 257.45L84.05 257.23L83.96 257.02L83.87 256.82L83.78 256.62L83.69 256.43L83.59 256.24L83.48 256.06L83.38 255.88L83.27 255.71L83.17 255.54L83.06 255.38L82.95 255.23L82.83 255.08L82.72 254.94L82.6 254.79L82.48 254.66L82.36 254.53L82.24 254.41L82.12 254.28L82 254.17L81.88 254.06L82.64 253.97L83.41 253.87L84.17 253.76L84.94 253.63L85.7 253.49L86.46 253.33L87.21 253.16L87.96 252.97L88.71 252.76L89.44 252.53L90.16 252.28L90.88 252.01L91.59 251.72L92.28 251.4L92.97 251.06L93.63 250.7L94.29 250.3L94.92 249.88L95.54 249.43L96.14 248.95L96.73 248.44L97.29 247.89L97.83 247.32L98.35 246.71L98.85 246.06L99.31 245.38L99.76 244.66L100.18 243.91L100.57 243.11L100.94 242.28L101.27 241.4L101.57 240.48L101.84 239.52L102.08 238.52L102.28 237.47L102.46 236.37L102.59 235.23L102.69 234.04L102.75 232.79L102.77 231.5L102.76 231.13L102.75 230.76L102.74 230.39L102.72 230.03L102.68 229.67L102.65 229.31L102.61 228.96L102.56 228.61L102.5 228.26L102.44 227.92L102.38 227.59L102.3 227.25L102.23 226.92L102.14 226.59L102.05 226.26L101.96 225.94L101.85 225.62L101.75 225.31L101.63 224.99L101.52 224.69L101.39 224.38L101.26 224.08L101.13 223.78L100.99 223.49L100.84 223.2L100.69 222.9L100.53 222.62L100.37 222.34L100.21 222.06L100.04 221.79L99.86 221.51L99.68 221.25L99.49 220.98L99.31 220.72L99.11 220.46L98.91 220.21L98.71 219.95L98.49 219.71L98.28 219.46L98.06 219.22L98.1 219.12L98.14 219.02L98.19 218.9L98.23 218.77L98.28 218.63L98.34 218.47L98.39 218.3L98.44 218.12L98.49 217.93L98.55 217.73L98.6 217.51L98.64 217.29L98.7 217.05L98.74 216.81L98.79 216.55L98.83 216.28L98.86 216L98.9 215.71L98.93 215.41L98.95 215.1L98.97 214.78L98.98 214.45L98.99 214.12L98.98 213.77L98.97 213.41L98.96 213.05L98.93 212.67L98.9 212.29L98.86 211.9L98.8 211.51L98.74 211.1L98.66 210.69L98.57 210.27L98.48 209.83L98.37 209.4L98.24 208.96L98.11 208.51L97.96 208.05L97.79 207.59L97.61 207.12L97.61 207.12L97.59 207.11L97.55 207.1L97.5 207.09L97.43 207.07L97.35 207.06L97.26 207.05L97.15 207.04L97.02 207.03L96.88 207.02L96.72 207.01L96.55 207.01L96.36 207.02L96.16 207.03L95.94 207.04L95.71 207.07L95.45 207.1L95.19 207.14L94.91 207.19L94.61 207.24L94.29 207.31L93.96 207.4L93.61 207.49L93.24 207.6L92.86 207.73L92.47 207.86L92.05 208.02L91.61 208.19L91.16 208.37L90.7 208.58L90.21 208.8L89.71 209.05L89.19 209.31L88.65 209.6L88.1 209.91L87.52 210.24L86.93 210.59L86.32 210.97L85.7 211.38L85.05 211.81L84.77 211.73L84.5 211.66L84.22 211.59L83.94 211.52L83.67 211.45L83.39 211.38L83.1 211.32L82.82 211.26L82.54 211.2L82.26 211.14L81.98 211.08L81.69 211.03L81.41 210.98L81.13 210.93L80.84 210.88L80.56 210.84L80.27 210.79L79.98 210.75L79.69 210.71L79.41 210.67L79.12 210.63L78.83 210.59L78.54 210.56L78.25 210.53L77.96 210.5L77.67 210.47L77.38 210.44L77.09 210.42L76.8 210.4L76.51 210.38L76.22 210.36L75.93 210.34L75.64 210.33L75.35 210.32L75.05 210.3L74.76 210.29L74.47 210.29L74.18 210.28L73.89 210.28L73.59 210.27L73.3 210.28L73.01 210.28L72.72 210.29L72.43 210.29L72.14 210.3L71.84 210.32L71.55 210.33L71.26 210.34L70.97 210.36L70.68 210.38L70.39 210.4L70.09 210.42L69.8 210.44L69.51 210.47L69.22 210.5L68.93 210.53L68.64 210.56L68.35 210.59L68.07 210.63L67.78 210.67L67.49 210.71L67.2 210.75L66.91 210.79L66.63 210.84L66.34 210.88L66.06 210.93L65.77 210.98L65.49 211.03L65.2 211.08L64.92 211.14L64.64 211.2L64.36 211.26L64.08 211.32L63.8 211.38L63.52 211.45L63.24 211.52L62.96 211.59L62.69 211.66L62.41 211.73L62.14 211.81L61.49 211.38L60.87 210.97L60.26 210.59L59.67 210.24L59.09 209.91L58.54 209.6L58 209.31L57.48 209.05L56.97 208.8L56.49 208.58L56.02 208.37L55.57 208.19L55.14 208.02L54.72 207.86L54.32 207.73L53.94 207.6L53.57 207.49L53.22 207.4L52.89 207.31L52.57 207.24L52.27 207.19L51.99 207.14L51.73 207.1L51.47 207.07L51.24 207.04L51.02 207.03L50.82 207.02L50.63 207.01L50.46 207.01L50.3 207.02L50.16 207.03L50.03 207.04L49.92 207.05L49.82 207.06L49.74 207.07L49.68 207.09L49.63 207.1L49.59 207.11L49.57 207.12L49.56 207.12L49.38 207.59L49.22 208.05L49.07 208.51L48.93 208.96L48.81 209.4L48.7 209.83L48.6 210.27L48.52 210.69L48.44 211.1L48.38 211.51L48.32 211.9L48.28 212.29L48.24 212.67L48.22 213.05L48.2 213.41L48.2 213.77L48.19 214.12L48.2 214.45L48.21 214.78L48.23 215.1L48.25 215.41L48.29 215.71L48.32 216L48.36 216.28L48.4 216.55L48.44 216.81L48.49 217.05L48.54 217.29L48.59 217.51L48.64 217.73L48.69 217.93L48.75 218.12L48.8 218.3L48.85 218.47L48.91 218.63L48.95 218.77L49 218.9L49.05 219.02L49.09 219.12L49.13 219.22L48.91 219.46L48.69 219.71L48.48 219.95L48.28 220.21L48.08 220.46L47.88 220.72L47.69 220.98L47.51 221.25L47.33 221.51L47.15 221.79L46.98 222.06L46.81 222.34L46.65 222.62L46.49 222.9L46.34 223.2L46.2 223.49L46.06 223.78L45.92 224.08L45.79 224.38L45.67 224.69L45.55 224.99L45.43 225.31L45.33 225.62L45.22 225.94L45.13 226.26L45.04 226.59L44.95 226.92L44.87 227.25L44.8 227.59L44.73 227.92L44.67 228.26L44.62 228.61L44.57 228.96L44.53 229.31L44.49 229.67L44.46 230.03L44.44 230.39L44.42 230.76L44.41 231.13L44.41 231.5L44.43 232.79L44.49 234.03L44.59 235.22L44.72 236.36L44.89 237.46L45.09 238.51L45.33 239.51L45.6 240.47L45.9 241.39L46.23 242.26L46.6 243.1L46.99 243.89L47.41 244.65L47.85 245.37L48.32 246.05L48.82 246.69L49.34 247.31L49.88 247.88L50.44 248.43L51.02 248.94L51.62 249.42L52.24 249.88L52.87 250.3L53.52 250.7L54.19 251.07L54.87 251.41L55.56 251.73L56.27 252.03L56.98 252.3L57.7 252.55L58.44 252.78L59.18 252.99L59.92 253.19L60.67 253.36L61.43 253.52L62.19 253.67L62.96 253.79L63.71 253.91L64.48 254.01L65.24 254.11L65.14 254.19L65.04 254.28L64.95 254.37L64.85 254.47L64.76 254.57L64.67 254.68L64.57 254.78L64.48 254.89L64.39 255.01L64.3 255.12L64.21 255.24L64.12 255.37L64.03 255.49L63.94 255.62L63.86 255.76L63.78 255.9L63.7 256.04L63.61 256.18L63.54 256.33L63.46 256.48L63.38 256.63L63.31 256.79L63.24 256.95L63.17 257.11L63.1 257.28L63.03 257.46L62.96 257.63L62.9 257.81L62.84 257.99L62.78 258.17L62.73 258.36L62.67 258.55L62.62 258.75L62.58 258.95L62.53 259.15L62.48 259.35L62.44 259.56L62.4 259.77L62.37 259.99L62.34 260.21L62.14 260.3L61.92 260.39L61.69 260.49L61.44 260.58L61.18 260.67L60.92 260.76L60.64 260.85L60.35 260.94L60.05 261.02L59.74 261.1L59.41 261.17L59.09 261.23L58.75 261.29L58.41 261.33L58.06 261.37L57.7 261.4L57.35 261.41L56.98 261.41L56.61 261.4L56.24 261.37L55.86 261.33L55.49 261.27L55.11 261.2L54.73 261.11L54.35 261L53.97 260.87L53.59 260.71L53.21 260.54L52.84 260.34L52.47 260.12L52.1 259.88L51.73 259.61L51.37 259.31L51.01 258.99L50.67 258.64L50.32 258.25L49.99 257.84L49.66 257.4L49.34 256.93L49.03 256.42L49.02 256.41L49.01 256.39L48.98 256.35L48.96 256.3L48.91 256.23L48.86 256.15L48.81 256.06L48.74 255.96L48.66 255.85L48.58 255.73L48.48 255.6L48.38 255.46L48.27 255.32L48.15 255.17L48.02 255.01L47.88 254.85L47.74 254.69L47.58 254.52L47.42 254.35L47.25 254.18L47.06 254.01L46.88 253.84L46.68 253.67L46.47 253.5L46.25 253.34L46.03 253.17L45.8 253.02L45.56 252.86L45.31 252.72L45.05 252.58L44.79 252.44L44.51 252.32L44.23 252.2L43.94 252.1L43.64 252L43.34 251.91L43.02 251.84L42.69 251.78L42.36 251.74L42.02 251.7L42.01 251.7L41.99 251.7L41.95 251.7L41.9 251.7L41.84 251.71L41.77 251.71L41.68 251.71L41.59 251.72L41.49 251.73L41.39 251.74L41.28 251.75L41.17 251.77L41.06 251.79L40.94 251.81L40.83 251.83L40.72 251.87L40.61 251.9L40.5 251.94L40.4 251.98L40.31 252.03L40.22 252.08L40.15 252.14L40.08 252.21L40.03 252.28L39.99 252.36L39.96 252.44L39.94 252.53L39.95 252.63L39.97 252.74L40.01 252.85L40.07 252.97L40.15 253.1L40.25 253.24L40.38 253.39L40.53 253.55L40.71 253.72L40.92 253.89L41.15 254.08L41.42 254.27L41.71 254.48L41.72 254.49L41.73 254.49L41.76 254.51L41.8 254.53L41.85 254.56L41.9 254.58L41.97 254.63L42.04 254.67L42.12 254.72L42.21 254.79L42.31 254.85L42.42 254.93L42.52 255.01L42.65 255.1L42.77 255.21L42.9 255.31L43.04 255.43L43.18 255.56L43.32 255.7L43.47 255.84L43.62 256L43.78 256.17L43.94 256.35L44.1 256.53L44.27 256.73L44.44 256.94L44.6 257.16L44.77 257.39L44.95 257.64L45.12 257.9L45.29 258.16L45.46 258.44L45.64 258.73L45.8 259.04L45.98 259.36L46.15 259.7L46.31 260.04L46.47 260.4L46.64 260.78L46.8 261.17L46.8 261.18L46.82 261.23L46.84 261.31L46.88 261.41L46.93 261.54L47 261.7L47.08 261.87L47.18 262.07L47.28 262.28L47.41 262.51L47.56 262.76L47.72 263.01L47.9 263.28L48.09 263.56L48.32 263.84L48.55 264.12L48.81 264.41L49.09 264.7L49.4 264.98L49.73 265.27L50.08 265.55L50.45 265.82L50.85 266.09L51.28 266.33L51.74 266.57L52.21 266.8L52.72 267.01L53.26 267.2L53.82 267.36L54.42 267.51L55.05 267.63L55.71 267.72L56.4 267.79L57.12 267.83L57.88 267.83L58.67 267.8L59.5 267.73L60.36 267.63L61.26 267.49L62.2 267.3L62.2 267.58L62.2 267.87L62.2 268.14L62.21 268.42L62.21 268.69L62.21 268.95L62.21 269.21L62.21 269.47L62.22 269.73L62.22 269.97L62.22 270.22L62.22 270.46L62.22 270.7L62.22 271.15L62.23 271.37L62.23 271.59L62.23 271.81L62.23 272.01L62.23 272.21L62.23 272.41L62.24 272.61L62.24 272.79L62.24 272.97L62.24 273.15L62.24 273.32L62.24 273.48L62.24 273.64L62.25 273.8L62.25 273.94L62.25 274.09L62.25 274.22L62.25 274.35L62.25 274.47L62.25 274.59L62.25 274.7L62.25 274.8L62.25 274.9L62.25 274.99L62.25 275.08L62.25 275.17L62.24 275.26L62.24 275.36L62.22 275.45L62.21 275.54L62.19 275.63L62.17 275.73L62.14 275.82L62.12 275.9L62.08 276L62.05 276.08L62.01 276.17L61.97 276.26L61.92 276.34L61.87 276.42L61.81 276.5L61.76 276.58L61.69 276.65L61.62 276.72L61.55 276.79L61.47 276.86L61.4 276.93L61.31 276.98L61.22 277.04L61.13 277.09L61.03 277.14L60.93 277.18L60.82 277.22L60.71 277.26L60.59 277.29L60.46 277.31L60.34 277.33L60.21 277.35L60.07 277.35L59.92 277.36L59.78 277.36L59.62 277.35L59.47 277.33L59.31 277.31L59.13 277.28L57.78 276.81L56.45 276.29L55.13 275.74L53.84 275.14L52.57 274.51L51.32 273.84L50.1 273.13L48.9 272.39L47.72 271.6L46.58 270.79L45.46 269.94L44.36 269.06L43.29 268.14L42.26 267.2L41.25 266.22L40.27 265.21L39.32 264.17L38.41 263.11L37.53 262.01L36.68 260.89L35.86 259.74L35.09 258.57L34.34 257.37L33.63 256.15L32.96 254.9L32.33 253.63L31.73 252.34L31.18 251.03L30.66 249.69L30.19 248.34L29.75 246.97L29.36 245.58L29.02 244.17L28.71 242.75L28.46 241.31L28.24 239.85L28.08 238.38L27.95 236.89L27.88 235.4L27.86 233.89L27.89 232L28.01 230.14L28.19 228.29L28.46 226.47L28.79 224.67L29.19 222.9L29.66 221.15L30.19 219.43L30.79 217.75L31.45 216.09L32.18 214.46L32.96 212.87L33.81 211.31L34.71 209.8L35.67 208.32L36.68 206.88L37.75 205.48L38.87 204.12L40.04 202.81L41.25 201.55L42.52 200.33L43.83 199.16L45.19 198.04L46.59 196.98L48.02 195.96L49.51 195.01L51.02 194.1L52.58 193.26L54.17 192.47L55.79 191.75L57.45 191.08L59.14 190.48L60.86 189.95L62.6 189.48L64.38 189.08L66.18 188.75L68 188.49L69.84 188.3L71.71 188.19L73.59 188.15L75.48 188.19L77.35 188.3L79.19 188.49L81.01 188.75Z" id="cLKVM1Vxm"></path><path d="M81.01 188.75L82.81 189.08L84.59 189.48L86.33 189.95L88.05 190.48L89.74 191.08L91.4 191.75L93.02 192.47L94.61 193.26L96.17 194.1L97.68 195.01L99.16 195.96L100.6 196.98L102 198.04L103.36 199.16L104.67 200.33L105.93 201.55L107.15 202.81L108.32 204.12L109.44 205.48L110.51 206.88L111.52 208.32L112.48 209.8L113.38 211.31L114.23 212.87L115.01 214.46L115.73 216.09L116.4 217.75L117 219.43L117.53 221.15L118 222.9L118.4 224.67L118.73 226.47L118.99 228.29L119.18 230.14L119.3 232L119.33 233.89L119.31 235.4L119.23 236.89L119.11 238.38L118.95 239.85L118.73 241.3L118.48 242.75L118.17 244.17L117.82 245.57L117.44 246.97L117 248.34L116.53 249.69L116.01 251.02L115.46 252.34L114.86 253.63L114.23 254.9L113.56 256.14L112.85 257.37L112.11 258.57L111.33 259.74L110.52 260.89L109.67 262.01L108.78 263.1L107.87 264.17L106.92 265.2L105.95 266.21L104.94 267.19L103.9 268.14L102.84 269.05L101.75 269.94L100.62 270.78L99.47 271.6L98.3 272.38L97.1 273.12L95.88 273.83L94.63 274.5L93.37 275.14L92.08 275.73L90.76 276.29L89.43 276.8L88.08 277.28L87.91 277.31L87.74 277.33L87.58 277.35L87.43 277.36L87.28 277.37L87.13 277.36L86.99 277.36L86.86 277.34L86.73 277.32L86.61 277.3L86.49 277.27L86.37 277.24L86.27 277.19L86.16 277.15L86.06 277.1L85.97 277.05L85.88 277L85.79 276.94L85.71 276.87L85.63 276.8L85.56 276.73L85.49 276.66L85.43 276.59L85.37 276.51L85.32 276.43L85.27 276.35L85.22 276.27L85.18 276.18L85.14 276.09L85.1 276L85.07 275.91L85.04 275.82L85.02 275.73L84.99 275.63L84.98 275.54L84.96 275.45L84.95 275.36L84.95 275.26L84.94 275.17L84.94 275.08L84.94 274.96L84.94 274.83L84.94 274.68L84.94 274.53L84.94 274.36L84.94 274.18L84.94 273.98L84.94 273.78L84.95 273.57L84.95 273.34L84.95 273.11L84.95 272.86L84.95 272.61L84.96 272.34L84.96 272.06L84.96 271.77L84.96 271.48L84.96 271.17L84.96 270.86L84.96 270.54L84.97 270.2L84.97 269.87L84.97 269.51L84.97 269.16L84.97 268.79L84.98 268.42L84.98 268.04L84.98 267.66L84.98 267.27L84.98 266.86L84.99 266.46L84.99 266.05L84.99 265.63L84.99 265.2L84.99 264.77L84.99 264.33L84.99 263.89L84.99 263.45L84.99 263L84.99 262.54L84.99 262.22L84.98 261.91L84.97 261.61L84.95 261.31L84.93 261.01L84.9 260.72L84.87 260.44L84.83 260.15L84.79 259.88L84.74 259.62L84.69 259.35L84.63 259.1L84.57 258.84L84.51 258.6L84.44 258.36L84.37 258.12L84.29 257.89L84.22 257.67L84.14 257.45L84.05 257.23L83.96 257.02L83.87 256.82L83.78 256.62L83.69 256.43L83.59 256.24L83.48 256.06L83.38 255.88L83.27 255.71L83.17 255.54L83.06 255.38L82.95 255.23L82.83 255.08L82.72 254.94L82.6 254.79L82.48 254.66L82.36 254.53L82.24 254.41L82.12 254.28L82 254.17L81.88 254.06L82.64 253.97L83.41 253.87L84.17 253.76L84.94 253.63L85.7 253.49L86.46 253.33L87.21 253.16L87.96 252.97L88.71 252.76L89.44 252.53L90.16 252.28L90.88 252.01L91.59 251.72L92.28 251.4L92.97 251.06L93.63 250.7L94.29 250.3L94.92 249.88L95.54 249.43L96.14 248.95L96.73 248.44L97.29 247.89L97.83 247.32L98.35 246.71L98.85 246.06L99.31 245.38L99.76 244.66L100.18 243.91L100.57 243.11L100.94 242.28L101.27 241.4L101.57 240.48L101.84 239.52L102.08 238.52L102.28 237.47L102.46 236.37L102.59 235.23L102.69 234.04L102.75 232.79L102.77 231.5L102.76 231.13L102.75 230.76L102.74 230.39L102.72 230.03L102.68 229.67L102.65 229.31L102.61 228.96L102.56 228.61L102.5 228.26L102.44 227.92L102.38 227.59L102.3 227.25L102.23 226.92L102.14 226.59L102.05 226.26L101.96 225.94L101.85 225.62L101.75 225.31L101.63 224.99L101.52 224.69L101.39 224.38L101.26 224.08L101.13 223.78L100.99 223.49L100.84 223.2L100.69 222.9L100.53 222.62L100.37 222.34L100.21 222.06L100.04 221.79L99.86 221.51L99.68 221.25L99.49 220.98L99.31 220.72L99.11 220.46L98.91 220.21L98.71 219.95L98.49 219.71L98.28 219.46L98.06 219.22L98.1 219.12L98.14 219.02L98.19 218.9L98.23 218.77L98.28 218.63L98.34 218.47L98.39 218.3L98.44 218.12L98.49 217.93L98.55 217.73L98.6 217.51L98.64 217.29L98.7 217.05L98.74 216.81L98.79 216.55L98.83 216.28L98.86 216L98.9 215.71L98.93 215.41L98.95 215.1L98.97 214.78L98.98 214.45L98.99 214.12L98.98 213.77L98.97 213.41L98.96 213.05L98.93 212.67L98.9 212.29L98.86 211.9L98.8 211.51L98.74 211.1L98.66 210.69L98.57 210.27L98.48 209.83L98.37 209.4L98.24 208.96L98.11 208.51L97.96 208.05L97.79 207.59L97.61 207.12L97.61 207.12L97.59 207.11L97.55 207.1L97.5 207.09L97.43 207.07L97.35 207.06L97.26 207.05L97.15 207.04L97.02 207.03L96.88 207.02L96.72 207.01L96.55 207.01L96.36 207.02L96.16 207.03L95.94 207.04L95.71 207.07L95.45 207.1L95.19 207.14L94.91 207.19L94.61 207.24L94.29 207.31L93.96 207.4L93.61 207.49L93.24 207.6L92.86 207.73L92.47 207.86L92.05 208.02L91.61 208.19L91.16 208.37L90.7 208.58L90.21 208.8L89.71 209.05L89.19 209.31L88.65 209.6L88.1 209.91L87.52 210.24L86.93 210.59L86.32 210.97L85.7 211.38L85.05 211.81L84.77 211.73L84.5 211.66L84.22 211.59L83.94 211.52L83.67 211.45L83.39 211.38L83.1 211.32L82.82 211.26L82.54 211.2L82.26 211.14L81.98 211.08L81.69 211.03L81.41 210.98L81.13 210.93L80.84 210.88L80.56 210.84L80.27 210.79L79.98 210.75L79.69 210.71L79.41 210.67L79.12 210.63L78.83 210.59L78.54 210.56L78.25 210.53L77.96 210.5L77.67 210.47L77.38 210.44L77.09 210.42L76.8 210.4L76.51 210.38L76.22 210.36L75.93 210.34L75.64 210.33L75.35 210.32L75.05 210.3L74.76 210.29L74.47 210.29L74.18 210.28L73.89 210.28L73.59 210.27L73.3 210.28L73.01 210.28L72.72 210.29L72.43 210.29L72.14 210.3L71.84 210.32L71.55 210.33L71.26 210.34L70.97 210.36L70.68 210.38L70.39 210.4L70.09 210.42L69.8 210.44L69.51 210.47L69.22 210.5L68.93 210.53L68.64 210.56L68.35 210.59L68.07 210.63L67.78 210.67L67.49 210.71L67.2 210.75L66.91 210.79L66.63 210.84L66.34 210.88L66.06 210.93L65.77 210.98L65.49 211.03L65.2 211.08L64.92 211.14L64.64 211.2L64.36 211.26L64.08 211.32L63.8 211.38L63.52 211.45L63.24 211.52L62.96 211.59L62.69 211.66L62.41 211.73L62.14 211.81L61.49 211.38L60.87 210.97L60.26 210.59L59.67 210.24L59.09 209.91L58.54 209.6L58 209.31L57.48 209.05L56.97 208.8L56.49 208.58L56.02 208.37L55.57 208.19L55.14 208.02L54.72 207.86L54.32 207.73L53.94 207.6L53.57 207.49L53.22 207.4L52.89 207.31L52.57 207.24L52.27 207.19L51.99 207.14L51.73 207.1L51.47 207.07L51.24 207.04L51.02 207.03L50.82 207.02L50.63 207.01L50.46 207.01L50.3 207.02L50.16 207.03L50.03 207.04L49.92 207.05L49.82 207.06L49.74 207.07L49.68 207.09L49.63 207.1L49.59 207.11L49.57 207.12L49.56 207.12L49.38 207.59L49.22 208.05L49.07 208.51L48.93 208.96L48.81 209.4L48.7 209.83L48.6 210.27L48.52 210.69L48.44 211.1L48.38 211.51L48.32 211.9L48.28 212.29L48.24 212.67L48.22 213.05L48.2 213.41L48.2 213.77L48.19 214.12L48.2 214.45L48.21 214.78L48.23 215.1L48.25 215.41L48.29 215.71L48.32 216L48.36 216.28L48.4 216.55L48.44 216.81L48.49 217.05L48.54 217.29L48.59 217.51L48.64 217.73L48.69 217.93L48.75 218.12L48.8 218.3L48.85 218.47L48.91 218.63L48.95 218.77L49 218.9L49.05 219.02L49.09 219.12L49.13 219.22L48.91 219.46L48.69 219.71L48.48 219.95L48.28 220.21L48.08 220.46L47.88 220.72L47.69 220.98L47.51 221.25L47.33 221.51L47.15 221.79L46.98 222.06L46.81 222.34L46.65 222.62L46.49 222.9L46.34 223.2L46.2 223.49L46.06 223.78L45.92 224.08L45.79 224.38L45.67 224.69L45.55 224.99L45.43 225.31L45.33 225.62L45.22 225.94L45.13 226.26L45.04 226.59L44.95 226.92L44.87 227.25L44.8 227.59L44.73 227.92L44.67 228.26L44.62 228.61L44.57 228.96L44.53 229.31L44.49 229.67L44.46 230.03L44.44 230.39L44.42 230.76L44.41 231.13L44.41 231.5L44.43 232.79L44.49 234.03L44.59 235.22L44.72 236.36L44.89 237.46L45.09 238.51L45.33 239.51L45.6 240.47L45.9 241.39L46.23 242.26L46.6 243.1L46.99 243.89L47.41 244.65L47.85 245.37L48.32 246.05L48.82 246.69L49.34 247.31L49.88 247.88L50.44 248.43L51.02 248.94L51.62 249.42L52.24 249.88L52.87 250.3L53.52 250.7L54.19 251.07L54.87 251.41L55.56 251.73L56.27 252.03L56.98 252.3L57.7 252.55L58.44 252.78L59.18 252.99L59.92 253.19L60.67 253.36L61.43 253.52L62.19 253.67L62.96 253.79L63.71 253.91L64.48 254.01L65.24 254.11L65.14 254.19L65.04 254.28L64.95 254.37L64.85 254.47L64.76 254.57L64.67 254.68L64.57 254.78L64.48 254.89L64.39 255.01L64.3 255.12L64.21 255.24L64.12 255.37L64.03 255.49L63.94 255.62L63.86 255.76L63.78 255.9L63.7 256.04L63.61 256.18L63.54 256.33L63.46 256.48L63.38 256.63L63.31 256.79L63.24 256.95L63.17 257.11L63.1 257.28L63.03 257.46L62.96 257.63L62.9 257.81L62.84 257.99L62.78 258.17L62.73 258.36L62.67 258.55L62.62 258.75L62.58 258.95L62.53 259.15L62.48 259.35L62.44 259.56L62.4 259.77L62.37 259.99L62.34 260.21L62.14 260.3L61.92 260.39L61.69 260.49L61.44 260.58L61.18 260.67L60.92 260.76L60.64 260.85L60.35 260.94L60.05 261.02L59.74 261.1L59.41 261.17L59.09 261.23L58.75 261.29L58.41 261.33L58.06 261.37L57.7 261.4L57.35 261.41L56.98 261.41L56.61 261.4L56.24 261.37L55.86 261.33L55.49 261.27L55.11 261.2L54.73 261.11L54.35 261L53.97 260.87L53.59 260.71L53.21 260.54L52.84 260.34L52.47 260.12L52.1 259.88L51.73 259.61L51.37 259.31L51.01 258.99L50.67 258.64L50.32 258.25L49.99 257.84L49.66 257.4L49.34 256.93L49.03 256.42L49.02 256.41L49.01 256.39L48.98 256.35L48.96 256.3L48.91 256.23L48.86 256.15L48.81 256.06L48.74 255.96L48.66 255.85L48.58 255.73L48.48 255.6L48.38 255.46L48.27 255.32L48.15 255.17L48.02 255.01L47.88 254.85L47.74 254.69L47.58 254.52L47.42 254.35L47.25 254.18L47.06 254.01L46.88 253.84L46.68 253.67L46.47 253.5L46.25 253.34L46.03 253.17L45.8 253.02L45.56 252.86L45.31 252.72L45.05 252.58L44.79 252.44L44.51 252.32L44.23 252.2L43.94 252.1L43.64 252L43.34 251.91L43.02 251.84L42.69 251.78L42.36 251.74L42.02 251.7L42.01 251.7L41.99 251.7L41.95 251.7L41.9 251.7L41.84 251.71L41.77 251.71L41.68 251.71L41.59 251.72L41.49 251.73L41.39 251.74L41.28 251.75L41.17 251.77L41.06 251.79L40.94 251.81L40.83 251.83L40.72 251.87L40.61 251.9L40.5 251.94L40.4 251.98L40.31 252.03L40.22 252.08L40.15 252.14L40.08 252.21L40.03 252.28L39.99 252.36L39.96 252.44L39.94 252.53L39.95 252.63L39.97 252.74L40.01 252.85L40.07 252.97L40.15 253.1L40.25 253.24L40.38 253.39L40.53 253.55L40.71 253.72L40.92 253.89L41.15 254.08L41.42 254.27L41.71 254.48L41.72 254.49L41.73 254.49L41.76 254.51L41.8 254.53L41.85 254.56L41.9 254.58L41.97 254.63L42.04 254.67L42.12 254.72L42.21 254.79L42.31 254.85L42.42 254.93L42.52 255.01L42.65 255.1L42.77 255.21L42.9 255.31L43.04 255.43L43.18 255.56L43.32 255.7L43.47 255.84L43.62 256L43.78 256.17L43.94 256.35L44.1 256.53L44.27 256.73L44.44 256.94L44.6 257.16L44.77 257.39L44.95 257.64L45.12 257.9L45.29 258.16L45.46 258.44L45.64 258.73L45.8 259.04L45.98 259.36L46.15 259.7L46.31 260.04L46.47 260.4L46.64 260.78L46.8 261.17L46.8 261.18L46.82 261.23L46.84 261.31L46.88 261.41L46.93 261.54L47 261.7L47.08 261.87L47.18 262.07L47.28 262.28L47.41 262.51L47.56 262.76L47.72 263.01L47.9 263.28L48.09 263.56L48.32 263.84L48.55 264.12L48.81 264.41L49.09 264.7L49.4 264.98L49.73 265.27L50.08 265.55L50.45 265.82L50.85 266.09L51.28 266.33L51.74 266.57L52.21 266.8L52.72 267.01L53.26 267.2L53.82 267.36L54.42 267.51L55.05 267.63L55.71 267.72L56.4 267.79L57.12 267.83L57.88 267.83L58.67 267.8L59.5 267.73L60.36 267.63L61.26 267.49L62.2 267.3L62.2 267.58L62.2 267.87L62.2 268.14L62.21 268.42L62.21 268.69L62.21 268.95L62.21 269.21L62.21 269.47L62.22 269.73L62.22 269.97L62.22 270.22L62.22 270.46L62.22 270.7L62.22 271.15L62.23 271.37L62.23 271.59L62.23 271.81L62.23 272.01L62.23 272.21L62.23 272.41L62.24 272.61L62.24 272.79L62.24 272.97L62.24 273.15L62.24 273.32L62.24 273.48L62.24 273.64L62.25 273.8L62.25 273.94L62.25 274.09L62.25 274.22L62.25 274.35L62.25 274.47L62.25 274.59L62.25 274.7L62.25 274.8L62.25 274.9L62.25 274.99L62.25 275.08L62.25 275.17L62.24 275.26L62.24 275.36L62.22 275.45L62.21 275.54L62.19 275.63L62.17 275.73L62.14 275.82L62.12 275.9L62.08 276L62.05 276.08L62.01 276.17L61.97 276.26L61.92 276.34L61.87 276.42L61.81 276.5L61.76 276.58L61.69 276.65L61.62 276.72L61.55 276.79L61.47 276.86L61.4 276.93L61.31 276.98L61.22 277.04L61.13 277.09L61.03 277.14L60.93 277.18L60.82 277.22L60.71 277.26L60.59 277.29L60.46 277.31L60.34 277.33L60.21 277.35L60.07 277.35L59.92 277.36L59.78 277.36L59.62 277.35L59.47 277.33L59.31 277.31L59.13 277.28L57.78 276.81L56.45 276.29L55.13 275.74L53.84 275.14L52.57 274.51L51.32 273.84L50.1 273.13L48.9 272.39L47.72 271.6L46.58 270.79L45.46 269.94L44.36 269.06L43.29 268.14L42.26 267.2L41.25 266.22L40.27 265.21L39.32 264.17L38.41 263.11L37.53 262.01L36.68 260.89L35.86 259.74L35.09 258.57L34.34 257.37L33.63 256.15L32.96 254.9L32.33 253.63L31.73 252.34L31.18 251.03L30.66 249.69L30.19 248.34L29.75 246.97L29.36 245.58L29.02 244.17L28.71 242.75L28.46 241.31L28.24 239.85L28.08 238.38L27.95 236.89L27.88 235.4L27.86 233.89L27.89 232L28.01 230.14L28.19 228.29L28.46 226.47L28.79 224.67L29.19 222.9L29.66 221.15L30.19 219.43L30.79 217.75L31.45 216.09L32.18 214.46L32.96 212.87L33.81 211.31L34.71 209.8L35.67 208.32L36.68 206.88L37.75 205.48L38.87 204.12L40.04 202.81L41.25 201.55L42.52 200.33L43.83 199.16L45.19 198.04L46.59 196.98L48.02 195.96L49.51 195.01L51.02 194.1L52.58 193.26L54.17 192.47L55.79 191.75L57.45 191.08L59.14 190.48L60.86 189.95L62.6 189.48L64.38 189.08L66.18 188.75L68 188.49L69.84 188.3L71.71 188.19L73.59 188.15L75.48 188.19L77.35 188.3L79.19 188.49L81.01 188.75Z" id="c2FoT0MC9Y"></path><path d="M81.01 188.75L82.81 189.08L84.59 189.48L86.33 189.95L88.05 190.48L89.74 191.08L91.4 191.75L93.02 192.47L94.61 193.26L96.17 194.1L97.68 195.01L99.16 195.96L100.6 196.98L102 198.04L103.36 199.16L104.67 200.33L105.93 201.55L107.15 202.81L108.32 204.12L109.44 205.48L110.51 206.88L111.52 208.32L112.48 209.8L113.38 211.31L114.23 212.87L115.01 214.46L115.73 216.09L116.4 217.75L117 219.43L117.53 221.15L118 222.9L118.4 224.67L118.73 226.47L118.99 228.29L119.18 230.14L119.3 232L119.33 233.89L119.31 235.4L119.23 236.89L119.11 238.38L118.95 239.85L118.73 241.3L118.48 242.75L118.17 244.17L117.82 245.57L117.44 246.97L117 248.34L116.53 249.69L116.01 251.02L115.46 252.34L114.86 253.63L114.23 254.9L113.56 256.14L112.85 257.37L112.11 258.57L111.33 259.74L110.52 260.89L109.67 262.01L108.78 263.1L107.87 264.17L106.92 265.2L105.95 266.21L104.94 267.19L103.9 268.14L102.84 269.05L101.75 269.94L100.62 270.78L99.47 271.6L98.3 272.38L97.1 273.12L95.88 273.83L94.63 274.5L93.37 275.14L92.08 275.73L90.76 276.29L89.43 276.8L88.08 277.28L87.91 277.31L87.74 277.33L87.58 277.35L87.43 277.36L87.28 277.37L87.13 277.36L86.99 277.36L86.86 277.34L86.73 277.32L86.61 277.3L86.49 277.27L86.37 277.24L86.27 277.19L86.16 277.15L86.06 277.1L85.97 277.05L85.88 277L85.79 276.94L85.71 276.87L85.63 276.8L85.56 276.73L85.49 276.66L85.43 276.59L85.37 276.51L85.32 276.43L85.27 276.35L85.22 276.27L85.18 276.18L85.14 276.09L85.1 276L85.07 275.91L85.04 275.82L85.02 275.73L84.99 275.63L84.98 275.54L84.96 275.45L84.95 275.36L84.95 275.26L84.94 275.17L84.94 275.08L84.94 274.96L84.94 274.83L84.94 274.68L84.94 274.53L84.94 274.36L84.94 274.18L84.94 273.98L84.94 273.78L84.95 273.57L84.95 273.34L84.95 273.11L84.95 272.86L84.95 272.61L84.96 272.34L84.96 272.06L84.96 271.77L84.96 271.48L84.96 271.17L84.96 270.86L84.96 270.54L84.97 270.2L84.97 269.87L84.97 269.51L84.97 269.16L84.97 268.79L84.98 268.42L84.98 268.04L84.98 267.66L84.98 267.27L84.98 266.86L84.99 266.46L84.99 266.05L84.99 265.63L84.99 265.2L84.99 264.77L84.99 264.33L84.99 263.89L84.99 263.45L84.99 263L84.99 262.54L84.99 262.22L84.98 261.91L84.97 261.61L84.95 261.31L84.93 261.01L84.9 260.72L84.87 260.44L84.83 260.15L84.79 259.88L84.74 259.62L84.69 259.35L84.63 259.1L84.57 258.84L84.51 258.6L84.44 258.36L84.37 258.12L84.29 257.89L84.22 257.67L84.14 257.45L84.05 257.23L83.96 257.02L83.87 256.82L83.78 256.62L83.69 256.43L83.59 256.24L83.48 256.06L83.38 255.88L83.27 255.71L83.17 255.54L83.06 255.38L82.95 255.23L82.83 255.08L82.72 254.94L82.6 254.79L82.48 254.66L82.36 254.53L82.24 254.41L82.12 254.28L82 254.17L81.88 254.06L82.64 253.97L83.41 253.87L84.17 253.76L84.94 253.63L85.7 253.49L86.46 253.33L87.21 253.16L87.96 252.97L88.71 252.76L89.44 252.53L90.16 252.28L90.88 252.01L91.59 251.72L92.28 251.4L92.97 251.06L93.63 250.7L94.29 250.3L94.92 249.88L95.54 249.43L96.14 248.95L96.73 248.44L97.29 247.89L97.83 247.32L98.35 246.71L98.85 246.06L99.31 245.38L99.76 244.66L100.18 243.91L100.57 243.11L100.94 242.28L101.27 241.4L101.57 240.48L101.84 239.52L102.08 238.52L102.28 237.47L102.46 236.37L102.59 235.23L102.69 234.04L102.75 232.79L102.77 231.5L102.76 231.13L102.75 230.76L102.74 230.39L102.72 230.03L102.68 229.67L102.65 229.31L102.61 228.96L102.56 228.61L102.5 228.26L102.44 227.92L102.38 227.59L102.3 227.25L102.23 226.92L102.14 226.59L102.05 226.26L101.96 225.94L101.85 225.62L101.75 225.31L101.63 224.99L101.52 224.69L101.39 224.38L101.26 224.08L101.13 223.78L100.99 223.49L100.84 223.2L100.69 222.9L100.53 222.62L100.37 222.34L100.21 222.06L100.04 221.79L99.86 221.51L99.68 221.25L99.49 220.98L99.31 220.72L99.11 220.46L98.91 220.21L98.71 219.95L98.49 219.71L98.28 219.46L98.06 219.22L98.1 219.12L98.14 219.02L98.19 218.9L98.23 218.77L98.28 218.63L98.34 218.47L98.39 218.3L98.44 218.12L98.49 217.93L98.55 217.73L98.6 217.51L98.64 217.29L98.7 217.05L98.74 216.81L98.79 216.55L98.83 216.28L98.86 216L98.9 215.71L98.93 215.41L98.95 215.1L98.97 214.78L98.98 214.45L98.99 214.12L98.98 213.77L98.97 213.41L98.96 213.05L98.93 212.67L98.9 212.29L98.86 211.9L98.8 211.51L98.74 211.1L98.66 210.69L98.57 210.27L98.48 209.83L98.37 209.4L98.24 208.96L98.11 208.51L97.96 208.05L97.79 207.59L97.61 207.12L97.61 207.12L97.59 207.11L97.55 207.1L97.5 207.09L97.43 207.07L97.35 207.06L97.26 207.05L97.15 207.04L97.02 207.03L96.88 207.02L96.72 207.01L96.55 207.01L96.36 207.02L96.16 207.03L95.94 207.04L95.71 207.07L95.45 207.1L95.19 207.14L94.91 207.19L94.61 207.24L94.29 207.31L93.96 207.4L93.61 207.49L93.24 207.6L92.86 207.73L92.47 207.86L92.05 208.02L91.61 208.19L91.16 208.37L90.7 208.58L90.21 208.8L89.71 209.05L89.19 209.31L88.65 209.6L88.1 209.91L87.52 210.24L86.93 210.59L86.32 210.97L85.7 211.38L85.05 211.81L84.77 211.73L84.5 211.66L84.22 211.59L83.94 211.52L83.67 211.45L83.39 211.38L83.1 211.32L82.82 211.26L82.54 211.2L82.26 211.14L81.98 211.08L81.69 211.03L81.41 210.98L81.13 210.93L80.84 210.88L80.56 210.84L80.27 210.79L79.98 210.75L79.69 210.71L79.41 210.67L79.12 210.63L78.83 210.59L78.54 210.56L78.25 210.53L77.96 210.5L77.67 210.47L77.38 210.44L77.09 210.42L76.8 210.4L76.51 210.38L76.22 210.36L75.93 210.34L75.64 210.33L75.35 210.32L75.05 210.3L74.76 210.29L74.47 210.29L74.18 210.28L73.89 210.28L73.59 210.27L73.3 210.28L73.01 210.28L72.72 210.29L72.43 210.29L72.14 210.3L71.84 210.32L71.55 210.33L71.26 210.34L70.97 210.36L70.68 210.38L70.39 210.4L70.09 210.42L69.8 210.44L69.51 210.47L69.22 210.5L68.93 210.53L68.64 210.56L68.35 210.59L68.07 210.63L67.78 210.67L67.49 210.71L67.2 210.75L66.91 210.79L66.63 210.84L66.34 210.88L66.06 210.93L65.77 210.98L65.49 211.03L65.2 211.08L64.92 211.14L64.64 211.2L64.36 211.26L64.08 211.32L63.8 211.38L63.52 211.45L63.24 211.52L62.96 211.59L62.69 211.66L62.41 211.73L62.14 211.81L61.49 211.38L60.87 210.97L60.26 210.59L59.67 210.24L59.09 209.91L58.54 209.6L58 209.31L57.48 209.05L56.97 208.8L56.49 208.58L56.02 208.37L55.57 208.19L55.14 208.02L54.72 207.86L54.32 207.73L53.94 207.6L53.57 207.49L53.22 207.4L52.89 207.31L52.57 207.24L52.27 207.19L51.99 207.14L51.73 207.1L51.47 207.07L51.24 207.04L51.02 207.03L50.82 207.02L50.63 207.01L50.46 207.01L50.3 207.02L50.16 207.03L50.03 207.04L49.92 207.05L49.82 207.06L49.74 207.07L49.68 207.09L49.63 207.1L49.59 207.11L49.57 207.12L49.56 207.12L49.38 207.59L49.22 208.05L49.07 208.51L48.93 208.96L48.81 209.4L48.7 209.83L48.6 210.27L48.52 210.69L48.44 211.1L48.38 211.51L48.32 211.9L48.28 212.29L48.24 212.67L48.22 213.05L48.2 213.41L48.2 213.77L48.19 214.12L48.2 214.45L48.21 214.78L48.23 215.1L48.25 215.41L48.29 215.71L48.32 216L48.36 216.28L48.4 216.55L48.44 216.81L48.49 217.05L48.54 217.29L48.59 217.51L48.64 217.73L48.69 217.93L48.75 218.12L48.8 218.3L48.85 218.47L48.91 218.63L48.95 218.77L49 218.9L49.05 219.02L49.09 219.12L49.13 219.22L48.91 219.46L48.69 219.71L48.48 219.95L48.28 220.21L48.08 220.46L47.88 220.72L47.69 220.98L47.51 221.25L47.33 221.51L47.15 221.79L46.98 222.06L46.81 222.34L46.65 222.62L46.49 222.9L46.34 223.2L46.2 223.49L46.06 223.78L45.92 224.08L45.79 224.38L45.67 224.69L45.55 224.99L45.43 225.31L45.33 225.62L45.22 225.94L45.13 226.26L45.04 226.59L44.95 226.92L44.87 227.25L44.8 227.59L44.73 227.92L44.67 228.26L44.62 228.61L44.57 228.96L44.53 229.31L44.49 229.67L44.46 230.03L44.44 230.39L44.42 230.76L44.41 231.13L44.41 231.5L44.43 232.79L44.49 234.03L44.59 235.22L44.72 236.36L44.89 237.46L45.09 238.51L45.33 239.51L45.6 240.47L45.9 241.39L46.23 242.26L46.6 243.1L46.99 243.89L47.41 244.65L47.85 245.37L48.32 246.05L48.82 246.69L49.34 247.31L49.88 247.88L50.44 248.43L51.02 248.94L51.62 249.42L52.24 249.88L52.87 250.3L53.52 250.7L54.19 251.07L54.87 251.41L55.56 251.73L56.27 252.03L56.98 252.3L57.7 252.55L58.44 252.78L59.18 252.99L59.92 253.19L60.67 253.36L61.43 253.52L62.19 253.67L62.96 253.79L63.71 253.91L64.48 254.01L65.24 254.11L65.14 254.19L65.04 254.28L64.95 254.37L64.85 254.47L64.76 254.57L64.67 254.68L64.57 254.78L64.48 254.89L64.39 255.01L64.3 255.12L64.21 255.24L64.12 255.37L64.03 255.49L63.94 255.62L63.86 255.76L63.78 255.9L63.7 256.04L63.61 256.18L63.54 256.33L63.46 256.48L63.38 256.63L63.31 256.79L63.24 256.95L63.17 257.11L63.1 257.28L63.03 257.46L62.96 257.63L62.9 257.81L62.84 257.99L62.78 258.17L62.73 258.36L62.67 258.55L62.62 258.75L62.58 258.95L62.53 259.15L62.48 259.35L62.44 259.56L62.4 259.77L62.37 259.99L62.34 260.21L62.14 260.3L61.92 260.39L61.69 260.49L61.44 260.58L61.18 260.67L60.92 260.76L60.64 260.85L60.35 260.94L60.05 261.02L59.74 261.1L59.41 261.17L59.09 261.23L58.75 261.29L58.41 261.33L58.06 261.37L57.7 261.4L57.35 261.41L56.98 261.41L56.61 261.4L56.24 261.37L55.86 261.33L55.49 261.27L55.11 261.2L54.73 261.11L54.35 261L53.97 260.87L53.59 260.71L53.21 260.54L52.84 260.34L52.47 260.12L52.1 259.88L51.73 259.61L51.37 259.31L51.01 258.99L50.67 258.64L50.32 258.25L49.99 257.84L49.66 257.4L49.34 256.93L49.03 256.42L49.02 256.41L49.01 256.39L48.98 256.35L48.96 256.3L48.91 256.23L48.86 256.15L48.81 256.06L48.74 255.96L48.66 255.85L48.58 255.73L48.48 255.6L48.38 255.46L48.27 255.32L48.15 255.17L48.02 255.01L47.88 254.85L47.74 254.69L47.58 254.52L47.42 254.35L47.25 254.18L47.06 254.01L46.88 253.84L46.68 253.67L46.47 253.5L46.25 253.34L46.03 253.17L45.8 253.02L45.56 252.86L45.31 252.72L45.05 252.58L44.79 252.44L44.51 252.32L44.23 252.2L43.94 252.1L43.64 252L43.34 251.91L43.02 251.84L42.69 251.78L42.36 251.74L42.02 251.7L42.01 251.7L41.99 251.7L41.95 251.7L41.9 251.7L41.84 251.71L41.77 251.71L41.68 251.71L41.59 251.72L41.49 251.73L41.39 251.74L41.28 251.75L41.17 251.77L41.06 251.79L40.94 251.81L40.83 251.83L40.72 251.87L40.61 251.9L40.5 251.94L40.4 251.98L40.31 252.03L40.22 252.08L40.15 252.14L40.08 252.21L40.03 252.28L39.99 252.36L39.96 252.44L39.94 252.53L39.95 252.63L39.97 252.74L40.01 252.85L40.07 252.97L40.15 253.1L40.25 253.24L40.38 253.39L40.53 253.55L40.71 253.72L40.92 253.89L41.15 254.08L41.42 254.27L41.71 254.48L41.72 254.49L41.73 254.49L41.76 254.51L41.8 254.53L41.85 254.56L41.9 254.58L41.97 254.63L42.04 254.67L42.12 254.72L42.21 254.79L42.31 254.85L42.42 254.93L42.52 255.01L42.65 255.1L42.77 255.21L42.9 255.31L43.04 255.43L43.18 255.56L43.32 255.7L43.47 255.84L43.62 256L43.78 256.17L43.94 256.35L44.1 256.53L44.27 256.73L44.44 256.94L44.6 257.16L44.77 257.39L44.95 257.64L45.12 257.9L45.29 258.16L45.46 258.44L45.64 258.73L45.8 259.04L45.98 259.36L46.15 259.7L46.31 260.04L46.47 260.4L46.64 260.78L46.8 261.17L46.8 261.18L46.82 261.23L46.84 261.31L46.88 261.41L46.93 261.54L47 261.7L47.08 261.87L47.18 262.07L47.28 262.28L47.41 262.51L47.56 262.76L47.72 263.01L47.9 263.28L48.09 263.56L48.32 263.84L48.55 264.12L48.81 264.41L49.09 264.7L49.4 264.98L49.73 265.27L50.08 265.55L50.45 265.82L50.85 266.09L51.28 266.33L51.74 266.57L52.21 266.8L52.72 267.01L53.26 267.2L53.82 267.36L54.42 267.51L55.05 267.63L55.71 267.72L56.4 267.79L57.12 267.83L57.88 267.83L58.67 267.8L59.5 267.73L60.36 267.63L61.26 267.49L62.2 267.3L62.2 267.58L62.2 267.87L62.2 268.14L62.21 268.42L62.21 268.69L62.21 268.95L62.21 269.21L62.21 269.47L62.22 269.73L62.22 269.97L62.22 270.22L62.22 270.46L62.22 270.7L62.22 271.15L62.23 271.37L62.23 271.59L62.23 271.81L62.23 272.01L62.23 272.21L62.23 272.41L62.24 272.61L62.24 272.79L62.24 272.97L62.24 273.15L62.24 273.32L62.24 273.48L62.24 273.64L62.25 273.8L62.25 273.94L62.25 274.09L62.25 274.22L62.25 274.35L62.25 274.47L62.25 274.59L62.25 274.7L62.25 274.8L62.25 274.9L62.25 274.99L62.25 275.08L62.25 275.17L62.24 275.26L62.24 275.36L62.22 275.45L62.21 275.54L62.19 275.63L62.17 275.73L62.14 275.82L62.12 275.9L62.08 276L62.05 276.08L62.01 276.17L61.97 276.26L61.92 276.34L61.87 276.42L61.81 276.5L61.76 276.58L61.69 276.65L61.62 276.72L61.55 276.79L61.47 276.86L61.4 276.93L61.31 276.98L61.22 277.04L61.13 277.09L61.03 277.14L60.93 277.18L60.82 277.22L60.71 277.26L60.59 277.29L60.46 277.31L60.34 277.33L60.21 277.35L60.07 277.35L59.92 277.36L59.78 277.36L59.62 277.35L59.47 277.33L59.31 277.31L59.13 277.28L57.78 276.81L56.45 276.29L55.13 275.74L53.84 275.14L52.57 274.51L51.32 273.84L50.1 273.13L48.9 272.39L47.72 271.6L46.58 270.79L45.46 269.94L44.36 269.06L43.29 268.14L42.26 267.2L41.25 266.22L40.27 265.21L39.32 264.17L38.41 263.11L37.53 262.01L36.68 260.89L35.86 259.74L35.09 258.57L34.34 257.37L33.63 256.15L32.96 254.9L32.33 253.63L31.73 252.34L31.18 251.03L30.66 249.69L30.19 248.34L29.75 246.97L29.36 245.58L29.02 244.17L28.71 242.75L28.46 241.31L28.24 239.85L28.08 238.38L27.95 236.89L27.88 235.4L27.86 233.89L27.89 232L28.01 230.14L28.19 228.29L28.46 226.47L28.79 224.67L29.19 222.9L29.66 221.15L30.19 219.43L30.79 217.75L31.45 216.09L32.18 214.46L32.96 212.87L33.81 211.31L34.71 209.8L35.67 208.32L36.68 206.88L37.75 205.48L38.87 204.12L40.04 202.81L41.25 201.55L42.52 200.33L43.83 199.16L45.19 198.04L46.59 196.98L48.02 195.96L49.51 195.01L51.02 194.1L52.58 193.26L54.17 192.47L55.79 191.75L57.45 191.08L59.14 190.48L60.86 189.95L62.6 189.48L64.38 189.08L66.18 188.75L68 188.49L69.84 188.3L71.71 188.19L73.59 188.15L75.48 188.19L77.35 188.3L79.19 188.49L81.01 188.75Z" id="d2t6hPjNRn"></path><path d="M1055.7 325.47L1067.5 335.11L1067.46 335.26L1067.42 335.4L1067.38 335.54L1067.3 335.82L1067.27 335.95L1067.23 336.09L1067.19 336.22L1067.16 336.35L1067.13 336.49L1067.09 336.62L1067.06 336.74L1067.02 336.87L1066.93 337.26L1066.89 337.38L1066.83 337.64L1066.8 337.77L1066.74 338.03L1066.7 338.16L1066.67 338.29L1066.64 338.42L1066.61 338.55L1066.58 338.69L1066.54 338.82L1066.48 339.1L1066.45 339.25L1066.41 339.39L1066.38 339.54L1066.35 339.69L1066.31 339.84L1066.28 339.99L1066.24 340.15L1066.21 340.31L1066.17 340.48L1066.13 340.64L1055.74 332.13L1055.74 365.74L1087.11 365.74L1087.11 357.53L1087.08 357.52L1087.05 357.5L1087.02 357.49L1086.98 357.47L1086.95 357.46L1086.92 357.44L1086.89 357.42L1086.85 357.41L1086.82 357.39L1086.76 357.35L1086.72 357.34L1086.66 357.3L1086.63 357.28L1086.59 357.26L1086.56 357.25L1086.53 357.23L1086.5 357.21L1086.46 357.19L1086.43 357.17L1086.4 357.15L1086.37 357.13L1086.33 357.11L1086.3 357.09L1086.27 357.07L1086.23 357.05L1086.2 357.03L1086.17 357L1086.13 356.98L1086.1 356.96L1086.07 356.94L1086.04 356.92L1086 356.89L1085.94 356.85L1085.9 356.83L1085.87 356.8L1085.84 356.78L1085.8 356.75L1073.85 346.96L1073.89 346.91L1073.93 346.85L1074.05 346.7L1074.1 346.64L1074.14 346.59L1074.18 346.54L1074.22 346.48L1074.34 346.33L1074.39 346.27L1074.43 346.22L1074.51 346.12L1074.55 346.06L1074.63 345.96L1074.67 345.91L1074.71 345.86L1074.75 345.8L1074.91 345.6L1074.95 345.54L1075.15 345.29L1075.19 345.23L1075.39 344.98L1075.47 344.88L1075.49 344.85L1075.56 344.75L1075.66 344.62L1075.69 344.58L1075.77 344.48L1075.8 344.43L1075.84 344.39L1075.87 344.34L1075.91 344.29L1075.94 344.25L1075.98 344.2L1076.01 344.15L1076.05 344.11L1076.08 344.06L1076.12 344.02L1076.15 343.97L1076.18 343.92L1076.22 343.88L1076.25 343.83L1076.29 343.79L1076.32 343.74L1076.35 343.69L1076.39 343.65L1076.42 343.6L1076.46 343.56L1076.49 343.51L1076.52 343.47L1076.55 343.42L1076.59 343.38L1076.62 343.33L1076.65 343.29L1076.68 343.25L1076.72 343.2L1076.75 343.16L1076.78 343.11L1076.81 343.07L1076.84 343.03L1076.88 342.98L1076.91 342.94L1076.94 342.9L1076.97 342.85L1076.99 342.87L1077.19 342.6L1077.4 342.33L1077.6 342.06L1077.81 341.79L1078.01 341.52L1078.22 341.24L1078.42 340.97L1078.63 340.7L1078.84 340.42L1079.04 340.14L1079.24 339.87L1079.45 339.59L1079.65 339.31L1079.86 339.03L1080.06 338.75L1080.66 337.91L1080.86 337.62L1081.06 337.34L1081.26 337.05L1081.46 336.77L1081.65 336.48L1081.85 336.2L1082.8 334.75L1082.98 334.46L1083.16 334.16L1083.35 333.87L1083.53 333.58L1083.7 333.28L1083.88 332.99L1084.05 332.69L1084.23 332.39L1084.4 332.09L1084.56 331.8L1084.73 331.5L1084.91 331.15L1085.09 330.79L1085.27 330.42L1085.45 330.04L1085.62 329.66L1085.78 329.26L1085.95 328.86L1086.1 328.45L1086.25 328.03L1086.53 327.19L1086.65 326.76L1086.77 326.33L1086.88 325.89L1086.98 325.46L1087.07 325.02L1087.16 324.59L1087.23 324.15L1087.29 323.71L1087.37 322.85L1087.39 322.42L1087.4 322L1087.4 321.58L1087.38 321.17L1087.35 320.76L1087.31 320.36L1087.24 319.97L1087.16 319.59L1087.07 319.21L1086.96 318.85L1086.83 318.49L1086.68 318.15L1086.52 317.82L1086.33 317.5L1086.13 317.2L1085.91 316.9L1085.66 316.63L1085.4 316.37L1085.11 316.12L1085.09 316.1L1085.01 316.03L1084.96 315.98L1084.93 315.96L1084.9 315.93L1084.87 315.91L1084.82 315.86L1084.79 315.83L1084.76 315.81L1084.74 315.78L1084.71 315.75L1084.68 315.73L1084.65 315.7L1084.62 315.68L1084.59 315.65L1084.56 315.62L1084.53 315.6L1084.47 315.54L1084.44 315.52L1084.41 315.49L1084.38 315.47L1084.35 315.44L1084.32 315.41L1084.29 315.39L1084.23 315.33L1084.2 315.31L1084.17 315.28L1084.14 315.25L1084.11 315.23L1084.08 315.2L1084.05 315.18L1083.99 315.12L1083.96 315.1L1083.97 315.09L1083.98 315.06L1083.99 315.04L1084.01 314.98L1084.02 314.96L1084.02 314.95L1084.03 314.92L1084.04 314.9L1084.05 314.87L1084.05 314.86L1084.06 314.84L1084.07 314.82L1084.08 314.8L1084.08 314.79L1084.09 314.76L1084.09 314.75L1084.1 314.73L1084.11 314.71L1084.11 314.69L1084.12 314.68L1084.13 314.65L1084.13 314.63L1084.14 314.61L1084.21 314.38L1084.28 314.13L1084.36 313.87L1084.44 313.59L1084.52 313.3L1084.61 312.99L1084.8 312.35L1084.9 312.01L1085 311.66L1085.1 311.31L1085.21 310.94L1085.31 310.58L1085.42 310.2L1085.54 309.82L1085.65 309.44L1085.77 309.05L1085.89 308.67L1086.01 308.28L1086.13 307.89L1086.25 307.51L1086.38 307.12L1086.5 306.74L1086.63 306.36L1086.75 305.99L1086.88 305.62L1087.01 305.26L1087.14 304.91L1087.26 304.56L1087.39 304.22L1087.52 303.9L1087.78 303.28L1087.9 302.99L1088.03 302.72L1088.15 302.46L1088.28 302.22L1088.4 301.99L1088.52 301.78L1088.65 301.59L1088.73 301.46L1088.83 301.34L1088.93 301.21L1089.15 300.97L1089.27 300.84L1089.4 300.72L1089.54 300.61L1089.68 300.49L1089.83 300.37L1090.15 300.15L1090.49 299.93L1090.67 299.83L1090.86 299.73L1091.06 299.63L1091.26 299.53L1091.68 299.35L1091.9 299.26L1092.12 299.18L1092.35 299.1L1092.59 299.02L1092.84 298.95L1093.08 298.88L1093.34 298.82L1093.6 298.76L1094.14 298.66L1094.42 298.61L1094.7 298.57L1094.99 298.53L1095.28 298.5L1095.58 298.48L1095.88 298.46L1096.19 298.44L1096.51 298.44L1096.83 298.43L1097.15 298.44L1097.47 298.44L1097.51 298.45L1097.65 298.45L1097.69 298.46L1097.79 298.46L1097.83 298.47L1097.86 298.47L1098.14 298.5L1098.42 298.53L1098.69 298.56L1098.95 298.6L1099.21 298.65L1099.46 298.69L1099.71 298.75L1099.95 298.8L1100.19 298.86L1100.42 298.92L1100.86 299.06L1101.28 299.2L1101.48 299.28L1101.68 299.36L1101.87 299.44L1102.05 299.53L1102.23 299.62L1102.4 299.7L1102.57 299.8L1102.73 299.89L1102.88 299.99L1103.03 300.08L1103.18 300.18L1103.31 300.28L1103.45 300.38L1103.57 300.48L1103.69 300.59L1103.81 300.69L1104.02 300.9L1104.11 301.01L1104.21 301.12L1104.29 301.23L1104.37 301.33L1104.51 301.55L1104.57 301.66L1104.63 301.76L1104.68 301.87L1104.73 301.98L1104.77 302.09L1104.82 302.21L1104.86 302.32L1104.91 302.43L1104.95 302.55L1104.99 302.66L1105.02 302.78L1105.06 302.9L1105.09 303.01L1105.13 303.13L1105.16 303.24L1105.19 303.35L1105.21 303.47L1105.27 303.69L1105.29 303.79L1105.31 303.9L1105.37 304.2L1105.39 304.29L1105.41 304.38L1105.42 304.47L1105.43 304.55L1105.45 304.63L1105.47 304.77L1105.49 304.89L1105.49 304.95L1105.5 305L1105.51 305.04L1105.51 305.11L1105.52 305.13L1105.52 305.17L1109.4 308.9L1104.33 310.87L1104.33 310.88L1104.32 310.9L1104.31 310.92L1104.31 310.93L1104.3 310.95L1104.3 310.98L1104.29 311L1104.28 311.03L1104.27 311.07L1104.26 311.1L1104.24 311.18L1104.23 311.23L1104.22 311.27L1104.21 311.33L1104.19 311.43L1104.17 311.55L1104.16 311.62L1104.14 311.68L1104.12 311.82L1104.11 311.9L1104.1 311.97L1104.09 312.05L1104.08 312.13L1104.08 312.22L1104.07 312.3L1104.06 312.39L1104.05 312.48L1104.05 312.58L1104.04 312.67L1104.04 312.77L1104.03 312.87L1104.03 313.43L1104.04 313.59L1104.05 313.76L1104.06 313.94L1104.08 314.14L1104.09 314.36L1104.11 314.59L1104.13 314.83L1104.15 315.08L1104.18 315.34L1104.2 315.61L1104.23 315.89L1104.29 316.47L1104.32 316.77L1104.35 317.07L1104.38 317.38L1104.41 317.69L1104.5 318.62L1104.57 319.23L1104.6 319.54L1104.63 319.84L1104.66 320.13L1104.69 320.42L1104.72 320.7L1104.74 320.98L1104.77 321.24L1104.79 321.49L1104.82 321.74L1104.84 321.97L1104.86 322.19L1104.87 322.39L1104.89 322.59L1104.9 322.76L1104.92 322.92L1104.92 323.06L1104.93 323.2L1104.93 323.35L1104.94 323.52L1104.94 323.71L1104.93 323.91L1104.93 324.12L1104.92 324.34L1104.91 324.58L1104.89 324.83L1104.87 325.09L1104.85 325.36L1104.83 325.65L1104.8 325.94L1104.76 326.24L1104.68 326.86L1104.63 327.19L1104.57 327.52L1104.52 327.86L1104.45 328.21L1104.38 328.56L1104.31 328.91L1104.22 329.27L1104.14 329.64L1104.04 330L1103.94 330.37L1103.83 330.75L1103.72 331.12L1103.6 331.5L1103.47 331.87L1103.19 332.63L1103.04 333L1102.88 333.38L1102.71 333.75L1102.53 334.12L1102.35 334.49L1102.16 334.86L1101.95 335.22L1101.74 335.57L1101.59 335.82L1101.27 336.32L1100.93 336.82L1100.76 337.08L1100.58 337.33L1100.4 337.59L1100.21 337.85L1100.02 338.1L1099.82 338.36L1099.62 338.62L1099.42 338.87L1099 339.39L1098.78 339.64L1098.56 339.89L1098.34 340.15L1097.88 340.65L1097.64 340.89L1097.41 341.14L1097.16 341.38L1096.92 341.62L1096.67 341.86L1096.42 342.09L1096.16 342.32L1095.91 342.55L1095.64 342.77L1095.38 342.99L1095.11 343.21L1094.57 343.63L1094.01 344.03L1093.73 344.22L1093.44 344.41L1093.16 344.59L1092.87 344.77L1092.57 344.94L1090.93 345.76L1090.83 345.8L1090.74 345.84L1090.65 345.88L1090.55 345.91L1090.46 345.95L1090.36 345.99L1090.27 346.02L1090.17 346.06L1090.08 346.09L1089.98 346.13L1089.88 346.16L1089.79 346.19L1089.69 346.22L1089.6 346.25L1089.5 346.28L1089.4 346.31L1089.3 346.34L1089.21 346.37L1089.11 346.4L1089.01 346.42L1088.91 346.45L1088.82 346.47L1088.72 346.5L1088.32 346.58L1088.22 346.6L1088.13 346.62L1087.93 346.66L1087.83 346.67L1087.73 346.69L1087.63 346.7L1087.53 346.72L1087.23 346.75L1087.12 346.76L1087.02 346.77L1086.86 346.78L1086.7 346.8L1086.54 346.81L1086.38 346.81L1086.22 346.82L1086.07 346.83L1085.75 346.83L1085.6 346.84L1085.44 346.84L1085.29 346.83L1084.98 346.83L1084.68 346.81L1084.53 346.81L1084.08 346.78L1083.93 346.76L1083.78 346.75L1083.64 346.73L1083.49 346.72L1083.21 346.68L1083.06 346.66L1082.78 346.62L1082.64 346.59L1082.5 346.57L1082.36 346.54L1082.22 346.52L1082.09 346.49L1081.95 346.46L1081.82 346.43L1081.68 346.4L1081.16 346.28L1086.81 350.9L1086.89 350.96L1086.92 350.99L1086.97 351.04L1087.01 351.07L1087.03 351.09L1087.04 351.1L1087.07 351.12L1087.14 351.19L1087.16 351.21L1087.17 351.22L1087.33 351.37L1087.49 351.51L1087.65 351.64L1087.8 351.76L1087.95 351.87L1088.1 351.97L1088.4 352.15L1088.54 352.22L1088.68 352.29L1088.82 352.35L1088.96 352.4L1089.1 352.45L1089.23 352.49L1089.36 352.52L1089.62 352.56L1089.86 352.58L1090.1 352.58L1090.21 352.57L1090.33 352.55L1090.55 352.51L1090.65 352.48L1090.75 352.45L1090.86 352.41L1090.95 352.38L1091.05 352.34L1091.15 352.29L1091.24 352.25L1091.33 352.2L1091.41 352.15L1091.5 352.09L1091.58 352.04L1091.66 351.98L1091.74 351.93L1091.88 351.81L1091.89 351.81L1091.91 351.79L1091.92 351.79L1091.96 351.75L1091.98 351.74L1092.01 351.72L1092.05 351.68L1092.04 351.68L1106.24 340.11L1111.91 340.11L1111.91 360.86L1111.9 361.28L1111.87 361.7L1111.83 362.11L1111.77 362.52L1111.7 362.92L1111.61 363.32L1111.51 363.71L1111.39 364.09L1111.25 364.47L1111.11 364.84L1110.95 365.21L1110.77 365.56L1110.58 365.91L1110.38 366.25L1110.17 366.58L1109.94 366.9L1109.7 367.21L1109.45 367.51L1109.19 367.81L1108.92 368.09L1108.64 368.36L1108.35 368.62L1108.05 368.87L1107.73 369.11L1107.41 369.33L1107.08 369.55L1106.74 369.75L1106.4 369.94L1106.04 370.11L1105.68 370.27L1105.31 370.42L1104.93 370.55L1104.55 370.67L1104.16 370.78L1103.76 370.87L1103.36 370.94L1102.95 371L1102.54 371.04L1102.12 371.06L1101.7 371.07L1049.04 371.07L1048.62 371.06L1048.2 371.04L1047.79 371L1047.38 370.94L1046.98 370.87L1046.58 370.78L1046.19 370.67L1045.81 370.55L1045.43 370.42L1045.06 370.27L1044.7 370.11L1044.34 369.94L1044 369.75L1043.66 369.55L1043.33 369.33L1043.01 369.11L1042.69 368.87L1042.39 368.62L1042.1 368.36L1041.82 368.09L1041.55 367.81L1041.29 367.51L1041.04 367.21L1040.8 366.9L1040.57 366.58L1040.36 366.25L1040.16 365.91L1039.97 365.56L1039.79 365.21L1039.63 364.84L1039.49 364.47L1039.35 364.09L1039.23 363.71L1039.13 363.32L1039.04 362.92L1038.97 362.52L1038.91 362.11L1038.87 361.7L1038.84 361.28L1038.83 360.86L1038.83 308.21L1038.84 307.79L1038.87 307.37L1038.91 306.96L1038.97 306.55L1039.04 306.15L1039.13 305.75L1039.23 305.36L1039.35 304.97L1039.63 304.23L1039.79 303.86L1039.97 303.51L1040.16 303.16L1040.36 302.82L1040.57 302.49L1040.8 302.17L1041.04 301.86L1041.29 301.56L1041.55 301.26L1041.82 300.98L1042.1 300.71L1042.39 300.45L1042.69 300.2L1043.01 299.96L1043.33 299.74L1043.66 299.52L1044 299.32L1044.34 299.13L1044.7 298.96L1045.06 298.8L1045.43 298.65L1045.81 298.52L1046.19 298.4L1046.58 298.29L1046.98 298.2L1047.38 298.13L1047.79 298.07L1048.2 298.03L1048.62 298.01L1049.04 298L1082.87 298L1082.87 303.35L1055.7 325.47ZM1049.17 303.35L1048.9 303.39L1048.64 303.43L1048.37 303.49L1048.12 303.56L1047.86 303.64L1047.62 303.74L1047.38 303.84L1047.14 303.96L1046.91 304.08L1046.69 304.22L1046.27 304.52L1046.07 304.69L1045.88 304.86L1045.52 305.24L1045.36 305.44L1045.2 305.64L1045.06 305.86L1044.92 306.08L1044.79 306.31L1044.68 306.54L1044.57 306.78L1044.48 307.03L1044.4 307.28L1044.33 307.54L1044.27 307.8L1044.22 308.07L1044.19 308.34L1044.17 308.61L1044.16 308.89L1044.16 360.18L1044.17 360.46L1044.19 360.73L1044.22 361L1044.27 361.27L1044.33 361.53L1044.4 361.79L1044.48 362.04L1044.57 362.29L1044.68 362.53L1044.79 362.76L1044.92 362.99L1045.06 363.21L1045.2 363.43L1045.36 363.63L1045.52 363.83L1045.88 364.21L1046.07 364.38L1046.27 364.55L1046.69 364.85L1046.91 364.99L1047.14 365.11L1047.38 365.23L1047.62 365.33L1047.86 365.43L1048.12 365.51L1048.37 365.58L1048.64 365.64L1048.9 365.68L1049.17 365.72L1049.45 365.74L1050.57 365.74L1050.57 325.22L1050.58 325.06L1050.59 324.9L1050.6 324.74L1050.62 324.59L1050.65 324.43L1050.68 324.28L1050.71 324.13L1050.79 323.83L1050.84 323.68L1050.89 323.54L1050.95 323.4L1051.01 323.25L1051.07 323.11L1051.14 322.97L1051.21 322.84L1051.29 322.7L1051.37 322.57L1051.46 322.44L1051.54 322.3L1051.64 322.18L1051.73 322.05L1051.84 321.92L1051.94 321.8L1052.05 321.68L1052.16 321.56L1052.4 321.32L1052.52 321.21L1052.65 321.09L1052.78 320.98L1052.92 320.87L1053.57 320.34L1054.23 319.81L1054.89 319.29L1055.54 318.76L1056.86 317.7L1057.52 317.17L1058.17 316.65L1059.49 315.59L1060.14 315.06L1061.46 314L1062.12 313.47L1063.43 312.42L1066.72 309.78L1067.37 309.25L1068.03 308.72L1069.34 307.66L1070.66 306.6L1071.32 306.08L1071.97 305.55L1072.63 305.02L1073.29 304.49L1073.94 303.96L1074.6 303.43L1074.76 303.33L1049.45 303.33L1049.17 303.35ZM1093.85 356.98L1093.84 356.98L1093.83 356.99L1093.8 357L1093.79 357.01L1093.71 357.08L1093.62 357.16L1093.54 357.22L1093.45 357.29L1093.37 357.35L1093.28 357.41L1093.2 357.46L1093.11 357.51L1092.95 357.61L1092.87 357.65L1092.87 365.74L1101.01 365.74L1101.84 365.68L1102.62 365.51L1103.36 365.23L1104.05 364.85L1104.67 364.38L1105.22 363.83L1105.68 363.21L1106.06 362.53L1106.34 361.79L1106.52 361L1106.58 360.18L1106.58 346.55L1093.85 356.97L1093.85 356.98Z" id="a4kNlNAxQa"></path><path d="M1055.7 325.47L1067.5 335.11L1067.46 335.26L1067.42 335.4L1067.38 335.54L1067.3 335.82L1067.27 335.95L1067.23 336.09L1067.19 336.22L1067.16 336.35L1067.13 336.49L1067.09 336.62L1067.06 336.74L1067.02 336.87L1066.93 337.26L1066.89 337.38L1066.83 337.64L1066.8 337.77L1066.74 338.03L1066.7 338.16L1066.67 338.29L1066.64 338.42L1066.61 338.55L1066.58 338.69L1066.54 338.82L1066.48 339.1L1066.45 339.25L1066.41 339.39L1066.38 339.54L1066.35 339.69L1066.31 339.84L1066.28 339.99L1066.24 340.15L1066.21 340.31L1066.17 340.48L1066.13 340.64L1055.74 332.13L1055.74 365.74L1087.11 365.74L1087.11 357.53L1087.08 357.52L1087.05 357.5L1087.02 357.49L1086.98 357.47L1086.95 357.46L1086.92 357.44L1086.89 357.42L1086.85 357.41L1086.82 357.39L1086.76 357.35L1086.72 357.34L1086.66 357.3L1086.63 357.28L1086.59 357.26L1086.56 357.25L1086.53 357.23L1086.5 357.21L1086.46 357.19L1086.43 357.17L1086.4 357.15L1086.37 357.13L1086.33 357.11L1086.3 357.09L1086.27 357.07L1086.23 357.05L1086.2 357.03L1086.17 357L1086.13 356.98L1086.1 356.96L1086.07 356.94L1086.04 356.92L1086 356.89L1085.94 356.85L1085.9 356.83L1085.87 356.8L1085.84 356.78L1085.8 356.75L1073.85 346.96L1073.89 346.91L1073.93 346.85L1074.05 346.7L1074.1 346.64L1074.14 346.59L1074.18 346.54L1074.22 346.48L1074.34 346.33L1074.39 346.27L1074.43 346.22L1074.51 346.12L1074.55 346.06L1074.63 345.96L1074.67 345.91L1074.71 345.86L1074.75 345.8L1074.91 345.6L1074.95 345.54L1075.15 345.29L1075.19 345.23L1075.39 344.98L1075.47 344.88L1075.49 344.85L1075.56 344.75L1075.66 344.62L1075.69 344.58L1075.77 344.48L1075.8 344.43L1075.84 344.39L1075.87 344.34L1075.91 344.29L1075.94 344.25L1075.98 344.2L1076.01 344.15L1076.05 344.11L1076.08 344.06L1076.12 344.02L1076.15 343.97L1076.18 343.92L1076.22 343.88L1076.25 343.83L1076.29 343.79L1076.32 343.74L1076.35 343.69L1076.39 343.65L1076.42 343.6L1076.46 343.56L1076.49 343.51L1076.52 343.47L1076.55 343.42L1076.59 343.38L1076.62 343.33L1076.65 343.29L1076.68 343.25L1076.72 343.2L1076.75 343.16L1076.78 343.11L1076.81 343.07L1076.84 343.03L1076.88 342.98L1076.91 342.94L1076.94 342.9L1076.97 342.85L1076.99 342.87L1077.19 342.6L1077.4 342.33L1077.6 342.06L1077.81 341.79L1078.01 341.52L1078.22 341.24L1078.42 340.97L1078.63 340.7L1078.84 340.42L1079.04 340.14L1079.24 339.87L1079.45 339.59L1079.65 339.31L1079.86 339.03L1080.06 338.75L1080.66 337.91L1080.86 337.62L1081.06 337.34L1081.26 337.05L1081.46 336.77L1081.65 336.48L1081.85 336.2L1082.8 334.75L1082.98 334.46L1083.16 334.16L1083.35 333.87L1083.53 333.58L1083.7 333.28L1083.88 332.99L1084.05 332.69L1084.23 332.39L1084.4 332.09L1084.56 331.8L1084.73 331.5L1084.91 331.15L1085.09 330.79L1085.27 330.42L1085.45 330.04L1085.62 329.66L1085.78 329.26L1085.95 328.86L1086.1 328.45L1086.25 328.03L1086.53 327.19L1086.65 326.76L1086.77 326.33L1086.88 325.89L1086.98 325.46L1087.07 325.02L1087.16 324.59L1087.23 324.15L1087.29 323.71L1087.37 322.85L1087.39 322.42L1087.4 322L1087.4 321.58L1087.38 321.17L1087.35 320.76L1087.31 320.36L1087.24 319.97L1087.16 319.59L1087.07 319.21L1086.96 318.85L1086.83 318.49L1086.68 318.15L1086.52 317.82L1086.33 317.5L1086.13 317.2L1085.91 316.9L1085.66 316.63L1085.4 316.37L1085.11 316.12L1085.09 316.1L1085.01 316.03L1084.96 315.98L1084.93 315.96L1084.9 315.93L1084.87 315.91L1084.82 315.86L1084.79 315.83L1084.76 315.81L1084.74 315.78L1084.71 315.75L1084.68 315.73L1084.65 315.7L1084.62 315.68L1084.59 315.65L1084.56 315.62L1084.53 315.6L1084.47 315.54L1084.44 315.52L1084.41 315.49L1084.38 315.47L1084.35 315.44L1084.32 315.41L1084.29 315.39L1084.23 315.33L1084.2 315.31L1084.17 315.28L1084.14 315.25L1084.11 315.23L1084.08 315.2L1084.05 315.18L1083.99 315.12L1083.96 315.1L1083.97 315.09L1083.98 315.06L1083.99 315.04L1084.01 314.98L1084.02 314.96L1084.02 314.95L1084.03 314.92L1084.04 314.9L1084.05 314.87L1084.05 314.86L1084.06 314.84L1084.07 314.82L1084.08 314.8L1084.08 314.79L1084.09 314.76L1084.09 314.75L1084.1 314.73L1084.11 314.71L1084.11 314.69L1084.12 314.68L1084.13 314.65L1084.13 314.63L1084.14 314.61L1084.21 314.38L1084.28 314.13L1084.36 313.87L1084.44 313.59L1084.52 313.3L1084.61 312.99L1084.8 312.35L1084.9 312.01L1085 311.66L1085.1 311.31L1085.21 310.94L1085.31 310.58L1085.42 310.2L1085.54 309.82L1085.65 309.44L1085.77 309.05L1085.89 308.67L1086.01 308.28L1086.13 307.89L1086.25 307.51L1086.38 307.12L1086.5 306.74L1086.63 306.36L1086.75 305.99L1086.88 305.62L1087.01 305.26L1087.14 304.91L1087.26 304.56L1087.39 304.22L1087.52 303.9L1087.78 303.28L1087.9 302.99L1088.03 302.72L1088.15 302.46L1088.28 302.22L1088.4 301.99L1088.52 301.78L1088.65 301.59L1088.73 301.46L1088.83 301.34L1088.93 301.21L1089.15 300.97L1089.27 300.84L1089.4 300.72L1089.54 300.61L1089.68 300.49L1089.83 300.37L1090.15 300.15L1090.49 299.93L1090.67 299.83L1090.86 299.73L1091.06 299.63L1091.26 299.53L1091.68 299.35L1091.9 299.26L1092.12 299.18L1092.35 299.1L1092.59 299.02L1092.84 298.95L1093.08 298.88L1093.34 298.82L1093.6 298.76L1094.14 298.66L1094.42 298.61L1094.7 298.57L1094.99 298.53L1095.28 298.5L1095.58 298.48L1095.88 298.46L1096.19 298.44L1096.51 298.44L1096.83 298.43L1097.15 298.44L1097.47 298.44L1097.51 298.45L1097.65 298.45L1097.69 298.46L1097.79 298.46L1097.83 298.47L1097.86 298.47L1098.14 298.5L1098.42 298.53L1098.69 298.56L1098.95 298.6L1099.21 298.65L1099.46 298.69L1099.71 298.75L1099.95 298.8L1100.19 298.86L1100.42 298.92L1100.86 299.06L1101.28 299.2L1101.48 299.28L1101.68 299.36L1101.87 299.44L1102.05 299.53L1102.23 299.62L1102.4 299.7L1102.57 299.8L1102.73 299.89L1102.88 299.99L1103.03 300.08L1103.18 300.18L1103.31 300.28L1103.45 300.38L1103.57 300.48L1103.69 300.59L1103.81 300.69L1104.02 300.9L1104.11 301.01L1104.21 301.12L1104.29 301.23L1104.37 301.33L1104.51 301.55L1104.57 301.66L1104.63 301.76L1104.68 301.87L1104.73 301.98L1104.77 302.09L1104.82 302.21L1104.86 302.32L1104.91 302.43L1104.95 302.55L1104.99 302.66L1105.02 302.78L1105.06 302.9L1105.09 303.01L1105.13 303.13L1105.16 303.24L1105.19 303.35L1105.21 303.47L1105.27 303.69L1105.29 303.79L1105.31 303.9L1105.37 304.2L1105.39 304.29L1105.41 304.38L1105.42 304.47L1105.43 304.55L1105.45 304.63L1105.47 304.77L1105.49 304.89L1105.49 304.95L1105.5 305L1105.51 305.04L1105.51 305.11L1105.52 305.13L1105.52 305.17L1109.4 308.9L1104.33 310.87L1104.33 310.88L1104.32 310.9L1104.31 310.92L1104.31 310.93L1104.3 310.95L1104.3 310.98L1104.29 311L1104.28 311.03L1104.27 311.07L1104.26 311.1L1104.24 311.18L1104.23 311.23L1104.22 311.27L1104.21 311.33L1104.19 311.43L1104.17 311.55L1104.16 311.62L1104.14 311.68L1104.12 311.82L1104.11 311.9L1104.1 311.97L1104.09 312.05L1104.08 312.13L1104.08 312.22L1104.07 312.3L1104.06 312.39L1104.05 312.48L1104.05 312.58L1104.04 312.67L1104.04 312.77L1104.03 312.87L1104.03 313.43L1104.04 313.59L1104.05 313.76L1104.06 313.94L1104.08 314.14L1104.09 314.36L1104.11 314.59L1104.13 314.83L1104.15 315.08L1104.18 315.34L1104.2 315.61L1104.23 315.89L1104.29 316.47L1104.32 316.77L1104.35 317.07L1104.38 317.38L1104.41 317.69L1104.5 318.62L1104.57 319.23L1104.6 319.54L1104.63 319.84L1104.66 320.13L1104.69 320.42L1104.72 320.7L1104.74 320.98L1104.77 321.24L1104.79 321.49L1104.82 321.74L1104.84 321.97L1104.86 322.19L1104.87 322.39L1104.89 322.59L1104.9 322.76L1104.92 322.92L1104.92 323.06L1104.93 323.2L1104.93 323.35L1104.94 323.52L1104.94 323.71L1104.93 323.91L1104.93 324.12L1104.92 324.34L1104.91 324.58L1104.89 324.83L1104.87 325.09L1104.85 325.36L1104.83 325.65L1104.8 325.94L1104.76 326.24L1104.68 326.86L1104.63 327.19L1104.57 327.52L1104.52 327.86L1104.45 328.21L1104.38 328.56L1104.31 328.91L1104.22 329.27L1104.14 329.64L1104.04 330L1103.94 330.37L1103.83 330.75L1103.72 331.12L1103.6 331.5L1103.47 331.87L1103.19 332.63L1103.04 333L1102.88 333.38L1102.71 333.75L1102.53 334.12L1102.35 334.49L1102.16 334.86L1101.95 335.22L1101.74 335.57L1101.59 335.82L1101.27 336.32L1100.93 336.82L1100.76 337.08L1100.58 337.33L1100.4 337.59L1100.21 337.85L1100.02 338.1L1099.82 338.36L1099.62 338.62L1099.42 338.87L1099 339.39L1098.78 339.64L1098.56 339.89L1098.34 340.15L1097.88 340.65L1097.64 340.89L1097.41 341.14L1097.16 341.38L1096.92 341.62L1096.67 341.86L1096.42 342.09L1096.16 342.32L1095.91 342.55L1095.64 342.77L1095.38 342.99L1095.11 343.21L1094.57 343.63L1094.01 344.03L1093.73 344.22L1093.44 344.41L1093.16 344.59L1092.87 344.77L1092.57 344.94L1090.93 345.76L1090.83 345.8L1090.74 345.84L1090.65 345.88L1090.55 345.91L1090.46 345.95L1090.36 345.99L1090.27 346.02L1090.17 346.06L1090.08 346.09L1089.98 346.13L1089.88 346.16L1089.79 346.19L1089.69 346.22L1089.6 346.25L1089.5 346.28L1089.4 346.31L1089.3 346.34L1089.21 346.37L1089.11 346.4L1089.01 346.42L1088.91 346.45L1088.82 346.47L1088.72 346.5L1088.32 346.58L1088.22 346.6L1088.13 346.62L1087.93 346.66L1087.83 346.67L1087.73 346.69L1087.63 346.7L1087.53 346.72L1087.23 346.75L1087.12 346.76L1087.02 346.77L1086.86 346.78L1086.7 346.8L1086.54 346.81L1086.38 346.81L1086.22 346.82L1086.07 346.83L1085.75 346.83L1085.6 346.84L1085.44 346.84L1085.29 346.83L1084.98 346.83L1084.68 346.81L1084.53 346.81L1084.08 346.78L1083.93 346.76L1083.78 346.75L1083.64 346.73L1083.49 346.72L1083.21 346.68L1083.06 346.66L1082.78 346.62L1082.64 346.59L1082.5 346.57L1082.36 346.54L1082.22 346.52L1082.09 346.49L1081.95 346.46L1081.82 346.43L1081.68 346.4L1081.16 346.28L1086.81 350.9L1086.89 350.96L1086.92 350.99L1086.97 351.04L1087.01 351.07L1087.03 351.09L1087.04 351.1L1087.07 351.12L1087.14 351.19L1087.16 351.21L1087.17 351.22L1087.33 351.37L1087.49 351.51L1087.65 351.64L1087.8 351.76L1087.95 351.87L1088.1 351.97L1088.4 352.15L1088.54 352.22L1088.68 352.29L1088.82 352.35L1088.96 352.4L1089.1 352.45L1089.23 352.49L1089.36 352.52L1089.62 352.56L1089.86 352.58L1090.1 352.58L1090.21 352.57L1090.33 352.55L1090.55 352.51L1090.65 352.48L1090.75 352.45L1090.86 352.41L1090.95 352.38L1091.05 352.34L1091.15 352.29L1091.24 352.25L1091.33 352.2L1091.41 352.15L1091.5 352.09L1091.58 352.04L1091.66 351.98L1091.74 351.93L1091.88 351.81L1091.89 351.81L1091.91 351.79L1091.92 351.79L1091.96 351.75L1091.98 351.74L1092.01 351.72L1092.05 351.68L1092.04 351.68L1106.24 340.11L1111.91 340.11L1111.91 360.86L1111.9 361.28L1111.87 361.7L1111.83 362.11L1111.77 362.52L1111.7 362.92L1111.61 363.32L1111.51 363.71L1111.39 364.09L1111.25 364.47L1111.11 364.84L1110.95 365.21L1110.77 365.56L1110.58 365.91L1110.38 366.25L1110.17 366.58L1109.94 366.9L1109.7 367.21L1109.45 367.51L1109.19 367.81L1108.92 368.09L1108.64 368.36L1108.35 368.62L1108.05 368.87L1107.73 369.11L1107.41 369.33L1107.08 369.55L1106.74 369.75L1106.4 369.94L1106.04 370.11L1105.68 370.27L1105.31 370.42L1104.93 370.55L1104.55 370.67L1104.16 370.78L1103.76 370.87L1103.36 370.94L1102.95 371L1102.54 371.04L1102.12 371.06L1101.7 371.07L1049.04 371.07L1048.62 371.06L1048.2 371.04L1047.79 371L1047.38 370.94L1046.98 370.87L1046.58 370.78L1046.19 370.67L1045.81 370.55L1045.43 370.42L1045.06 370.27L1044.7 370.11L1044.34 369.94L1044 369.75L1043.66 369.55L1043.33 369.33L1043.01 369.11L1042.69 368.87L1042.39 368.62L1042.1 368.36L1041.82 368.09L1041.55 367.81L1041.29 367.51L1041.04 367.21L1040.8 366.9L1040.57 366.58L1040.36 366.25L1040.16 365.91L1039.97 365.56L1039.79 365.21L1039.63 364.84L1039.49 364.47L1039.35 364.09L1039.23 363.71L1039.13 363.32L1039.04 362.92L1038.97 362.52L1038.91 362.11L1038.87 361.7L1038.84 361.28L1038.83 360.86L1038.83 308.21L1038.84 307.79L1038.87 307.37L1038.91 306.96L1038.97 306.55L1039.04 306.15L1039.13 305.75L1039.23 305.36L1039.35 304.97L1039.63 304.23L1039.79 303.86L1039.97 303.51L1040.16 303.16L1040.36 302.82L1040.57 302.49L1040.8 302.17L1041.04 301.86L1041.29 301.56L1041.55 301.26L1041.82 300.98L1042.1 300.71L1042.39 300.45L1042.69 300.2L1043.01 299.96L1043.33 299.74L1043.66 299.52L1044 299.32L1044.34 299.13L1044.7 298.96L1045.06 298.8L1045.43 298.65L1045.81 298.52L1046.19 298.4L1046.58 298.29L1046.98 298.2L1047.38 298.13L1047.79 298.07L1048.2 298.03L1048.62 298.01L1049.04 298L1082.87 298L1082.87 303.35L1055.7 325.47ZM1049.17 303.35L1048.9 303.39L1048.64 303.43L1048.37 303.49L1048.12 303.56L1047.86 303.64L1047.62 303.74L1047.38 303.84L1047.14 303.96L1046.91 304.08L1046.69 304.22L1046.27 304.52L1046.07 304.69L1045.88 304.86L1045.52 305.24L1045.36 305.44L1045.2 305.64L1045.06 305.86L1044.92 306.08L1044.79 306.31L1044.68 306.54L1044.57 306.78L1044.48 307.03L1044.4 307.28L1044.33 307.54L1044.27 307.8L1044.22 308.07L1044.19 308.34L1044.17 308.61L1044.16 308.89L1044.16 360.18L1044.17 360.46L1044.19 360.73L1044.22 361L1044.27 361.27L1044.33 361.53L1044.4 361.79L1044.48 362.04L1044.57 362.29L1044.68 362.53L1044.79 362.76L1044.92 362.99L1045.06 363.21L1045.2 363.43L1045.36 363.63L1045.52 363.83L1045.88 364.21L1046.07 364.38L1046.27 364.55L1046.69 364.85L1046.91 364.99L1047.14 365.11L1047.38 365.23L1047.62 365.33L1047.86 365.43L1048.12 365.51L1048.37 365.58L1048.64 365.64L1048.9 365.68L1049.17 365.72L1049.45 365.74L1050.57 365.74L1050.57 325.22L1050.58 325.06L1050.59 324.9L1050.6 324.74L1050.62 324.59L1050.65 324.43L1050.68 324.28L1050.71 324.13L1050.79 323.83L1050.84 323.68L1050.89 323.54L1050.95 323.4L1051.01 323.25L1051.07 323.11L1051.14 322.97L1051.21 322.84L1051.29 322.7L1051.37 322.57L1051.46 322.44L1051.54 322.3L1051.64 322.18L1051.73 322.05L1051.84 321.92L1051.94 321.8L1052.05 321.68L1052.16 321.56L1052.4 321.32L1052.52 321.21L1052.65 321.09L1052.78 320.98L1052.92 320.87L1053.57 320.34L1054.23 319.81L1054.89 319.29L1055.54 318.76L1056.86 317.7L1057.52 317.17L1058.17 316.65L1059.49 315.59L1060.14 315.06L1061.46 314L1062.12 313.47L1063.43 312.42L1066.72 309.78L1067.37 309.25L1068.03 308.72L1069.34 307.66L1070.66 306.6L1071.32 306.08L1071.97 305.55L1072.63 305.02L1073.29 304.49L1073.94 303.96L1074.6 303.43L1074.76 303.33L1049.45 303.33L1049.17 303.35ZM1093.85 356.98L1093.84 356.98L1093.83 356.99L1093.8 357L1093.79 357.01L1093.71 357.08L1093.62 357.16L1093.54 357.22L1093.45 357.29L1093.37 357.35L1093.28 357.41L1093.2 357.46L1093.11 357.51L1092.95 357.61L1092.87 357.65L1092.87 365.74L1101.01 365.74L1101.84 365.68L1102.62 365.51L1103.36 365.23L1104.05 364.85L1104.67 364.38L1105.22 363.83L1105.68 363.21L1106.06 362.53L1106.34 361.79L1106.52 361L1106.58 360.18L1106.58 346.55L1093.85 356.97L1093.85 356.98Z" id="bRJXCigps"></path><path d="M1103.71 304.8C1103.71 304.8 1102.25 305.09 1101.69 305.68C1101.12 306.27 1100.64 307.36 1100.64 307.36C1100.64 307.36 1101.04 307.75 1101.2 308.64C1101.36 309.52 1101.44 310.61 1101.44 310.61C1102.23 310.3 1104.2 309.55 1107.34 308.34C1105.16 306.21 1103.95 305.03 1103.71 304.8Z" id="bd7yiVxhi"></path><path d="M1103.71 304.8C1103.71 304.8 1102.25 305.09 1101.69 305.68C1101.12 306.27 1100.64 307.36 1100.64 307.36C1100.64 307.36 1101.04 307.75 1101.2 308.64C1101.36 309.52 1101.44 310.61 1101.44 310.61C1102.23 310.3 1104.2 309.55 1107.34 308.34C1105.16 306.21 1103.95 305.03 1103.71 304.8Z" id="aMQTN26bU"></path><path d="M1098.49 305.94C1097.34 306.17 1095.98 305.82 1095.98 305C1095.98 304.18 1096.96 303.3 1097.86 303C1098.53 302.78 1099.68 302.55 1099.85 303.71C1100.06 305.1 1099.64 305.7 1098.49 305.94Z" id="b19ABbXEZl"></path><path d="M1098.49 305.94C1097.34 306.17 1095.98 305.82 1095.98 305C1095.98 304.18 1096.96 303.3 1097.86 303C1098.53 302.78 1099.68 302.55 1099.85 303.71C1100.06 305.1 1099.64 305.7 1098.49 305.94Z" id="a3Wrh3HI7"></path></defs><g><g><g><use xlink:href="#e1XG0LQgvd" opacity="1" fill="#ffffff" fill-opacity="1"></use><g><use xlink:href="#e1XG0LQgvd" opacity="1" fill-opacity="0" stroke="#000000" stroke-width="1" stroke-opacity="0"></use></g></g><g><use xlink:href="#cjQHbRI2f" opacity="1" fill="#000000" fill-opacity="0"></use><g><use xlink:href="#cjQHbRI2f" opacity="1" fill-opacity="0" stroke="#000000" stroke-width="1" stroke-opacity="0"></use></g></g><g><use xlink:href="#b2XYQKlYPv" opacity="1" fill="#ffffff" fill-opacity="1"></use><g><use xlink:href="#b2XYQKlYPv" opacity="1" fill-opacity="0" stroke="#000000" stroke-width="1" stroke-opacity="0"></use></g></g><g><use xlink:href="#c5wenQUP2I" opacity="1" fill="#000000" fill-opacity="0"></use><g><use xlink:href="#c5wenQUP2I" opacity="1" fill-opacity="0" stroke="#000000" stroke-width="1" stroke-opacity="0"></use></g></g><g><use xlink:href="#a2GeuEksVT" opacity="1" fill="#ffffff" fill-opacity="1"></use><g><use xlink:href="#a2GeuEksVT" opacity="1" fill-opacity="0" stroke="#000000" stroke-width="1" stroke-opacity="0"></use></g></g><g><use xlink:href="#b1kPZotxi" opacity="1" fill="#000000" fill-opacity="0"></use><g><use xlink:href="#b1kPZotxi" opacity="1" fill-opacity="0" stroke="#000000" stroke-width="1" stroke-opacity="0"></use></g></g><g><use xlink:href="#b1QEJck9N" opacity="1" fill="#4285f4" fill-opacity="1"></use><g><use xlink:href="#b1QEJck9N" opacity="1" fill-opacity="0" stroke="#000000" stroke-width="1" stroke-opacity="0"></use></g></g><g><use xlink:href="#a4EVWxrqLs" opacity="1" fill="#000000" fill-opacity="0"></use><g><use xlink:href="#a4EVWxrqLs" opacity="1" fill-opacity="0" stroke="#000000" stroke-width="1" stroke-opacity="0"></use></g></g><g><use xlink:href="#abT4IYK82" opacity="1" fill="#000000" fill-opacity="0"></use><g><use xlink:href="#abT4IYK82" opacity="1" fill-opacity="0" stroke="#000000" stroke-width="1" stroke-opacity="0"></use></g></g><g><use xlink:href="#a2WbnWkdaN" opacity="1" fill="#000000" fill-opacity="0"></use><g><use xlink:href="#a2WbnWkdaN" opacity="1" fill-opacity="0" stroke="#000000" stroke-width="1" stroke-opacity="0"></use></g></g><g><use xlink:href="#d1tgMjRHIU" opacity="1" fill="#34a853" fill-opacity="1"></use><g><use xlink:href="#d1tgMjRHIU" opacity="1" fill-opacity="0" stroke="#000000" stroke-width="1" stroke-opacity="0"></use></g></g><g><use xlink:href="#dgLXiklln" opacity="1" fill="#000000" fill-opacity="0"></use><g><use xlink:href="#dgLXiklln" opacity="1" fill-opacity="0" stroke="#000000" stroke-width="1" stroke-opacity="0"></use></g></g><g><use xlink:href="#dD9CwqXTX" opacity="1" fill="#000000" fill-opacity="0"></use><g><use xlink:href="#dD9CwqXTX" opacity="1" fill-opacity="0" stroke="#000000" stroke-width="1" stroke-opacity="0"></use></g></g><g><use xlink:href="#f5fbbmjWye" opacity="1" fill="#000000" fill-opacity="0"></use><g><use xlink:href="#f5fbbmjWye" opacity="1" fill-opacity="0" stroke="#000000" stroke-width="1" stroke-opacity="0"></use></g></g><g><use xlink:href="#gO9czSWxg" opacity="1" fill="#fbbc04" fill-opacity="1"></use><g><use xlink:href="#gO9czSWxg" opacity="1" fill-opacity="0" stroke="#000000" stroke-width="1" stroke-opacity="0"></use></g></g><g><use xlink:href="#a5X1AooHNC" opacity="1" fill="#000000" fill-opacity="0"></use><g><use xlink:href="#a5X1AooHNC" opacity="1" fill-opacity="0" stroke="#000000" stroke-width="1" stroke-opacity="0"></use></g></g><g><use xlink:href="#b10zBFojTS" opacity="1" fill="#000000" fill-opacity="0"></use><g><use xlink:href="#b10zBFojTS" opacity="1" fill-opacity="0" stroke="#000000" stroke-width="1" stroke-opacity="0"></use></g></g><g><use xlink:href="#a4yvwO6Q5V" opacity="1" fill="#000000" fill-opacity="0"></use><g><use xlink:href="#a4yvwO6Q5V" opacity="1" fill-opacity="0" stroke="#000000" stroke-width="1" stroke-opacity="0"></use></g></g><g><use xlink:href="#i8KLMXHDg" opacity="1" fill="#ea4335" fill-opacity="1"></use><g><use xlink:href="#i8KLMXHDg" opacity="1" fill-opacity="0" stroke="#000000" stroke-width="1" stroke-opacity="0"></use></g></g><g><use xlink:href="#b1pKo72olX" opacity="1" fill="#000000" fill-opacity="0"></use><g><use xlink:href="#b1pKo72olX" opacity="1" fill-opacity="0" stroke="#000000" stroke-width="1" stroke-opacity="0"></use></g></g><g><use xlink:href="#d5lRrPEjeI" opacity="1" fill="#000000" fill-opacity="0"></use><g><use xlink:href="#d5lRrPEjeI" opacity="1" fill-opacity="0" stroke="#000000" stroke-width="1" stroke-opacity="0"></use></g></g><g><use xlink:href="#b38xDKRWrb" opacity="1" fill="#000000" fill-opacity="0"></use><g><use xlink:href="#b38xDKRWrb" opacity="1" fill-opacity="0" stroke="#000000" stroke-width="1" stroke-opacity="0"></use></g></g><g><use xlink:href="#h7wp4NBTP" opacity="1" fill="#181718" fill-opacity="1"></use><g><use xlink:href="#h7wp4NBTP" opacity="1" fill-opacity="0" stroke="#000000" stroke-width="1" stroke-opacity="0"></use></g></g><g><use xlink:href="#cLKVM1Vxm" opacity="1" fill="#000000" fill-opacity="0"></use><g><use xlink:href="#cLKVM1Vxm" opacity="1" fill-opacity="0" stroke="#000000" stroke-width="1" stroke-opacity="0"></use></g></g><g><use xlink:href="#c2FoT0MC9Y" opacity="1" fill="#000000" fill-opacity="0"></use><g><use xlink:href="#c2FoT0MC9Y" opacity="1" fill-opacity="0" stroke="#000000" stroke-width="1" stroke-opacity="0"></use></g></g><g><use xlink:href="#d2t6hPjNRn" opacity="1" fill="#000000" fill-opacity="0"></use><g><use xlink:href="#d2t6hPjNRn" opacity="1" fill-opacity="0" stroke="#000000" stroke-width="1" stroke-opacity="0"></use></g></g><g><use xlink:href="#a4kNlNAxQa" opacity="1" fill="#1d365d" fill-opacity="1"></use><g><use xlink:href="#a4kNlNAxQa" opacity="1" fill-opacity="0" stroke="#000000" stroke-width="1" stroke-opacity="0"></use></g></g><g><use xlink:href="#bRJXCigps" opacity="1" fill="#000000" fill-opacity="0"></use><g><use xlink:href="#bRJXCigps" opacity="1" fill-opacity="0" stroke="#000000" stroke-width="10.07" stroke-opacity="0"></use></g></g><g><use xlink:href="#bd7yiVxhi" opacity="1" fill="#ffffff" fill-opacity="1"></use><g><use xlink:href="#bd7yiVxhi" opacity="1" fill-opacity="0" stroke="#000000" stroke-width="1" stroke-opacity="0"></use></g></g><g><use xlink:href="#aMQTN26bU" opacity="1" fill="#000000" fill-opacity="0"></use><g><use xlink:href="#aMQTN26bU" opacity="1" fill-opacity="0" stroke="#000000" stroke-width="1.74" stroke-opacity="0"></use></g></g><g><use xlink:href="#b19ABbXEZl" opacity="1" fill="#ffffff" fill-opacity="1"></use><g><use xlink:href="#b19ABbXEZl" opacity="1" fill-opacity="0" stroke="#000000" stroke-width="1" stroke-opacity="0"></use></g></g><g><use xlink:href="#a3Wrh3HI7" opacity="1" fill="#000000" fill-opacity="0"></use><g><use xlink:href="#a3Wrh3HI7" opacity="1" fill-opacity="0" stroke="#000000" stroke-width="2.16" stroke-opacity="0"></use></g></g></g></g></svg>