<?xml version="1.0" encoding="UTF-8" standalone="no"?>
<!DOCTYPE svg PUBLIC "-//W3C//DTD SVG 1.1//EN" "http://www.w3.org/Graphics/SVG/1.1/DTD/svg11.dtd">
<svg version="1.1" xmlns="http://www.w3.org/2000/svg" xmlns:xlink="http://www.w3.org/1999/xlink" preserveAspectRatio="xMidYMid meet" viewBox="0 0 300 300" width="300" height="300"><defs><path d="M102.11 5.17C102.13 5.19 102.31 5.32 102.33 5.34C102.24 14.43 102.43 23.53 102.24 32.6C93 32.64 83.76 32.64 74.52 32.61C74.37 24.02 74.5 15.41 74.46 6.82C74.58 6.28 74.19 5.57 74.63 5.16C83.79 5.18 92.95 5.17 102.11 5.17Z" id="bbJJoShmv"></path><path d="M34.28 9.45C34.4 9.5 34.65 9.59 34.77 9.64C34.74 17.22 34.73 24.8 34.78 32.39C34.66 32.45 34.41 32.57 34.28 32.64C26.6 32.59 18.92 32.68 11.24 32.59C11.25 24.89 11.23 17.18 11.25 9.48C18.93 9.42 26.6 9.49 34.28 9.45Z" id="dKWE5XKQr"></path><path d="M148.75 38.2L149.39 38.2L150.03 38.2L150.66 38.2L151.3 38.2L151.94 38.2L152.57 38.2L153.21 38.2L153.85 38.2L154.48 38.2L155.12 38.2L155.76 38.2L156.39 38.2L157.03 38.2L157.67 38.2L158.3 38.2L158.94 38.2L159.58 38.2L160.21 38.2L160.85 38.2L161.48 38.2L162.12 38.2L162.76 38.2L163.69 38.22L164.62 38.24L165.55 38.26L166.48 38.29L167.42 38.32L168.35 38.36L169.28 38.41L170.21 38.46L171.14 38.51L172.07 38.57L173 38.63L173.93 38.7L174.86 38.78L175.79 38.86L176.72 38.94L177.64 39.03L178.57 39.12L179.5 39.22L180.42 39.33L181.35 39.44L182.28 39.56L183.2 39.68L184.12 39.81L185.05 39.94L185.97 40.08L186.89 40.22L187.81 40.37L188.73 40.53L189.64 40.69L190.56 40.85L191.48 41.03L192.39 41.2L193.31 41.39L194.22 41.58L195.13 41.77L196.04 41.97L196.95 42.18L197.85 42.39L198.76 42.61L199.67 42.84L200.68 43.1L201.69 43.37L202.7 43.64L203.71 43.93L204.71 44.22L205.72 44.52L206.72 44.83L207.72 45.14L208.71 45.47L209.71 45.8L210.7 46.14L211.69 46.48L212.67 46.84L213.65 47.2L214.63 47.57L215.61 47.95L216.58 48.34L217.55 48.73L218.52 49.13L219.48 49.54L220.44 49.96L221.39 50.39L222.34 50.82L223.29 51.27L224.23 51.72L225.17 52.18L226.11 52.65L227.04 53.12L227.96 53.61L228.88 54.1L229.8 54.6L230.71 55.11L231.62 55.62L232.52 56.15L233.42 56.68L234.31 57.23L235.2 57.78L236.08 58.33L236.96 58.9L237.83 59.48L239.21 60.4L240.58 61.34L241.93 62.3L243.26 63.28L244.58 64.28L245.88 65.3L247.16 66.34L248.43 67.4L249.69 68.47L250.92 69.57L252.14 70.68L253.35 71.81L254.53 72.96L255.7 74.13L256.85 75.31L257.99 76.51L259.1 77.72L260.2 78.95L261.28 80.19L262.35 81.46L263.39 82.73L264.42 84.02L265.43 85.33L266.41 86.64L267.38 87.98L268.34 89.32L269.27 90.68L270.18 92.05L271.07 93.44L271.94 94.83L272.8 96.24L273.63 97.66L274.44 99.09L275.24 100.53L276.01 101.98L276.76 103.44L277.49 104.92L278.2 106.4L278.89 107.89L279.56 109.39L280.14 110.74L280.71 112.09L281.26 113.45L281.8 114.81L282.32 116.18L282.83 117.56L283.32 118.94L283.79 120.32L284.25 121.71L284.69 123.11L285.12 124.51L285.53 125.92L285.92 127.33L286.3 128.74L286.66 130.16L287.01 131.58L287.34 133.01L287.66 134.44L287.96 135.87L288.25 137.3L288.52 138.74L288.77 140.18L289.01 141.63L289.23 143.07L289.44 144.52L289.63 145.97L289.81 147.43L289.97 148.88L290.12 150.34L290.25 151.79L290.37 153.25L290.47 154.71L290.56 156.17L290.63 157.63L290.68 159.1L290.72 160.56L290.75 162.02L290.76 163.48L290.76 164.94L290.74 166.41L290.72 167.62L290.69 168.84L290.65 170.05L290.6 171.26L290.54 172.48L290.48 173.69L290.4 174.91L290.32 176.12L290.22 177.33L290.12 178.54L290 179.75L289.88 180.96L289.75 182.17L289.61 183.38L289.46 184.59L289.29 185.79L289.12 187L288.94 188.2L288.75 189.4L288.55 190.6L288.34 191.8L288.12 192.99L287.9 194.19L287.66 195.38L287.41 196.57L287.15 197.76L286.88 198.95L286.61 200.13L286.32 201.31L286.02 202.49L285.71 203.67L285.4 204.84L285.07 206.01L284.73 207.18L284.39 208.35L284.03 209.51L283.66 210.67L283.28 211.83L282.9 212.99L282.5 214.14L282.17 215.07L281.83 216L281.49 216.92L281.14 217.85L280.78 218.77L280.42 219.69L280.05 220.6L279.67 221.52L279.28 222.43L278.89 223.34L278.49 224.24L278.08 225.14L277.67 226.04L277.25 226.94L276.83 227.83L276.39 228.72L275.95 229.6L275.5 230.49L275.05 231.36L274.59 232.24L274.12 233.11L273.64 233.98L273.16 234.84L272.67 235.7L272.18 236.56L271.67 237.41L271.16 238.26L270.64 239.11L270.12 239.95L269.59 240.78L269.05 241.61L268.5 242.44L267.95 243.26L267.39 244.08L266.82 244.89L266.25 245.7L265.67 246.5L265.08 247.3L264.49 248.1L263.88 248.89L263.3 249.64L262.72 250.38L262.12 251.13L261.52 251.86L260.91 252.6L260.3 253.32L259.68 254.04L259.05 254.76L258.42 255.47L257.78 256.18L257.14 256.88L256.49 257.57L255.83 258.26L255.17 258.94L254.5 259.62L253.83 260.3L253.15 260.96L252.46 261.62L251.77 262.28L251.08 262.93L250.37 263.57L249.67 264.21L248.95 264.84L248.23 265.47L247.51 266.08L246.78 266.7L246.04 267.3L245.3 267.91L244.56 268.5L243.81 269.09L243.05 269.67L242.29 270.24L241.52 270.81L240.75 271.37L239.97 271.93L239.19 272.48L238.41 273.02L237.62 273.55L236.82 274.08L236.02 274.6L235.04 275.23L234.05 275.85L233.05 276.46L232.05 277.06L231.04 277.65L230.03 278.22L229.01 278.79L227.98 279.35L226.95 279.89L225.92 280.43L224.87 280.95L223.83 281.47L222.77 281.97L221.72 282.47L220.65 282.95L219.59 283.42L218.51 283.89L217.44 284.34L216.35 284.78L215.27 285.21L214.18 285.64L213.08 286.05L211.99 286.45L210.89 286.84L209.78 287.22L208.67 287.6L207.56 287.96L206.44 288.31L205.32 288.65L204.2 288.98L203.08 289.31L201.95 289.62L200.82 289.92L199.68 290.21L198.55 290.5L197.41 290.77L196.27 291.03L195.13 291.29L193.98 291.53L192.84 291.76L192.21 291.89L191.58 292.01L190.94 292.13L190.31 292.25L189.68 292.36L189.04 292.48L188.41 292.58L187.77 292.69L187.14 292.79L186.5 292.89L185.86 292.99L185.23 293.08L184.59 293.18L183.95 293.27L183.31 293.35L182.68 293.44L182.04 293.52L181.4 293.6L180.76 293.67L180.12 293.75L179.48 293.82L178.84 293.89L178.2 293.96L177.56 294.02L176.92 294.08L176.28 294.14L175.63 294.2L174.99 294.25L174.35 294.31L173.71 294.36L173.07 294.4L172.42 294.45L171.78 294.49L171.14 294.53L170.49 294.57L169.85 294.61L169.21 294.64L168.57 294.68L167.92 294.71L167.28 294.74L166.58 294.75L165.89 294.76L165.19 294.77L164.49 294.78L163.8 294.79L163.1 294.8L162.4 294.81L161.71 294.82L161.01 294.82L160.32 294.83L159.62 294.83L158.92 294.83L158.23 294.83L157.53 294.84L156.83 294.84L156.14 294.84L155.44 294.84L154.74 294.84L154.05 294.84L153.35 294.84L152.65 294.83L151.96 294.83L151.26 294.83L150.56 294.83L149.87 294.83L149.17 294.83L148.47 294.82L147.78 294.82L147.08 294.82L146.38 294.82L145.69 294.82L144.99 294.82L144.29 294.82L143.6 294.82L142.9 294.82L142.2 294.82L141.51 294.82L140.81 294.82L140.11 294.82L139.42 294.83L137.99 294.83L136.56 294.83L135.13 294.83L133.7 294.83L132.28 294.83L130.85 294.83L129.42 294.83L127.99 294.83L126.56 294.83L125.13 294.83L123.71 294.83L122.28 294.83L120.85 294.83L119.42 294.83L117.99 294.83L116.56 294.83L113.71 294.83L112.28 294.83L110.85 294.83L109.42 294.83L108 294.83L106.57 294.83L105.14 294.83L103.71 294.83L102.28 294.83L100.85 294.83L99.43 294.83L98 294.83L96.57 294.83L95.14 294.83L93.71 294.83L92.29 294.83L90.86 294.83L89.43 294.83L88 294.83L86.57 294.83L85.14 294.83L83.72 294.83L82.29 294.83L81.66 294.81L81.03 294.77L80.4 294.72L79.78 294.64L79.16 294.54L78.55 294.42L77.94 294.29L77.33 294.14L76.73 293.96L76.13 293.77L75.54 293.57L74.96 293.34L74.38 293.1L73.81 292.84L73.25 292.57L72.7 292.28L72.15 291.97L71.62 291.65L71.09 291.32L70.57 290.97L70.07 290.6L69.57 290.22L69.09 289.83L68.61 289.42L68.15 289L67.71 288.57L67.27 288.13L66.85 287.67L66.44 287.2L66.05 286.72L65.67 286.23L65.3 285.73L64.96 285.21L64.62 284.69L64.31 284.16L64.01 283.61L63.72 283.06L63.46 282.5L63.21 281.93L62.99 281.35L62.92 281.2L62.86 281.04L62.8 280.88L62.74 280.72L62.68 280.57L62.62 280.41L62.57 280.25L62.52 280.09L62.47 279.93L62.42 279.77L62.37 279.61L62.32 279.44L62.28 279.28L62.23 279.12L62.19 278.96L62.15 278.79L62.11 278.63L62.07 278.46L62.04 278.3L62 278.14L61.97 277.97L61.94 277.81L61.91 277.64L61.88 277.47L61.85 277.31L61.82 277.14L61.8 276.98L61.77 276.81L61.75 276.64L61.73 276.48L61.71 276.31L61.69 276.14L61.67 275.98L61.65 275.81L61.63 275.64L61.62 275.47L61.6 275.31L61.59 275.14L61.58 274.97L61.57 274.8L61.57 271.45L61.57 268.1L61.57 264.74L61.57 261.39L61.56 258.04L61.56 254.69L61.56 251.33L61.56 247.98L61.56 244.63L61.56 241.27L61.57 237.92L61.57 234.57L61.57 231.21L61.57 227.86L61.57 224.51L61.57 217.8L61.57 214.45L61.57 211.1L61.57 207.74L61.57 204.39L61.57 201.04L61.57 197.69L61.57 194.33L61.57 190.98L61.57 187.63L61.57 184.27L61.57 180.92L61.57 177.57L61.57 174.22L61.57 170.86L61.57 167.51L61.57 164.16L61.56 160.8L61.56 157.45L61.56 154.1L61.56 150.75L61.55 147.39L61.55 144.04L61.55 140.69L61.57 140.69L61.59 140.7L61.62 140.71L61.65 140.72L61.68 140.73L61.69 140.73L61.72 140.74L61.75 140.75L61.8 140.77L61.83 140.78L61.88 140.8L61.96 140.82L62.06 140.86L62.12 140.88L63.06 140.88L64.01 140.88L64.96 140.88L65.9 140.88L66.85 140.88L67.8 140.88L68.74 140.88L69.69 140.88L70.64 140.88L71.58 140.88L72.53 140.88L73.47 140.88L74.42 140.88L75.37 140.87L76.31 140.87L77.26 140.87L78.21 140.87L79.15 140.87L80.1 140.87L81.05 140.87L81.99 140.86L82.94 140.86L83.89 140.86L84.83 140.86L85.78 140.86L86.73 140.86L87.67 140.86L88.62 140.86L89.57 140.87L90.51 140.87L91.46 140.87L92.41 140.87L93.35 140.88L94.3 140.88L95.25 140.89L96.19 140.89L97.14 140.9L98.08 140.91L99.03 140.92L99.98 140.93L99.98 142.69L99.97 144.45L99.97 146.21L99.97 147.97L99.97 149.73L99.97 151.49L99.97 153.25L99.97 155.01L99.97 156.77L99.97 158.53L99.97 160.29L99.97 162.05L99.97 163.81L99.96 165.57L99.96 167.33L99.96 169.09L99.96 170.85L99.96 172.61L99.97 174.37L99.97 176.13L99.97 177.89L99.97 179.65L99.97 181.41L99.97 183.17L99.97 184.93L99.97 186.69L99.97 188.45L99.97 190.21L99.97 191.97L99.97 193.73L99.97 195.49L99.97 197.25L99.97 199.01L99.97 200.77L99.97 202.53L99.97 204.29L99.97 206.05L99.97 207.81L99.97 209.57L99.97 211.33L99.99 211.77L100.03 212.2L100.08 212.63L100.14 213.06L100.21 213.49L100.29 213.91L100.38 214.33L100.48 214.76L100.58 215.18L100.7 215.59L100.83 216.01L100.97 216.42L101.11 216.83L101.27 217.23L101.43 217.63L101.6 218.03L101.78 218.43L101.97 218.82L102.17 219.2L102.38 219.59L102.59 219.96L102.82 220.34L103.05 220.7L103.29 221.07L103.53 221.43L103.79 221.78L104.05 222.12L104.32 222.47L104.6 222.8L104.89 223.13L105.18 223.45L105.48 223.77L105.79 224.08L106.1 224.38L106.42 224.67L106.75 224.96L107.08 225.24L107.43 225.52L107.77 225.78L108.13 226.04L108.39 226.23L108.65 226.41L108.92 226.58L109.19 226.76L109.47 226.93L109.75 227.09L110.03 227.25L110.31 227.41L110.59 227.56L110.88 227.7L111.17 227.84L111.46 227.98L111.76 228.11L112.05 228.24L112.35 228.36L112.65 228.48L112.95 228.59L113.26 228.7L113.56 228.8L113.87 228.9L114.18 228.99L114.49 229.08L114.8 229.16L115.12 229.24L115.43 229.32L115.75 229.38L116.06 229.45L116.38 229.51L116.7 229.56L117.02 229.61L117.34 229.65L117.66 229.69L117.98 229.72L118.3 229.74L118.63 229.76L118.95 229.78L119.27 229.79L119.6 229.8L119.92 229.8L120.24 229.79L121.58 229.79L122.91 229.79L124.24 229.79L125.57 229.79L126.91 229.79L128.24 229.79L129.57 229.79L130.91 229.79L132.24 229.79L133.57 229.79L134.9 229.79L136.24 229.79L137.57 229.79L138.9 229.79L140.23 229.79L141.57 229.79L142.9 229.79L144.23 229.79L145.56 229.79L146.9 229.79L148.23 229.79L149.56 229.79L150.9 229.79L152.23 229.79L153.56 229.79L154.89 229.79L156.23 229.79L157.56 229.79L158.89 229.79L160.22 229.79L161.56 229.79L162.89 229.79L164.22 229.79L165.56 229.79L166.89 229.79L168.22 229.79L169.55 229.79L170.89 229.79L172.22 229.79L173.55 229.79L173.94 229.78L174.32 229.76L174.7 229.73L175.08 229.69L175.47 229.64L175.85 229.59L176.23 229.53L176.6 229.47L176.98 229.39L177.36 229.31L177.73 229.22L178.1 229.13L178.47 229.03L178.84 228.92L179.2 228.8L179.57 228.68L179.93 228.55L180.29 228.41L180.64 228.27L180.99 228.12L181.34 227.96L181.69 227.8L182.03 227.63L182.37 227.45L182.71 227.27L183.04 227.08L183.37 226.88L183.69 226.68L184.02 226.47L184.33 226.26L184.64 226.04L184.95 225.81L185.26 225.58L185.55 225.35L185.85 225.1L186.14 224.85L186.42 224.6L186.7 224.34L186.97 224.07L187.24 223.8L187.51 223.52L187.77 223.24L188.03 222.96L188.28 222.66L188.53 222.37L188.77 222.07L189 221.76L189.22 221.45L189.44 221.14L189.66 220.82L189.86 220.49L190.06 220.17L190.25 219.84L190.44 219.5L190.62 219.16L190.79 218.82L190.96 218.48L191.12 218.13L191.27 217.78L191.42 217.43L191.56 217.07L191.69 216.71L191.82 216.35L191.94 215.99L192.05 215.62L192.15 215.25L192.25 214.88L192.34 214.51L192.42 214.14L192.5 213.76L192.57 213.39L192.63 213.01L192.69 212.63L192.74 212.25L192.78 211.87L192.81 211.49L192.83 211.11L192.85 210.73L192.86 210.35L192.87 209.96L192.87 207.33L192.87 204.7L192.87 202.06L192.87 199.43L192.87 196.8L192.87 194.16L192.87 191.53L192.87 188.89L192.87 186.26L192.87 183.63L192.87 180.99L192.87 178.36L192.87 175.73L192.87 173.09L192.87 170.46L192.87 167.83L192.87 165.19L192.87 162.56L192.87 159.92L192.87 157.29L192.87 154.66L192.87 152.02L192.87 146.76L192.87 144.12L192.87 141.49L192.87 138.85L192.87 136.22L192.87 133.59L192.87 130.95L192.87 128.32L192.87 125.69L192.87 123.05L192.87 120.42L192.87 117.79L192.87 115.15L192.87 112.52L192.87 109.88L192.87 107.25L192.87 104.62L192.87 104.23L192.86 103.85L192.85 103.47L192.82 103.08L192.79 102.7L192.76 102.32L192.71 101.94L192.66 101.56L192.6 101.18L192.53 100.8L192.46 100.42L192.38 100.05L192.29 99.68L192.2 99.3L192.09 98.93L191.99 98.56L191.87 98.2L191.75 97.84L191.62 97.47L191.48 97.11L191.34 96.76L191.19 96.41L191.03 96.06L190.86 95.71L190.69 95.36L190.52 95.02L190.33 94.69L190.14 94.35L189.94 94.02L189.74 93.7L189.53 93.38L189.31 93.06L189.08 92.75L188.85 92.44L188.61 92.14L188.37 91.84L188.12 91.54L187.86 91.25L187.6 90.97L187.33 90.69L187.04 90.4L186.75 90.11L186.45 89.83L186.15 89.55L185.84 89.28L185.52 89.02L185.2 88.76L184.87 88.51L184.54 88.27L184.2 88.04L183.85 87.81L183.51 87.59L183.15 87.37L182.8 87.17L182.43 86.97L182.07 86.78L181.7 86.59L181.32 86.41L180.95 86.25L180.57 86.08L180.18 85.93L179.8 85.79L179.41 85.65L179.01 85.52L178.62 85.4L178.22 85.29L177.82 85.18L177.42 85.09L177.01 85L176.61 84.92L176.2 84.85L175.79 84.79L175.38 84.73L174.97 84.69L174.56 84.66L174.14 84.63L173.73 84.61L173.31 84.61L172.9 84.61L172.49 84.62L171.61 84.62L170.73 84.62L169.84 84.62L168.96 84.62L168.08 84.62L167.2 84.62L166.32 84.62L165.44 84.62L164.56 84.62L163.68 84.62L162.8 84.62L161.92 84.62L161.04 84.62L160.16 84.62L159.28 84.62L158.4 84.62L157.52 84.62L156.64 84.62L155.76 84.62L154.88 84.62L154 84.62L153.12 84.62L152.24 84.62L151.36 84.62L150.48 84.62L149.6 84.62L148.72 84.62L147.84 84.62L146.96 84.62L146.08 84.62L145.2 84.62L144.32 84.62L143.44 84.62L142.56 84.62L141.68 84.62L140.8 84.62L139.92 84.62L139.04 84.63L138.16 84.63L137.28 84.63L137.27 83.47L137.27 82.31L137.27 81.15L137.26 79.99L137.26 78.83L137.26 77.67L137.25 76.51L137.25 75.35L137.25 74.19L137.24 73.03L137.24 71.87L137.24 70.71L137.23 69.54L137.23 68.38L137.23 67.22L137.23 66.06L137.23 64.9L137.23 63.74L137.22 62.58L137.22 61.42L137.22 60.26L137.22 59.1L137.22 57.94L137.22 56.78L137.23 55.62L137.23 54.46L137.23 53.3L137.23 52.14L137.23 50.98L137.24 49.82L137.24 48.66L137.24 47.5L137.25 46.34L137.25 45.18L137.26 44.02L137.27 42.86L137.27 41.7L137.28 40.54L137.29 39.38L137.3 38.22L137.93 38.21L138.57 38.21L139.21 38.21L139.84 38.21L140.48 38.21L141.11 38.21L141.75 38.2L142.39 38.2L143.02 38.2L143.66 38.2L144.3 38.2L144.93 38.2L145.57 38.2L146.21 38.2L146.84 38.2L147.48 38.2L148.12 38.2L148.75 38.2ZM202.34 102.29L202.03 102.29L201.73 102.29L201.42 102.29L201.12 102.29L200.82 102.29L200.51 102.29L200.21 102.3L199.91 102.3L199.6 102.3L199.3 102.3L198.99 102.3L198.69 102.3L198.71 102.42L198.73 102.53L198.75 102.65L198.76 102.77L198.78 102.89L198.79 103L198.8 103.12L198.81 103.24L198.82 103.36L198.83 103.48L198.84 103.59L198.85 103.71L198.85 103.83L198.86 103.95L198.87 104.06L198.87 104.18L198.87 104.3L198.88 104.42L198.88 104.54L198.88 104.65L198.88 104.77L198.88 104.89L198.88 105.01L198.88 105.13L198.88 105.25L198.88 105.36L198.88 105.48L198.88 105.6L198.88 105.72L198.88 105.84L198.88 105.96L198.88 106.07L198.88 106.19L198.88 106.31L198.88 106.43L198.88 106.55L198.88 106.66L198.88 106.78L198.88 106.9L198.88 107.02L198.88 107.46L198.88 107.9L198.88 108.33L198.88 108.77L198.88 109.21L198.88 109.65L198.88 110.09L198.88 110.52L198.88 110.96L198.88 111.4L198.88 111.84L198.88 112.28L198.88 112.72L198.88 113.15L198.88 113.59L198.88 114.03L198.88 114.91L198.88 115.34L198.88 115.78L198.88 116.22L198.88 116.66L198.88 117.1L198.88 117.54L198.88 117.97L198.88 118.41L198.88 118.85L198.88 119.29L198.88 119.73L198.88 120.16L198.88 120.6L198.88 121.04L198.88 121.48L198.88 121.92L198.88 122.36L198.88 122.79L198.88 123.23L198.88 123.67L198.88 124.11L198.88 124.55L198.87 124.73L198.86 124.9L198.84 125.08L198.83 125.26L198.82 125.44L198.81 125.62L198.8 125.8L198.79 125.98L198.79 126.16L198.78 126.34L198.77 126.52L198.77 126.7L198.76 126.88L198.76 127.06L198.75 127.24L198.75 127.42L198.75 127.6L198.75 127.78L198.75 127.96L198.75 128.14L198.75 128.32L198.75 128.5L198.75 128.68L198.75 128.86L198.75 129.04L198.76 129.22L198.76 129.4L198.77 129.57L198.77 129.75L198.78 129.93L198.79 130.11L198.79 130.29L198.8 130.47L198.81 130.65L198.82 130.83L198.83 131.01L198.84 131.19L198.85 131.37L198.87 131.55L198.88 131.73L198.88 132.08L198.87 132.43L198.87 132.78L198.87 133.13L198.87 133.48L198.87 133.83L198.87 134.18L198.87 134.54L198.87 134.89L198.88 135.24L198.88 135.59L198.88 135.94L198.88 136.29L198.88 136.64L198.88 137L198.88 137.35L198.88 137.7L198.89 138.05L198.89 138.4L198.89 138.75L198.89 139.1L198.89 139.45L198.88 139.81L198.88 140.16L198.88 140.51L198.88 140.86L198.88 141.21L198.87 141.56L198.87 141.91L198.86 142.26L198.86 142.62L198.85 142.97L198.84 143.32L198.83 143.67L198.82 144.02L198.81 144.37L198.8 144.72L198.78 145.07L198.77 145.42L198.75 145.77L198.76 146.18L198.77 146.59L198.78 146.99L198.79 147.4L198.8 147.8L198.81 148.21L198.82 148.62L198.82 149.02L198.83 149.43L198.84 149.84L198.84 150.24L198.85 150.65L198.85 151.05L198.86 151.46L198.86 151.87L198.86 152.27L198.87 152.68L198.87 153.09L198.87 153.49L198.88 153.9L198.88 154.31L198.88 154.71L198.88 155.12L198.88 155.52L198.88 155.93L198.88 156.34L198.88 156.74L198.89 157.15L198.89 157.56L198.89 157.96L198.88 158.37L198.88 158.78L198.88 159.18L198.88 159.59L198.88 160L198.88 160.4L198.88 160.81L198.88 161.22L198.88 161.62L198.88 162.03L198.79 162.27L198.8 162.44L198.8 162.6L198.8 162.76L198.8 162.92L198.8 163.09L198.79 163.25L198.79 163.41L198.79 163.57L198.78 163.74L198.78 163.9L198.77 164.06L198.77 164.23L198.76 164.39L198.76 164.55L198.75 164.72L198.75 164.88L198.74 165.04L198.74 165.21L198.73 165.37L198.73 165.53L198.73 165.69L198.72 165.86L198.72 166.02L198.72 166.18L198.72 166.35L198.72 166.51L198.72 166.67L198.72 166.83L198.73 166.99L198.73 167.16L198.74 167.32L198.75 167.48L198.76 167.64L198.77 167.8L198.78 167.96L198.8 168.12L198.82 168.28L198.84 168.44L198.86 168.6L198.88 168.76L198.88 169.11L198.88 169.45L198.88 169.8L198.87 170.14L198.87 170.49L198.87 170.83L198.87 171.17L198.87 171.52L198.87 171.86L198.87 172.21L198.88 172.55L198.88 172.9L198.88 173.24L198.88 173.59L198.88 173.93L198.88 174.28L198.88 174.62L198.88 174.96L198.88 175.31L198.88 175.65L198.88 176L198.88 176.34L198.88 176.69L198.88 177.03L198.88 177.38L198.88 177.72L198.87 178.06L198.87 178.41L198.87 178.75L198.86 179.1L198.85 179.44L198.85 179.79L198.84 180.13L198.83 180.47L198.82 180.82L198.81 181.16L198.8 181.5L198.78 181.85L198.77 182.19L198.75 182.54L198.77 183.09L198.78 183.63L198.8 184.18L198.81 184.73L198.82 185.28L198.83 185.83L198.84 186.38L198.85 186.93L198.85 187.48L198.86 188.03L198.87 188.58L198.87 189.13L198.88 189.68L198.88 190.23L198.88 190.78L198.88 191.33L198.88 191.87L198.88 192.42L198.88 192.97L198.88 193.52L198.88 194.07L198.88 194.62L198.87 195.17L198.87 195.72L198.86 196.27L198.86 196.82L198.85 197.37L198.84 197.92L198.84 198.47L198.83 199.02L198.82 199.57L198.81 200.12L198.8 200.67L198.79 201.22L198.78 201.77L198.77 202.31L198.76 202.86L198.74 203.41L198.73 203.96L198.72 204.51L198.66 204.79L198.89 204.92L198.89 205.23L198.89 205.54L198.89 205.86L198.89 206.17L198.89 206.48L198.89 206.8L198.89 207.11L198.89 207.43L198.89 207.74L198.89 208.05L198.89 208.37L198.89 208.68L198.89 209L198.89 209.31L198.89 209.63L198.88 209.94L198.87 210.26L198.87 210.57L198.86 210.88L198.84 211.2L198.83 211.51L198.81 211.82L198.79 212.14L198.77 212.45L198.74 212.76L198.71 213.07L198.68 213.38L198.64 213.69L198.6 214.01L198.56 214.32L198.51 214.62L198.46 214.93L198.4 215.24L198.34 215.55L198.28 215.86L198.21 216.16L198.13 216.47L198.05 216.77L197.96 217.08L197.87 217.38L197.66 217.55L197.61 217.7L197.57 217.85L197.52 218.01L197.48 218.15L197.43 218.3L197.37 218.45L197.32 218.6L197.27 218.75L197.21 218.89L197.16 219.04L197.1 219.19L197.04 219.33L196.98 219.48L196.92 219.62L196.86 219.76L196.79 219.91L196.73 220.05L196.66 220.19L196.6 220.34L196.53 220.48L196.47 220.62L196.4 220.76L196.33 220.9L196.26 221.05L196.2 221.19L196.13 221.33L196.06 221.47L195.99 221.61L195.93 221.75L195.86 221.89L195.79 222.03L195.72 222.18L195.66 222.32L195.59 222.46L195.52 222.6L195.46 222.74L195.39 222.88L195.33 223.03L195.26 223.17L195.2 223.31L194.95 223.72L194.69 224.13L194.43 224.53L194.15 224.93L193.87 225.32L193.58 225.7L193.29 226.08L192.98 226.45L192.67 226.82L192.35 227.18L192.03 227.54L191.69 227.88L191.36 228.23L191.01 228.56L190.66 228.89L190.3 229.22L189.93 229.53L189.56 229.84L189.19 230.14L188.81 230.44L188.42 230.73L188.03 231.01L187.63 231.29L187.22 231.55L186.82 231.81L186.4 232.07L185.99 232.31L185.56 232.55L185.14 232.78L184.71 233L184.27 233.21L183.83 233.42L183.39 233.62L182.94 233.8L182.49 233.99L182.04 234.16L181.58 234.32L181.12 234.48L180.66 234.62L180.2 234.76L179.92 234.84L179.64 234.92L179.35 235L179.07 235.07L178.79 235.13L178.5 235.2L178.22 235.25L177.93 235.31L177.65 235.36L177.36 235.41L177.08 235.45L176.79 235.49L176.5 235.53L176.21 235.56L175.92 235.6L175.63 235.62L175.35 235.65L175.06 235.67L174.77 235.69L174.48 235.71L174.18 235.73L173.89 235.74L173.6 235.76L173.31 235.77L173.02 235.78L172.73 235.78L172.44 235.79L172.15 235.8L171.85 235.8L171.56 235.8L171.27 235.8L170.98 235.8L170.69 235.8L170.4 235.8L170.11 235.8L169.82 235.8L169.52 235.8L169.23 235.8L168.94 235.8L168.65 235.8L167.91 235.8L167.16 235.8L166.41 235.8L165.67 235.8L164.92 235.8L164.17 235.8L163.43 235.8L162.68 235.8L161.93 235.8L161.18 235.8L160.44 235.8L159.69 235.8L158.94 235.8L158.2 235.8L157.45 235.8L155.95 235.8L155.21 235.8L154.46 235.8L153.71 235.8L152.97 235.8L152.22 235.8L151.47 235.8L150.73 235.8L149.98 235.8L149.23 235.8L148.48 235.8L147.74 235.8L146.99 235.8L146.24 235.8L145.5 235.8L144.75 235.8L144 235.8L143.25 235.8L142.51 235.8L141.76 235.8L141.01 235.8L140.27 235.79L139.52 235.79L138.77 235.79L138.61 236.02L138.85 236.51L139.1 237L139.36 237.48L139.64 237.95L139.94 238.42L140.24 238.87L140.56 239.32L140.89 239.75L141.24 240.18L141.59 240.6L141.96 241.01L142.34 241.4L142.73 241.79L143.13 242.17L143.54 242.53L143.96 242.89L144.39 243.23L144.83 243.56L145.27 243.88L145.73 244.19L146.19 244.49L146.67 244.77L147.15 245.04L147.63 245.3L148.13 245.54L148.63 245.78L149.13 245.99L149.64 246.2L150.16 246.39L150.69 246.56L151.21 246.72L151.75 246.87L152.28 247L152.82 247.11L153.37 247.21L153.91 247.3L154.46 247.36L155.02 247.42L155.57 247.45L156.13 247.47L157.49 247.47L158.84 247.47L160.2 247.47L161.56 247.47L162.92 247.47L164.28 247.47L165.64 247.47L167 247.47L168.36 247.47L169.72 247.47L171.07 247.46L172.43 247.46L173.79 247.46L175.15 247.46L176.51 247.46L177.87 247.46L179.23 247.46L180.59 247.46L181.95 247.46L183.3 247.46L184.66 247.46L186.02 247.46L187.38 247.46L188.74 247.46L190.1 247.46L191.46 247.46L192.82 247.46L194.18 247.46L195.54 247.46L198.25 247.46L199.61 247.46L200.97 247.46L202.33 247.46L203.69 247.46L205.05 247.46L206.41 247.47L207.77 247.47L209.12 247.47L210.48 247.47L210.86 247.45L211.23 247.42L211.6 247.39L211.97 247.36L212.34 247.31L212.71 247.26L213.08 247.2L213.45 247.14L213.81 247.07L214.18 246.99L214.54 246.9L214.9 246.81L215.26 246.71L215.62 246.61L215.98 246.5L216.33 246.38L216.68 246.26L217.03 246.13L217.38 245.99L217.72 245.85L218.06 245.7L218.4 245.54L218.74 245.38L219.07 245.21L219.4 245.04L219.72 244.86L220.04 244.67L220.36 244.48L220.68 244.28L220.99 244.07L221.29 243.86L221.59 243.65L221.89 243.43L222.18 243.2L222.47 242.97L222.76 242.73L223.03 242.48L223.31 242.23L223.58 241.97L223.84 241.71L224.11 241.45L224.37 241.19L224.62 240.92L224.87 240.64L225.12 240.36L225.35 240.07L225.59 239.78L225.81 239.49L226.03 239.19L226.25 238.89L226.46 238.58L226.66 238.27L226.85 237.95L227.04 237.63L227.23 237.31L227.4 236.99L227.58 236.66L227.74 236.33L227.9 235.99L228.05 235.65L228.2 235.31L228.34 234.97L228.47 234.62L228.6 234.27L228.71 233.92L228.83 233.57L228.93 233.22L229.03 232.86L229.13 232.5L229.21 232.14L229.29 231.78L229.37 231.42L229.43 231.05L229.49 230.69L229.54 230.32L229.59 229.95L229.63 229.59L229.66 229.22L229.68 228.85L229.7 228.48L229.7 225.81L229.7 223.14L229.7 220.48L229.7 217.81L229.7 215.14L229.7 212.47L229.7 209.81L229.7 207.14L229.7 204.47L229.7 201.8L229.7 199.14L229.7 196.47L229.7 193.8L229.7 191.13L229.7 188.46L229.7 185.8L229.7 183.13L229.7 180.46L229.7 177.79L229.7 172.46L229.7 169.79L229.7 167.12L229.7 164.46L229.7 161.79L229.7 159.12L229.7 156.45L229.7 153.78L229.7 151.12L229.7 148.45L229.7 145.78L229.7 143.11L229.7 140.44L229.7 137.78L229.7 135.11L229.7 132.44L229.7 129.77L229.7 127.11L229.7 124.44L229.7 121.77L229.7 121.42L229.69 121.07L229.67 120.73L229.65 120.38L229.62 120.03L229.58 119.68L229.54 119.34L229.49 118.99L229.43 118.65L229.37 118.31L229.3 117.97L229.23 117.63L229.15 117.29L229.06 116.95L228.97 116.61L228.87 116.28L228.77 115.95L228.66 115.62L228.54 115.29L228.42 114.96L228.29 114.64L228.16 114.32L228.02 114L227.87 113.68L227.72 113.36L227.57 113.05L227.4 112.74L227.24 112.44L227.06 112.13L226.89 111.83L226.7 111.53L226.51 111.24L226.32 110.95L226.12 110.66L225.91 110.38L225.7 110.1L225.49 109.82L225.27 109.55L225.04 109.28L224.81 109.02L224.55 108.72L224.28 108.43L224 108.15L223.72 107.87L223.43 107.59L223.14 107.33L222.84 107.07L222.54 106.81L222.23 106.56L221.91 106.32L221.6 106.08L221.27 105.85L220.94 105.63L220.61 105.41L220.27 105.2L219.93 105L219.58 104.8L219.23 104.61L218.88 104.43L218.52 104.25L218.16 104.08L217.8 103.92L217.43 103.77L217.06 103.62L216.69 103.48L216.31 103.34L215.93 103.22L215.55 103.1L215.17 102.99L214.79 102.89L214.4 102.79L214.01 102.7L213.62 102.62L213.23 102.55L212.83 102.49L212.44 102.43L212.04 102.39L211.64 102.35L211.24 102.32L210.85 102.29L210.54 102.29L210.24 102.29L209.93 102.29L209.63 102.29L209.33 102.3L209.02 102.3L208.72 102.3L208.41 102.3L208.11 102.3L207.81 102.3L207.5 102.3L207.2 102.29L206.9 102.29L206.59 102.29L206.29 102.29L205.68 102.29L205.38 102.29L205.07 102.29L204.77 102.29L204.46 102.29L204.16 102.29L203.86 102.29L203.55 102.29L203.25 102.29L202.94 102.29L202.64 102.29L202.34 102.29Z" id="aeV4EUaVr"></path><path d="M36.27 55.1C46.74 55.11 57.21 55.1 67.68 55.1C68.68 55.18 69.75 54.95 70.71 55.22C70.72 66.63 70.68 78.03 70.74 89.44C59.27 89.6 47.77 89.46 36.29 89.51C36.15 89.48 35.87 89.4 35.74 89.36C35.87 78.32 35.76 67.27 35.79 56.22C35.84 55.82 35.52 54.99 36.27 55.1Z" id="a5SpVh3np9"></path><path d="M129.61 38.96L129.62 39.33L129.63 39.71L129.63 40.08L129.64 40.45L129.65 40.82L129.65 41.2L129.66 41.57L129.66 41.94L129.66 42.31L129.67 42.69L129.67 43.06L129.67 43.43L129.67 43.81L129.67 44.18L129.67 44.55L129.67 44.92L129.67 45.3L129.67 45.67L129.67 46.04L129.66 46.42L129.66 46.79L129.66 47.16L129.66 47.91L129.66 48.28L129.65 48.65L129.65 49.03L129.65 49.4L129.65 49.77L129.65 50.15L129.65 50.52L129.65 50.89L129.65 51.26L129.65 51.64L129.65 52.01L129.65 52.38L129.65 52.75L129.66 53.13L129.66 53.92L129.66 54.7L129.66 55.49L129.66 56.28L129.66 57.07L129.66 57.86L129.66 58.64L129.66 59.43L129.66 60.22L129.66 61.01L129.66 61.8L129.66 62.58L129.66 63.37L129.66 64.16L129.66 64.95L129.66 65.74L129.66 66.52L129.66 67.31L129.66 68.1L129.66 68.89L129.66 69.68L129.66 70.46L129.66 71.25L129.66 72.04L129.66 72.83L129.66 73.62L129.66 74.4L129.66 75.19L129.66 75.98L129.66 76.77L129.66 77.56L129.66 78.35L129.66 79.13L129.66 79.92L129.66 80.71L129.66 81.5L129.67 82.29L129.67 83.07L129.67 83.86L129.67 84.65L129.67 85.23L129.67 85.8L129.67 86.38L129.67 86.95L129.67 87.53L129.67 88.1L129.67 88.68L129.67 89.26L129.66 89.83L129.66 90.41L129.66 90.98L129.66 91.56L129.66 92.14L129.66 92.71L129.65 93.29L129.65 93.86L129.65 94.44L129.65 95.02L129.65 95.59L129.65 96.17L129.65 96.74L129.65 97.32L129.65 97.89L129.65 98.47L129.65 99.05L129.65 99.62L129.65 100.2L129.65 100.77L129.66 101.35L129.66 101.93L129.66 102.5L129.67 103.08L129.67 103.65L129.68 104.23L129.68 104.8L129.69 105.38L129.7 105.96L129.71 106.53L129.72 107.11L129.73 107.68L129.72 107.83L129.7 107.97L129.69 108.12L129.69 108.26L129.68 108.41L129.67 108.56L129.67 108.7L129.66 108.85L129.66 108.99L129.65 109.14L129.65 109.28L129.65 109.43L129.65 109.58L129.65 109.72L129.65 109.87L129.65 110.01L129.65 110.16L129.65 110.31L129.65 110.45L129.66 110.6L129.66 110.74L129.66 110.89L129.66 111.04L129.66 111.18L129.67 111.33L129.67 111.47L129.67 111.62L129.67 111.77L129.67 111.91L129.67 112.06L129.67 112.21L129.67 112.35L129.67 112.5L129.67 112.64L129.67 112.79L129.67 112.94L129.67 113.08L129.66 113.23L129.66 113.37L129.65 113.52L129.65 113.83L129.65 114.14L129.65 114.45L129.65 114.76L129.65 115.07L129.65 115.38L129.65 115.69L129.65 116.31L129.65 116.62L129.65 116.94L129.65 117.25L129.65 117.56L129.65 117.87L129.65 118.18L129.65 118.49L129.65 118.8L129.65 119.11L129.65 119.42L129.65 119.73L129.65 120.04L129.65 120.35L129.65 120.66L129.65 120.97L129.65 121.28L129.65 121.6L129.66 121.91L129.66 122.22L129.66 122.53L129.66 122.84L129.66 123.15L129.66 123.46L129.66 123.77L129.66 124.08L129.66 124.39L129.66 124.7L129.66 125.01L129.67 125.32L129.67 125.63L129.67 125.94L129.86 125.95L130.05 125.95L130.24 125.96L130.43 125.96L130.62 125.97L130.81 125.97L131 125.98L131.19 125.98L131.38 125.98L131.57 125.98L131.76 125.99L131.95 125.99L132.14 125.99L132.33 125.99L132.52 125.99L132.71 125.99L132.9 125.99L133.09 125.99L133.28 125.99L133.47 125.99L133.66 125.99L133.85 125.99L134.04 125.99L134.23 125.99L134.42 125.99L134.61 125.99L134.8 125.99L134.99 125.99L135.18 125.99L135.38 125.98L135.57 125.98L135.76 125.98L135.95 125.98L136.14 125.98L136.33 125.98L136.52 125.97L136.71 125.97L136.9 125.97L137.09 125.97L137.28 125.97L138.24 125.97L139.2 125.97L140.15 125.97L141.11 125.97L142.07 125.98L143.03 125.98L143.99 125.98L144.95 125.98L145.91 125.98L146.86 125.98L147.82 125.98L148.78 125.98L149.74 125.98L150.7 125.98L151.66 125.98L152.62 125.98L153.57 125.98L154.53 125.98L155.49 125.98L156.45 125.98L157.41 125.98L158.37 125.98L159.33 125.98L160.28 125.98L161.24 125.98L162.2 125.98L163.16 125.98L164.12 125.98L165.08 125.98L166.04 125.98L166.99 125.98L167.95 125.98L168.91 125.98L169.87 125.98L170.83 125.98L171.79 125.98L172.74 125.98L173.7 125.98L174.66 125.98L175.62 125.98L175.66 125.98L175.7 125.98L175.73 125.98L175.77 125.98L175.81 125.98L175.85 125.99L175.88 126L175.92 126.01L175.96 126.02L175.99 126.03L176.03 126.05L176.07 126.06L176.1 126.08L176.13 126.1L176.17 126.12L176.2 126.14L176.23 126.16L176.26 126.18L176.3 126.2L176.32 126.23L176.35 126.26L176.38 126.28L176.41 126.31L176.43 126.34L176.46 126.37L176.48 126.4L176.5 126.43L176.52 126.47L176.54 126.5L176.56 126.53L176.58 126.57L176.59 126.6L176.61 126.64L176.62 126.67L176.63 126.71L176.64 126.75L176.64 126.78L176.65 126.82L176.65 126.86L176.65 126.89L176.65 127L176.66 127.1L176.66 127.21L176.66 127.31L176.66 127.41L176.66 127.52L176.67 127.62L176.67 127.72L176.67 127.83L176.67 127.93L176.67 128.04L176.67 128.14L176.68 128.24L176.68 128.35L176.68 128.45L176.68 128.56L176.68 128.66L176.68 128.76L176.68 128.87L176.68 128.97L176.68 129.08L176.68 129.18L176.68 129.28L176.68 129.39L176.68 129.49L176.68 129.6L176.68 129.7L176.68 129.8L176.67 129.91L176.67 130.01L176.67 130.12L176.67 130.22L176.67 130.32L176.67 130.43L176.66 130.53L176.66 130.63L176.66 130.74L176.66 130.84L176.65 130.95L176.65 131.05L176.65 131.1L176.64 131.15L176.64 131.2L176.62 131.24L176.61 131.29L176.6 131.33L176.58 131.37L176.56 131.41L176.54 131.45L176.51 131.49L176.49 131.52L176.46 131.56L176.43 131.59L176.4 131.62L176.37 131.65L176.34 131.68L176.3 131.71L176.26 131.74L176.23 131.76L176.19 131.79L176.15 131.81L176.11 131.83L176.06 131.85L176.02 131.87L175.98 131.89L175.93 131.9L175.89 131.92L175.84 131.93L175.8 131.94L175.75 131.95L175.71 131.96L175.66 131.97L175.61 131.97L175.57 131.98L175.52 131.98L175.47 131.98L175.43 131.98L175.38 131.98L175.34 131.98L175.29 131.98L174.34 131.98L173.39 131.98L172.44 131.98L171.49 131.98L170.55 131.98L169.6 131.98L168.65 131.98L167.7 131.98L166.75 131.98L165.8 131.98L164.85 131.98L163.9 131.98L162.95 131.98L162 131.98L161.05 131.97L160.1 131.97L159.15 131.97L158.2 131.97L157.25 131.97L156.3 131.97L155.35 131.97L154.4 131.97L153.45 131.97L152.5 131.97L151.55 131.97L150.6 131.97L149.65 131.97L148.7 131.97L147.75 131.97L146.8 131.98L145.85 131.98L144.9 131.98L143.95 131.98L143 131.98L142.05 131.98L141.1 131.99L140.16 131.99L139.21 131.99L138.26 131.99L137.31 132L137.12 131.99L136.93 131.99L136.74 131.99L136.54 131.98L136.35 131.98L136.16 131.98L135.97 131.98L135.78 131.97L135.59 131.97L135.4 131.97L135.21 131.97L135.02 131.96L134.83 131.96L134.64 131.96L134.45 131.96L134.26 131.96L134.07 131.96L133.88 131.96L133.69 131.96L133.5 131.96L133.31 131.96L133.12 131.96L132.93 131.96L132.74 131.96L132.55 131.96L132.36 131.96L132.17 131.96L131.98 131.96L131.79 131.96L131.6 131.97L131.41 131.97L131.22 131.97L131.03 131.98L130.84 131.98L130.65 131.98L130.46 131.99L130.27 131.99L130.08 132L129.89 132L129.7 132.01L129.69 132.04L129.69 132.07L129.69 132.11L129.69 132.14L129.69 132.18L129.68 132.21L129.68 132.24L129.68 132.28L129.68 132.31L129.67 132.34L129.67 132.38L129.67 132.41L129.67 132.45L129.67 132.48L129.66 132.51L129.66 132.55L129.66 132.58L129.65 132.61L129.65 132.65L129.65 132.68L129.65 132.72L129.64 132.75L129.64 132.78L129.64 132.82L129.63 132.85L129.63 132.89L129.63 132.92L129.62 132.95L129.62 132.99L129.62 133.02L129.61 133.05L129.61 133.09L129.61 133.12L129.6 133.16L129.6 133.19L129.6 133.22L129.59 133.26L129.59 133.29L129.58 133.33L129.58 133.36L128.84 133.36L128.1 133.36L127.36 133.35L126.62 133.35L125.88 133.35L125.14 133.35L124.4 133.35L123.66 133.35L122.92 133.35L122.18 133.34L121.44 133.34L120.7 133.34L119.96 133.34L119.22 133.34L118.48 133.34L117.74 133.34L117.01 133.34L116.27 133.34L115.53 133.34L114.79 133.34L114.05 133.34L113.31 133.34L112.57 133.34L111.83 133.34L111.09 133.34L110.35 133.34L109.61 133.34L108.87 133.34L108.13 133.34L107.39 133.34L106.65 133.35L105.91 133.35L105.17 133.35L104.43 133.35L103.69 133.36L102.95 133.36L102.21 133.36L101.47 133.37L100.73 133.37L99.99 133.37L99.22 133.37L98.44 133.36L97.67 133.36L96.9 133.36L96.12 133.35L95.35 133.35L94.58 133.35L93.81 133.34L93.03 133.34L92.26 133.34L91.49 133.34L90.71 133.34L89.94 133.34L89.17 133.34L88.39 133.33L87.62 133.33L86.85 133.33L86.07 133.33L85.3 133.33L84.53 133.34L83.75 133.34L82.98 133.34L82.2 133.34L81.43 133.34L80.66 133.34L79.88 133.34L79.11 133.34L78.34 133.34L77.56 133.34L76.79 133.34L76.02 133.34L75.24 133.34L74.47 133.35L73.7 133.35L72.92 133.35L72.15 133.35L71.38 133.35L70.6 133.35L69.83 133.35L69.06 133.35L68.87 133.34L68.69 133.33L68.5 133.33L68.31 133.33L68.13 133.32L67.94 133.32L67.76 133.32L67.57 133.32L67.38 133.32L67.2 133.32L67.01 133.32L66.82 133.33L66.64 133.33L66.45 133.33L66.27 133.34L66.08 133.34L65.89 133.34L65.71 133.34L65.52 133.35L65.33 133.35L65.15 133.35L64.96 133.35L64.78 133.35L64.59 133.35L64.4 133.35L64.22 133.35L64.03 133.35L63.85 133.35L63.66 133.35L63.47 133.34L63.29 133.33L63.1 133.33L62.92 133.32L62.73 133.31L62.55 133.3L62.36 133.28L62.18 133.27L61.99 133.25L61.81 133.24L61.62 133.22L61.83 132.9L62.04 132.59L62.25 132.28L62.46 131.96L62.67 131.65L62.88 131.34L63.09 131.03L63.31 130.72L63.52 130.41L63.74 130.11L63.95 129.8L64.17 129.49L64.39 129.18L64.6 128.88L64.82 128.57L65.04 128.26L65.26 127.96L65.48 127.65L65.7 127.35L65.92 127.04L66.14 126.74L66.36 126.43L66.58 126.13L66.8 125.82L67.02 125.52L67.24 125.21L67.47 124.91L67.69 124.6L67.91 124.3L68.13 123.99L68.35 123.69L68.57 123.38L68.79 123.08L69.01 122.77L69.22 122.46L69.44 122.16L69.66 121.85L69.88 121.54L70.09 121.23L70.31 120.93L71.78 118.87L73.25 116.81L74.73 114.75L76.2 112.69L77.67 110.64L79.14 108.58L80.62 106.52L82.09 104.46L83.56 102.4L85.03 100.34L86.51 98.29L87.98 96.23L89.45 94.17L90.92 92.11L92.4 90.05L93.87 87.99L95.34 85.94L96.81 83.88L98.29 81.82L99.76 79.76L101.23 77.7L102.7 75.64L104.18 73.58L105.65 71.53L107.12 69.47L108.6 67.41L110.07 65.35L111.54 63.29L113.01 61.23L114.49 59.18L115.96 57.12L117.43 55.06L118.9 53L120.38 50.94L121.85 48.89L123.32 46.83L124.8 44.77L126.27 42.71L127.74 40.65L129.22 38.6L129.3 38.51L129.34 38.47L129.38 38.43L129.41 38.4L129.45 38.35L129.49 38.31L129.51 38.29L129.53 38.27L129.55 38.25L129.56 38.24L129.57 38.23L129.58 38.22L129.58 38.22L129.6 38.59L129.61 38.96ZM129.71 126.33L129.67 127.38L129.64 128.44L129.64 129.51L129.67 130.57L129.75 131.61L131.24 131.65L132.73 131.67L134.23 131.69L135.72 131.67L137.2 131.61L137.28 130.56L137.32 129.5L137.31 128.43L137.28 127.36L137.24 126.3L135.73 126.3L134.23 126.28L132.72 126.27L131.22 126.28L129.71 126.33Z" id="c3yoZ1F26X"></path><path d="M175.02 107.53C175.69 107.49 176.61 107.73 176.64 108.39C176.73 109.65 176.65 110.91 176.68 112.17C176.78 112.79 176.35 113.55 175.48 113.52C160.17 113.54 144.86 113.54 129.56 113.52C129.6 111.54 129.5 109.56 129.55 107.57C144.71 107.49 159.87 107.57 175.02 107.53Z" id="a4ZGgvS01o"></path><path d="M212.58 125.22C213.14 125.15 213.5 125.74 213.5 126.22C213.5 127.59 213.52 128.95 213.49 130.32C213.5 130.81 213 131.18 212.53 131.19C208.23 131.2 203.92 131.19 199.62 131.2C198.94 131.31 198.76 130.48 198.81 129.99C198.85 128.48 198.73 126.97 198.88 125.47C198.98 125.4 199.18 125.28 199.28 125.21C203.71 125.2 208.15 125.17 212.58 125.22Z" id="bH90B71fK"></path><path d="M200.34 143.64C204.41 143.66 208.48 143.64 212.55 143.64C214.01 143.77 213.36 145.54 213.5 146.49C213.34 147.56 214.08 149.35 212.53 149.64C208.24 149.69 203.94 149.65 199.64 149.66C198.99 149.76 198.7 149.07 198.81 148.56C198.84 147.03 198.74 145.51 198.85 143.99C199.22 143.56 199.83 143.63 200.34 143.64Z" id="dpmWCeYS9"></path><path d="M117.09 144.43C136.15 144.41 155.2 144.42 174.26 144.42C174.98 144.53 176.06 144.1 176.5 144.86C176.87 146.03 176.58 147.31 176.68 148.52C176.75 149.25 176.66 150.43 175.63 150.34C156.12 150.35 136.61 150.35 117.1 150.34C116.49 150.41 116.05 149.83 116.09 149.28C116.04 148.22 116.09 147.17 116.07 146.12C116.1 145.59 115.99 144.89 116.54 144.58C116.68 144.54 116.96 144.47 117.09 144.43Z" id="a1eIpG8dTM"></path><path d="M212.51 162.09C213.01 162.04 213.53 162.47 213.5 162.98C213.5 164.34 213.52 165.71 213.49 167.07C213.53 167.58 213.05 168.06 212.54 168.01C208.02 168.04 203.51 167.95 198.99 168.05C198.69 166.14 198.87 164.2 198.79 162.27C198.8 162.26 198.83 162.18 198.88 162.03C204.94 162.03 209.48 162.05 212.51 162.09Z" id="b74xhAZJKS"></path><path d="M118.86 162.79C137.77 162.81 156.69 162.78 175.6 162.8C177.23 162.95 176.52 164.97 176.68 166.05C176.6 166.96 177.07 168.72 175.67 168.78C156.15 168.8 136.63 168.78 117.11 168.79C115.89 168.75 116.06 167.24 116.07 166.41C116.22 165.29 115.73 163.98 116.44 163C117.2 162.67 118.05 162.82 118.86 162.79Z" id="a2jmri9VWU"></path><path d="M212.22 180.46C212.83 180.37 213.56 180.8 213.5 181.48C213.5 182.84 213.51 184.21 213.49 185.58C213.5 186.09 213.02 186.48 212.53 186.45C208.22 186.45 203.91 186.46 199.6 186.45C198.96 186.52 198.74 185.73 198.81 185.25C198.89 183.66 198.68 182.06 198.89 180.48C203.33 180.43 207.77 180.47 212.22 180.46Z" id="asVScvBcX"></path><path d="M175.3 181.23C175.89 181.15 176.62 181.48 176.65 182.13C176.7 183.52 176.68 184.91 176.66 186.29C176.62 186.94 175.91 187.31 175.31 187.23C155.91 187.22 136.52 187.23 117.13 187.23C116.47 187.23 116.06 186.58 116.08 185.99C116.06 184.83 116.07 183.67 116.08 182.51C116.01 181.96 116.36 181.45 116.87 181.27C136.34 181.19 155.82 181.26 175.3 181.23Z" id="a41LgIUwu"></path><path d="M199.98 198.89C204.06 198.91 208.13 198.89 212.2 198.9C212.72 198.86 213.49 199.08 213.49 199.71C213.51 201.17 213.52 202.64 213.48 204.11C213.47 204.74 212.72 204.93 212.19 204.92C207.76 204.92 203.33 204.91 198.89 204.92C198.88 204.91 198.8 204.87 198.66 204.79C198.7 204.62 198.71 204.53 198.72 204.51C198.95 202.89 198.7 201.25 198.83 199.63C198.71 198.94 199.49 198.85 199.98 198.89Z" id="cdBFZi45i"></path><path d="M118.15 199.67C137.43 199.7 156.72 199.63 176 199.7C177.13 200.28 176.53 201.77 176.68 202.76C176.56 203.71 177.14 205.6 175.63 205.6C156.14 205.61 136.65 205.6 117.16 205.61C115.78 205.7 116.11 203.99 116.07 203.12C116.23 202.05 115.69 200.69 116.53 199.84C117.01 199.54 117.61 199.71 118.15 199.67Z" id="g1xzIS3Qt1"></path><path d="M197.87 217.38C202.87 217.36 207.89 217.32 212.89 217.4C213.96 217.94 213.32 219.34 213.5 220.27C213.34 221.23 213.98 222.72 212.83 223.26C206.95 223.31 201.07 223.19 195.2 223.31C196.03 221.41 197.1 219.58 197.66 217.55C197.7 217.52 197.85 217.4 197.87 217.38Z" id="b85assQIJj"></path><path d="M137.3 38.22C137.18 53.68 137.23 69.16 137.28 84.63C134.74 84.62 132.21 84.58 129.67 84.65C129.64 74.14 129.67 63.64 129.66 53.13C129.61 48.16 129.75 43.18 129.58 38.22C132.15 38.16 134.73 38.17 137.3 38.22Z" id="b3zsSM379"></path><path d="M137.27 126.1C137.36 128.04 137.43 130.06 137.23 131.98C134.48 132.14 131.69 132.04 128.93 131.99C128.73 130.07 128.8 128.06 128.89 126.13C131.68 126 134.48 126.11 137.27 126.1Z" id="b1EOwK4PzZ"></path><path d="M62.18 133.01C73.67 133.02 85.15 133.01 96.63 133.01C97.73 133.06 98.91 132.91 99.96 133.09C99.97 140.78 99.93 148.47 99.99 156.16C87.41 156.27 74.8 156.18 62.2 156.21C62.05 156.19 61.75 156.14 61.6 156.11C61.75 148.67 61.62 141.21 61.66 133.77C61.71 133.5 61.36 132.94 62.18 133.01Z" id="b6XNojJxj"></path><path d="M129.42 38.22C139.89 38.24 150.36 38.22 160.83 38.23C161.83 38.33 162.9 38.02 163.86 38.39C163.87 53.78 163.83 69.17 163.88 84.57C152.41 84.78 140.92 84.59 129.43 84.66C129.3 84.61 129.02 84.51 128.88 84.46C129.02 69.56 128.91 54.64 128.94 39.73C128.99 39.2 128.67 38.08 129.42 38.22Z" id="a5cwOIvJog"></path><path d="M127.22 126.02C131.55 126.03 135.87 126.02 140.2 126.02C140.62 126.04 141.06 126 141.46 126.05C141.46 128.03 141.44 130.02 141.47 132.01C136.72 132.04 131.97 132.02 127.22 132.03C127.17 132.02 127.05 132.01 127 132C127.05 130.08 127.01 128.15 127.02 126.22C127.04 126.15 126.91 126.01 127.22 126.02Z" id="a4wB0C6Dyc"></path></defs><g><g><g><use xlink:href="#bbJJoShmv" opacity="1" fill="#1b76bc" fill-opacity="1"></use><g><use xlink:href="#bbJJoShmv" opacity="1" fill-opacity="0" stroke="#000000" stroke-width="1" stroke-opacity="0"></use></g></g><g><use xlink:href="#dKWE5XKQr" opacity="1" fill="#1b76bc" fill-opacity="1"></use><g><use xlink:href="#dKWE5XKQr" opacity="1" fill-opacity="0" stroke="#000000" stroke-width="1" stroke-opacity="0"></use></g></g><g><use xlink:href="#aeV4EUaVr" opacity="1" fill="#1b76bc" fill-opacity="1"></use><g><use xlink:href="#aeV4EUaVr" opacity="1" fill-opacity="0" stroke="#000000" stroke-width="1" stroke-opacity="0"></use></g></g><g><use xlink:href="#a5SpVh3np9" opacity="1" fill="#1b76bc" fill-opacity="1"></use><g><use xlink:href="#a5SpVh3np9" opacity="1" fill-opacity="0" stroke="#000000" stroke-width="1" stroke-opacity="0"></use></g></g><g><use xlink:href="#c3yoZ1F26X" opacity="1" fill="#1b76bc" fill-opacity="1"></use><g><use xlink:href="#c3yoZ1F26X" opacity="1" fill-opacity="0" stroke="#000000" stroke-width="1" stroke-opacity="0"></use></g></g><g><use xlink:href="#a4ZGgvS01o" opacity="1" fill="#1b76bc" fill-opacity="1"></use><g><use xlink:href="#a4ZGgvS01o" opacity="1" fill-opacity="0" stroke="#000000" stroke-width="1" stroke-opacity="0"></use></g></g><g><use xlink:href="#bH90B71fK" opacity="1" fill="#1b76bc" fill-opacity="1"></use><g><use xlink:href="#bH90B71fK" opacity="1" fill-opacity="0" stroke="#000000" stroke-width="1" stroke-opacity="0"></use></g></g><g><use xlink:href="#dpmWCeYS9" opacity="1" fill="#1b76bc" fill-opacity="1"></use><g><use xlink:href="#dpmWCeYS9" opacity="1" fill-opacity="0" stroke="#000000" stroke-width="1" stroke-opacity="0"></use></g></g><g><use xlink:href="#a1eIpG8dTM" opacity="1" fill="#1b76bc" fill-opacity="1"></use><g><use xlink:href="#a1eIpG8dTM" opacity="1" fill-opacity="0" stroke="#000000" stroke-width="1" stroke-opacity="0"></use></g></g><g><use xlink:href="#b74xhAZJKS" opacity="1" fill="#1b76bc" fill-opacity="1"></use><g><use xlink:href="#b74xhAZJKS" opacity="1" fill-opacity="0" stroke="#000000" stroke-width="1" stroke-opacity="0"></use></g></g><g><use xlink:href="#a2jmri9VWU" opacity="1" fill="#1b76bc" fill-opacity="1"></use><g><use xlink:href="#a2jmri9VWU" opacity="1" fill-opacity="0" stroke="#000000" stroke-width="1" stroke-opacity="0"></use></g></g><g><use xlink:href="#asVScvBcX" opacity="1" fill="#1b76bc" fill-opacity="1"></use><g><use xlink:href="#asVScvBcX" opacity="1" fill-opacity="0" stroke="#000000" stroke-width="1" stroke-opacity="0"></use></g></g><g><use xlink:href="#a41LgIUwu" opacity="1" fill="#1b76bc" fill-opacity="1"></use><g><use xlink:href="#a41LgIUwu" opacity="1" fill-opacity="0" stroke="#000000" stroke-width="1" stroke-opacity="0"></use></g></g><g><use xlink:href="#cdBFZi45i" opacity="1" fill="#1b76bc" fill-opacity="1"></use><g><use xlink:href="#cdBFZi45i" opacity="1" fill-opacity="0" stroke="#000000" stroke-width="1" stroke-opacity="0"></use></g></g><g><use xlink:href="#g1xzIS3Qt1" opacity="1" fill="#1b76bc" fill-opacity="1"></use><g><use xlink:href="#g1xzIS3Qt1" opacity="1" fill-opacity="0" stroke="#000000" stroke-width="1" stroke-opacity="0"></use></g></g><g><use xlink:href="#b85assQIJj" opacity="1" fill="#1b76bc" fill-opacity="1"></use><g><use xlink:href="#b85assQIJj" opacity="1" fill-opacity="0" stroke="#000000" stroke-width="1" stroke-opacity="0"></use></g></g><g><use xlink:href="#b3zsSM379" opacity="1" fill="#1b76bc" fill-opacity="1"></use></g><g><use xlink:href="#b1EOwK4PzZ" opacity="1" fill="#1b76bc" fill-opacity="1"></use></g><g><use xlink:href="#b6XNojJxj" opacity="1" fill="#1b76bc" fill-opacity="1"></use><g><use xlink:href="#b6XNojJxj" opacity="1" fill-opacity="0" stroke="#000000" stroke-width="1" stroke-opacity="0"></use></g></g><g><use xlink:href="#a5cwOIvJog" opacity="1" fill="#1b76bc" fill-opacity="1"></use><g><use xlink:href="#a5cwOIvJog" opacity="1" fill-opacity="0" stroke="#000000" stroke-width="1" stroke-opacity="0"></use></g></g><g><use xlink:href="#a4wB0C6Dyc" opacity="1" fill="#1b76bc" fill-opacity="1"></use><g><use xlink:href="#a4wB0C6Dyc" opacity="1" fill-opacity="0" stroke="#000000" stroke-width="1" stroke-opacity="0"></use></g></g></g></g></svg>