<?xml version="1.0" encoding="UTF-8" standalone="no"?>
<!DOCTYPE svg PUBLIC "-//W3C//DTD SVG 1.1//EN" "http://www.w3.org/Graphics/SVG/1.1/DTD/svg11.dtd">
<svg version="1.1" xmlns="http://www.w3.org/2000/svg" xmlns:xlink="http://www.w3.org/1999/xlink" preserveAspectRatio="xMidYMid meet" viewBox="0 0 300 240" width="300" height="240"><defs><path d="M284.5 24.16C264.47 41.69 245.22 60.13 225.56 78.1C219.72 83.62 213.55 88.8 207.97 94.59C207.87 94.55 207.07 94.25 206.97 94.21C200.85 91.45 194.88 88.39 188.75 85.68C212.19 64.65 235.96 43.96 259.33 22.85C267.72 23.33 276.11 23.87 284.5 24.16Z" id="b9BVa5y0Ub"></path><path d="M207.97 93.21C226.61 102.43 245.55 111.06 264.34 120.01C245.56 128.9 226.74 137.69 207.95 146.52C231.38 167.04 255.21 187.11 278.79 207.48C280.39 208.86 282.06 210.14 283.78 211.39C275.48 212.07 267.18 212.73 258.88 213.34C235.56 194.41 212.53 175.11 189.26 156.12C187.61 155.58 186.16 157.07 184.68 157.52C166.85 165.87 149.23 174.7 131.26 182.73C146.04 161.97 160.71 141.15 175.34 120.29C160.6 99.25 146.15 78 131.08 57.22C150.64 66.35 170.3 75.32 189.75 84.68C195.88 87.39 201.85 90.45 207.97 93.21Z" id="aLXCDYuWo"></path><path d="M284.5 24.16C264.47 41.69 245.22 60.13 225.56 78.1C219.72 83.62 213.55 88.8 207.97 94.59C207.87 94.55 207.07 94.25 206.97 94.21C200.85 91.45 194.88 88.39 188.75 85.68C212.19 64.65 235.96 43.96 259.33 22.85C267.72 23.33 276.11 23.87 284.5 24.16Z" id="a1rwd04kQy"></path><path d="M120.56 154.47C110.41 164.2 100.34 174.08 89.97 183.62C79.73 193.18 70.02 203.37 59.28 212.35C59.33 204.26 59.69 196.16 59.89 188.06C80.37 168.07 100.71 147.93 121.08 127.84C120.01 136.68 120.66 145.59 120.56 154.47Z" id="i42NdFAmm7"></path><path d="M207.97 93.21C226.61 102.43 245.55 111.06 264.34 120.01C245.56 128.9 226.74 137.69 207.95 146.52C231.38 167.04 255.21 187.11 278.79 207.48C280.39 208.86 282.06 210.14 283.78 211.39C275.48 212.07 267.18 212.73 258.88 213.34C235.56 194.41 212.53 175.11 189.26 156.12C187.61 155.58 186.16 157.07 184.68 157.52C166.85 165.87 149.23 174.7 131.26 182.73C146.04 161.97 160.71 141.15 175.34 120.29C160.6 99.25 146.15 78 131.08 57.22C150.64 66.35 170.3 75.32 189.75 84.68C195.88 87.39 201.85 90.45 207.97 93.21Z" id="a1GE9VuZaV"></path><path d="M117.94 157.51C118.04 148.63 117.38 139.72 118.46 130.88C118.47 130.83 118.51 130.43 118.51 130.39C122.09 127.05 125.51 123.54 128.94 120.05C105.58 96.8 82.56 73.19 59.45 49.68C58.94 41.37 59.5 33 59.17 24.66C91.44 56.52 124.17 87.94 156.41 119.81C143.39 132.18 131.29 145.49 117.94 157.51Z" id="bW6xEBsKN"></path><path d="M117.94 157.51C118.04 148.63 117.38 139.72 118.46 130.88C118.47 130.83 118.51 130.43 118.51 130.39C122.09 127.05 125.51 123.54 128.94 120.05C105.58 96.8 82.56 73.19 59.45 49.68C58.94 41.37 59.5 33 59.17 24.66C91.44 56.52 124.17 87.94 156.41 119.81C143.39 132.18 131.29 145.49 117.94 157.51Z" id="b1MB8Jfjjt"></path><path d="M120.56 154.47C110.41 164.2 100.34 174.08 89.97 183.62C79.73 193.18 70.02 203.37 59.28 212.35C59.33 204.26 59.69 196.16 59.89 188.06C80.37 168.07 100.71 147.93 121.08 127.84C120.01 136.68 120.66 145.59 120.56 154.47Z" id="aI63CSHVO"></path><path d="M107.79 119.61C93.18 134.23 78.55 148.86 63.92 163.49C49.29 163.49 34.67 163.49 20.04 163.49C20.04 134.23 20.04 104.98 20.04 75.73C34.67 75.73 49.28 75.73 63.91 75.73C78.55 90.34 93.18 104.97 107.79 119.61Z" id="c1wiJYkdOC"></path><path d="M107.79 119.61C93.18 134.23 78.55 148.86 63.92 163.49C49.29 163.49 34.67 163.49 20.04 163.49C20.04 134.23 20.04 104.98 20.04 75.73C34.67 75.73 49.28 75.73 63.91 75.73C78.55 90.34 93.18 104.97 107.79 119.61Z" id="b27Pn3LuB"></path></defs><g><g><g><use xlink:href="#b9BVa5y0Ub" opacity="1" fill="#00ceff" fill-opacity="1"></use><g><use xlink:href="#b9BVa5y0Ub" opacity="1" fill-opacity="0" stroke="#000000" stroke-width="1" stroke-opacity="0"></use></g></g><g><use xlink:href="#aLXCDYuWo" opacity="1" fill="#00ceff" fill-opacity="1"></use><g><use xlink:href="#aLXCDYuWo" opacity="1" fill-opacity="0" stroke="#000000" stroke-width="1" stroke-opacity="0"></use></g></g><g><use xlink:href="#a1rwd04kQy" opacity="1" fill="#000000" fill-opacity="0"></use><g><use xlink:href="#a1rwd04kQy" opacity="1" fill-opacity="0" stroke="#000000" stroke-width="1" stroke-opacity="0"></use></g></g><g><use xlink:href="#i42NdFAmm7" opacity="1" fill="#29d2d3" fill-opacity="1"></use><g><use xlink:href="#i42NdFAmm7" opacity="1" fill-opacity="0" stroke="#000000" stroke-width="1" stroke-opacity="0"></use></g></g><g><use xlink:href="#a1GE9VuZaV" opacity="1" fill="#000000" fill-opacity="0"></use><g><use xlink:href="#a1GE9VuZaV" opacity="1" fill-opacity="0" stroke="#000000" stroke-width="1" stroke-opacity="0"></use></g></g><g><use xlink:href="#bW6xEBsKN" opacity="1" fill="#29d2d3" fill-opacity="1"></use><g><use xlink:href="#bW6xEBsKN" opacity="1" fill-opacity="0" stroke="#000000" stroke-width="1" stroke-opacity="0"></use></g></g><g><use xlink:href="#b1MB8Jfjjt" opacity="1" fill="#000000" fill-opacity="0"></use><g><use xlink:href="#b1MB8Jfjjt" opacity="1" fill-opacity="0" stroke="#000000" stroke-width="1" stroke-opacity="0"></use></g></g><g><use xlink:href="#aI63CSHVO" opacity="1" fill="#000000" fill-opacity="0"></use><g><use xlink:href="#aI63CSHVO" opacity="1" fill-opacity="0" stroke="#000000" stroke-width="1" stroke-opacity="0"></use></g></g><g><use xlink:href="#c1wiJYkdOC" opacity="1" fill="#00ceff" fill-opacity="1"></use><g><use xlink:href="#c1wiJYkdOC" opacity="1" fill-opacity="0" stroke="#000000" stroke-width="1" stroke-opacity="0"></use></g></g><g><use xlink:href="#b27Pn3LuB" opacity="1" fill="#000000" fill-opacity="0"></use><g><use xlink:href="#b27Pn3LuB" opacity="1" fill-opacity="0" stroke="#000000" stroke-width="1" stroke-opacity="0"></use></g></g></g></g></svg>