<?xml version="1.0" encoding="UTF-8" standalone="no"?>
<!DOCTYPE svg PUBLIC "-//W3C//DTD SVG 1.1//EN" "http://www.w3.org/Graphics/SVG/1.1/DTD/svg11.dtd">
<svg version="1.1" xmlns="http://www.w3.org/2000/svg" xmlns:xlink="http://www.w3.org/1999/xlink" preserveAspectRatio="xMidYMid meet" viewBox="0 0 528 396" width="528" height="396"><defs><path d="M524.66 0C525.99 0 526.66 0.67 526.66 2C526.66 237.2 526.66 367.87 526.66 394C526.66 395.33 525.99 396 524.66 396C210.26 396 35.59 396 0.66 396C-0.68 396 -1.34 395.33 -1.34 394C-1.34 158.8 -1.34 28.13 -1.34 2C-1.34 0.67 -0.68 0 0.66 0C315.06 0 489.72 0 524.66 0Z" id="b1RaybL0C"></path><path d="M100.93 40L100.93 396C41.04 396 7.78 396 1.12 396C0.5 396 0 395.1 0 394C0 370.4 0 252.4 0 40L100.93 40Z" id="a5zzhtDlgj"></path><path d="M100.93 62.62L199.11 62.62L199.11 396L100.93 396L100.93 62.62Z" id="c5mbt7tiV"></path><linearGradient id="gradientdYIoYifxB" gradientUnits="userSpaceOnUse" x1="150.02" y1="396" x2="150.02" y2="66.46"><stop style="stop-color: #f6f7ff;stop-opacity: 1" offset="0%"></stop><stop style="stop-color: #f6f7ff;stop-opacity: 1" offset="100%"></stop></linearGradient><path d="M526 0C527.1 0 528 0.9 528 2C528 4.53 528 17.2 528 40L0 40C0 17.2 0 4.53 0 2C0 0.9 0.9 0 2 0C106.8 0 473.6 0 526 0Z" id="b1wb1Vmp5C"></path><path d="M24 16C21.79 16 20 17.79 20 20C20 22.21 21.79 24 24 24C26.21 24 28 22.21 28 20C28 17.79 26.21 16 24 16Z" id="b3YfdYrNK"></path><path d="M40 16C37.79 16 36 17.79 36 20C36 22.21 37.79 24 40 24C42.21 24 44 22.21 44 20C44 17.79 42.21 16 40 16Z" id="n2bVsUdJkc"></path><path d="M56 16C53.79 16 52 17.79 52 20C52 22.21 53.79 24 56 24C58.21 24 60 22.21 60 20C60 17.79 58.21 16 56 16Z" id="a7l38CU92"></path><path d="M527 39C527.55 39 528 39.45 528 40C475.2 40 52.8 40 0 40C0 39.45 0.45 39 1 39C106.2 39 474.4 39 527 39Z" id="brayJYdtl"></path><path d="M100.93 40L527.25 40L527.25 62.62L100.93 62.62L100.93 40Z" id="b5C2Cpe16j"></path><path d="M230.3 73.07C219.92 73.07 211.51 81.48 211.51 91.85C211.51 102.22 219.92 110.63 230.3 110.63C240.67 110.63 249.08 102.22 249.08 91.85C249.08 81.48 240.67 73.07 230.3 73.07Z" id="bazvxoz7x"></path><path d="M289.75 287.34L289.75 287.34L289.06 287.34L289.75 287.34Z" id="b29TF44xHs"></path><path d="M504.4 73.07C506.99 73.07 509.08 75.16 509.08 77.74C509.08 80.24 509.08 83.04 509.08 85.54C509.08 88.12 506.99 90.22 504.4 90.22C493.04 90.22 463.62 90.22 452.26 90.22C449.67 90.22 447.58 88.12 447.58 85.54C447.58 83.04 447.58 80.24 447.58 77.74C447.58 75.16 449.67 73.07 452.26 73.07C463.62 73.07 493.04 73.07 504.4 73.07Z" id="a8PjUuKSbC"></path><path d="M209.09 124.14L460.45 122.7L460.49 130.7L209.14 132.14L209.09 124.14Z" id="a3oXROfq6n"></path><linearGradient id="gradientak1iVV7Wu" gradientUnits="userSpaceOnUse" x1="334.82" y1="131.42" x2="334.77" y2="123.51"><stop style="stop-color: #f6f7ff;stop-opacity: 1" offset="0%"></stop><stop style="stop-color: #f6f7ff;stop-opacity: 1" offset="100%"></stop></linearGradient><path d="M260.66 73.56L345.63 73.07L345.7 85.19L260.73 85.68L260.66 73.56Z" id="cc1vCXHdM"></path><linearGradient id="gradientdw52dT1M" gradientUnits="userSpaceOnUse" x1="303.21" y1="85.44" x2="303.14" y2="73.45"><stop style="stop-color: #f6f7ff;stop-opacity: 1" offset="0%"></stop><stop style="stop-color: #f6f7ff;stop-opacity: 1" offset="100%"></stop></linearGradient><path d="M260.66 92.14L311.11 91.85L311.16 99.85L260.7 100.14L260.66 92.14Z" id="f47IGMuds4"></path><linearGradient id="gradientaHoBnXuYU" gradientUnits="userSpaceOnUse" x1="285.93" y1="99.99" x2="285.89" y2="92.09"><stop style="stop-color: #f6f7ff;stop-opacity: 1" offset="0%"></stop><stop style="stop-color: #f6f7ff;stop-opacity: 1" offset="100%"></stop></linearGradient><path d="M269.27 107.77C269.37 107.98 269.57 108.12 269.8 108.15C270.12 108.2 272.75 108.58 273.08 108.63C273.66 108.72 273.89 109.42 273.47 109.83C273.23 110.06 271.33 111.91 271.09 112.15C270.93 112.31 270.85 112.54 270.89 112.77C270.95 113.09 271.4 115.71 271.45 116.04C271.55 116.61 270.95 117.05 270.43 116.78C270.14 116.62 267.79 115.39 267.5 115.23C267.29 115.13 267.05 115.13 266.84 115.23C266.55 115.39 264.2 116.62 263.91 116.78C263.39 117.05 262.79 116.61 262.89 116.04C262.94 115.71 263.39 113.09 263.45 112.77C263.49 112.54 263.41 112.31 263.25 112.15C263.01 111.91 261.11 110.06 260.87 109.83C260.45 109.42 260.68 108.72 261.26 108.63C261.59 108.58 264.22 108.2 264.54 108.15C264.77 108.12 264.97 107.98 265.07 107.77C265.22 107.47 266.39 105.09 266.54 104.79C266.8 104.27 267.54 104.27 267.8 104.79C268.09 105.39 269.12 107.47 269.27 107.77Z" id="b1jEADrhWC"></path><path d="M284.64 107.77C284.75 107.98 284.94 108.12 285.17 108.15C285.5 108.2 288.13 108.58 288.46 108.63C289.03 108.72 289.26 109.42 288.85 109.83C288.61 110.06 286.71 111.91 286.47 112.15C286.3 112.31 286.23 112.54 286.27 112.77C286.32 113.09 286.77 115.71 286.83 116.04C286.93 116.61 286.33 117.05 285.81 116.78C285.52 116.62 283.17 115.39 282.87 115.23C282.67 115.13 282.42 115.13 282.22 115.23C281.93 115.39 279.58 116.62 279.28 116.78C278.77 117.05 278.17 116.61 278.26 116.04C278.32 115.71 278.77 113.09 278.83 112.77C278.86 112.54 278.79 112.31 278.62 112.15C278.39 111.91 276.48 110.06 276.25 109.83C275.83 109.42 276.06 108.72 276.64 108.63C276.96 108.58 279.59 108.2 279.92 108.15C280.15 108.12 280.35 107.98 280.45 107.77C280.6 107.47 281.77 105.09 281.92 104.79C282.18 104.27 282.92 104.27 283.18 104.79C283.47 105.39 284.5 107.47 284.64 107.77Z" id="aaYnen61q"></path><path d="M302.27 107.77C302.37 107.98 302.57 108.12 302.8 108.15C303.12 108.2 305.75 108.58 306.08 108.63C306.66 108.72 306.89 109.42 306.47 109.83C306.23 110.06 304.33 111.91 304.09 112.15C303.93 112.31 303.85 112.54 303.89 112.77C303.95 113.09 304.4 115.71 304.45 116.04C304.55 116.61 303.95 117.05 303.43 116.78C303.14 116.62 300.79 115.39 300.5 115.23C300.29 115.13 300.05 115.13 299.84 115.23C299.55 115.39 297.2 116.62 296.91 116.78C296.39 117.05 295.79 116.61 295.89 116.04C295.94 115.71 296.39 113.09 296.45 112.77C296.49 112.54 296.41 112.31 296.25 112.15C296.01 111.91 294.11 110.06 293.87 109.83C293.45 109.42 293.68 108.72 294.26 108.63C294.59 108.58 297.22 108.2 297.54 108.15C297.77 108.12 297.97 107.98 298.07 107.77C298.22 107.47 299.39 105.09 299.54 104.79C299.8 104.27 300.54 104.27 300.8 104.79C301.09 105.39 302.12 107.47 302.27 107.77Z" id="b5pbyVaU2A"></path><path d="M319.77 107.77C319.87 107.98 320.07 108.12 320.3 108.15C320.63 108.2 323.26 108.58 323.59 108.63C324.16 108.72 324.39 109.42 323.97 109.83C323.74 110.06 321.83 111.91 321.6 112.15C321.43 112.31 321.36 112.54 321.4 112.77C321.45 113.09 321.9 115.71 321.96 116.04C322.05 116.61 321.45 117.05 320.94 116.78C320.64 116.62 318.29 115.39 318 115.23C317.8 115.13 317.55 115.13 317.35 115.23C317.05 115.39 314.7 116.62 314.41 116.78C313.89 117.05 313.29 116.61 313.39 116.04C313.45 115.71 313.9 113.09 313.95 112.77C313.99 112.54 313.92 112.31 313.75 112.15C313.51 111.91 311.61 110.06 311.37 109.83C310.96 109.42 311.19 108.72 311.76 108.63C312.09 108.58 314.72 108.2 315.05 108.15C315.28 108.12 315.47 107.98 315.58 107.77C315.72 107.47 316.9 105.09 317.04 104.79C317.3 104.27 318.05 104.27 318.3 104.79C318.6 105.39 319.62 107.47 319.77 107.77Z" id="erZGJZVSn"></path><path d="M334.58 107.77C334.69 107.98 334.88 108.12 335.11 108.15C335.44 108.2 338.07 108.58 338.4 108.63C338.97 108.72 339.2 109.42 338.79 109.83C338.55 110.06 336.65 111.91 336.41 112.15C336.24 112.31 336.17 112.54 336.21 112.77C336.26 113.09 336.71 115.71 336.77 116.04C336.87 116.61 336.26 117.05 335.75 116.78C335.46 116.62 333.11 115.39 332.81 115.23C332.61 115.13 332.36 115.13 332.16 115.23C331.87 115.39 329.51 116.62 329.22 116.78C328.71 117.05 328.1 116.61 328.2 116.04C328.26 115.71 328.71 113.09 328.76 112.77C328.8 112.54 328.73 112.31 328.56 112.15C328.32 111.91 326.42 110.06 326.19 109.83C325.77 109.42 326 108.72 326.57 108.63C326.9 108.58 329.53 108.2 329.86 108.15C330.09 108.12 330.29 107.98 330.39 107.77C330.53 107.47 331.71 105.09 331.86 104.79C332.11 104.27 332.86 104.27 333.11 104.79C333.41 105.39 334.44 107.47 334.58 107.77Z" id="bjrTdvKXV"></path><path d="M230.3 157.44L298.96 157.04L299.03 170.07L230.37 170.47L230.3 157.44Z" id="aL9ommMda"></path><linearGradient id="gradienta4hoaJpAh7" gradientUnits="userSpaceOnUse" x1="264.7" y1="170.27" x2="264.63" y2="157.39"><stop style="stop-color: #f6f7ff;stop-opacity: 1" offset="0%"></stop><stop style="stop-color: #f6f7ff;stop-opacity: 1" offset="100%"></stop></linearGradient><path d="M209.09 157.44L222.12 157.36L222.19 170.39L209.16 170.47L209.09 157.44Z" id="a9mkBKRiaK"></path><path d="M209.09 185.56L222.12 185.49L222.19 198.51L209.16 198.59L209.09 185.56Z" id="dkgXAXqkK"></path><path d="M230.3 185.73L298.96 185.33L299.03 198.36L230.37 198.75L230.3 185.73Z" id="aQFxpImkE"></path><linearGradient id="gradientb2Xe89oOCW" gradientUnits="userSpaceOnUse" x1="264.7" y1="198.55" x2="264.63" y2="185.68"><stop style="stop-color: #f6f7ff;stop-opacity: 1" offset="0%"></stop><stop style="stop-color: #f6f7ff;stop-opacity: 1" offset="100%"></stop></linearGradient><path d="M209.07 175.93L511.12 174.19L511.13 175.19L209.08 176.93L209.07 175.93Z" id="a19eiNlkeU"></path><linearGradient id="gradienth5qkj0z7qT" gradientUnits="userSpaceOnUse" x1="360.1" y1="176.06" x2="360.1" y2="175.07"><stop style="stop-color: #f6f7ff;stop-opacity: 1" offset="0%"></stop><stop style="stop-color: #f6f7ff;stop-opacity: 1" offset="100%"></stop></linearGradient><path d="M209.09 203.74L511.14 202L511.14 203L209.1 204.74L209.09 203.74Z" id="bsCnWYzf"></path><linearGradient id="gradientkd7cU0IeJ" gradientUnits="userSpaceOnUse" x1="360.12" y1="203.87" x2="360.11" y2="202.88"><stop style="stop-color: #f6f7ff;stop-opacity: 1" offset="0%"></stop><stop style="stop-color: #f6f7ff;stop-opacity: 1" offset="100%"></stop></linearGradient><path d="M209.09 231.42L511.14 229.68L511.14 230.68L209.1 232.42L209.09 231.42Z" id="a6YUhcmWw"></path><linearGradient id="gradientaN7mR3vUB" gradientUnits="userSpaceOnUse" x1="360.12" y1="231.55" x2="360.11" y2="230.56"><stop style="stop-color: #f6f7ff;stop-opacity: 1" offset="0%"></stop><stop style="stop-color: #f6f7ff;stop-opacity: 1" offset="100%"></stop></linearGradient><path d="M231.44 213.25L300.1 212.86L300.17 225.88L231.51 226.28L231.44 213.25Z" id="h34EPzdlhX"></path><linearGradient id="gradienta2e7tFjW3" gradientUnits="userSpaceOnUse" x1="265.84" y1="226.08" x2="265.77" y2="213.21"><stop style="stop-color: #f6f7ff;stop-opacity: 1" offset="0%"></stop><stop style="stop-color: #f6f7ff;stop-opacity: 1" offset="100%"></stop></linearGradient><path d="M209.09 213.25L222.12 213.18L222.19 226.2L209.16 226.28L209.09 213.25Z" id="d63EfBJSEY"></path><path d="M100.93 97.06L199.11 97.06L199.11 98.06L100.93 98.06L100.93 97.06Z" id="eDrIZyABO"></path><path d="M100.18 131.25L198.36 131.25L198.36 132.25L100.18 132.25L100.18 131.25Z" id="djqUE35Z9"></path><path d="M100.43 164.43L198.61 164.43L198.61 165.43L100.43 165.43L100.43 164.43Z" id="a3nDEqC9B"></path><path d="M100.68 198.62L198.86 198.62L198.86 199.62L100.68 199.62L100.68 198.62Z" id="amyi0O8tM"></path><path d="M99.93 231.81L198.11 231.81L198.11 232.81L99.93 232.81L99.93 231.81Z" id="a22k2NZXD5"></path><path d="M100.18 265L198.36 265L198.36 266L100.18 266L100.18 265Z" id="grpfiNdxX"></path><path d="M185.32 105.4C180.04 105.4 175.76 109.68 175.76 114.96C175.76 120.24 180.04 124.52 185.32 124.52C190.6 124.52 194.88 120.24 194.88 114.96C194.88 109.68 190.6 105.4 185.32 105.4Z" id="bmbqgtkxX"></path><path d="M185.32 138.94C180.04 138.94 175.76 143.22 175.76 148.5C175.76 153.78 180.04 158.06 185.32 158.06C190.6 158.06 194.88 153.78 194.88 148.5C194.88 143.22 190.6 138.94 185.32 138.94Z" id="cu3te0Lik"></path><path d="M185.32 172.92C180.04 172.92 175.76 177.2 175.76 182.48C175.76 187.76 180.04 192.04 185.32 192.04C190.6 192.04 194.88 187.76 194.88 182.48C194.88 177.2 190.6 172.92 185.32 172.92Z" id="a2WiDG4QgZ"></path><path d="M185.32 205.83C180.04 205.83 175.76 210.11 175.76 215.39C175.76 220.67 180.04 224.95 185.32 224.95C190.6 224.95 194.88 220.67 194.88 215.39C194.88 210.11 190.6 205.83 185.32 205.83Z" id="b1EtkS3LDt"></path><path d="M185.32 239.16C180.04 239.16 175.76 243.44 175.76 248.72C175.76 254 180.04 258.28 185.32 258.28C190.6 258.28 194.88 254 194.88 248.72C194.88 243.44 190.6 239.16 185.32 239.16Z" id="j3mouXIvp"></path><path d="M108.55 73.02L162.7 72.71L162.77 85.73L108.62 86.04L108.55 73.02Z" id="a6CVS93NiP"></path><path d="M108.55 108.61L162.7 108.29L162.77 121.32L108.62 121.63L108.55 108.61Z" id="a1Qu5XsjgH"></path><path d="M108.55 142.15L162.7 141.83L162.77 154.86L108.62 155.17L108.55 142.15Z" id="aiL3ygnfN"></path><path d="M108.55 176.12L162.7 175.81L162.77 188.84L108.62 189.15L108.55 176.12Z" id="b1xF7EMSau"></path><path d="M108.55 209.03L162.7 208.72L162.77 221.75L108.62 222.06L108.55 209.03Z" id="c17QI0SyCF"></path><path d="M108.55 242.37L162.7 242.05L162.77 255.08L108.62 255.39L108.55 242.37Z" id="b19lzel8Ou"></path><path d="M506.47 362.42C509.05 362.42 511.14 364.51 511.14 367.1C511.14 369.59 511.14 372.4 511.14 374.89C511.14 377.48 509.05 379.57 506.47 379.57C495.1 379.57 465.68 379.57 454.32 379.57C451.74 379.57 449.64 377.48 449.64 374.89C449.64 372.4 449.64 369.59 449.64 367.1C449.64 364.51 451.74 362.42 454.32 362.42C465.68 362.42 495.1 362.42 506.47 362.42Z" id="b1fdgGpMw5"></path><path d="M209.09 136.99L511.16 136.18L511.14 138.18L209.08 138.99L209.09 136.99Z" id="a7jeunbCYB"></path><linearGradient id="gradienta2sZPXq1y" gradientUnits="userSpaceOnUse" x1="360.11" y1="138.59" x2="360.12" y2="136.61"><stop style="stop-color: #f6f7ff;stop-opacity: 1" offset="0%"></stop><stop style="stop-color: #f6f7ff;stop-opacity: 1" offset="100%"></stop></linearGradient></defs><g><g><g><use xlink:href="#b1RaybL0C" opacity="1" fill="#ffffff" fill-opacity="1"></use><g><use xlink:href="#b1RaybL0C" opacity="1" fill-opacity="0" stroke="#000000" stroke-width="1" stroke-opacity="0"></use></g></g><g><use xlink:href="#a5zzhtDlgj" opacity="1" fill="#edefff" fill-opacity="1"></use><g><use xlink:href="#a5zzhtDlgj" opacity="1" fill-opacity="0" stroke="#000000" stroke-width="1" stroke-opacity="0"></use></g></g><g><use xlink:href="#c5mbt7tiV" opacity="1" fill="url(#gradientdYIoYifxB)"></use><g><use xlink:href="#c5mbt7tiV" opacity="1" fill-opacity="0" stroke="#000000" stroke-width="1" stroke-opacity="0"></use></g></g><g><use xlink:href="#b1wb1Vmp5C" opacity="1" fill="#dee1f7" fill-opacity="0.48"></use><g><use xlink:href="#b1wb1Vmp5C" opacity="1" fill-opacity="0" stroke="#000000" stroke-width="1" stroke-opacity="0"></use></g></g><g><use xlink:href="#b3YfdYrNK" opacity="1" fill="#a1a7cf" fill-opacity="0.64"></use><g><use xlink:href="#b3YfdYrNK" opacity="1" fill-opacity="0" stroke="#000000" stroke-width="1" stroke-opacity="0"></use></g></g><g><use xlink:href="#n2bVsUdJkc" opacity="1" fill="#a1a7cf" fill-opacity="0.64"></use><g><use xlink:href="#n2bVsUdJkc" opacity="1" fill-opacity="0" stroke="#000000" stroke-width="1" stroke-opacity="0"></use></g></g><g><use xlink:href="#a7l38CU92" opacity="1" fill="#a1a7cf" fill-opacity="0.64"></use><g><use xlink:href="#a7l38CU92" opacity="1" fill-opacity="0" stroke="#000000" stroke-width="1" stroke-opacity="0"></use></g></g><g><use xlink:href="#brayJYdtl" opacity="1" fill="#dee1f7" fill-opacity="0.48"></use><g><use xlink:href="#brayJYdtl" opacity="1" fill-opacity="0" stroke="#000000" stroke-width="1" stroke-opacity="0"></use></g></g><g><use xlink:href="#b5C2Cpe16j" opacity="1" fill="#c7d2ea" fill-opacity="1"></use><g><use xlink:href="#b5C2Cpe16j" opacity="1" fill-opacity="0" stroke="#000000" stroke-width="1" stroke-opacity="0"></use></g></g><g><use xlink:href="#bazvxoz7x" opacity="1" fill="#a1a7cf" fill-opacity="0.64"></use><g><use xlink:href="#bazvxoz7x" opacity="1" fill-opacity="0" stroke="#000000" stroke-width="1" stroke-opacity="0"></use></g></g><g><use xlink:href="#b29TF44xHs" opacity="1" fill="#1bc1fc" fill-opacity="1"></use></g><g><use xlink:href="#a8PjUuKSbC" opacity="1" fill="#b5bbe6" fill-opacity="1"></use></g><g><use xlink:href="#a3oXROfq6n" opacity="1" fill="url(#gradientak1iVV7Wu)"></use><g><use xlink:href="#a3oXROfq6n" opacity="1" fill-opacity="0" stroke="#000000" stroke-width="1" stroke-opacity="0"></use></g><g><use xlink:href="#a3oXROfq6n" opacity="1" fill-opacity="0" stroke="#000000" stroke-width="1" stroke-opacity="0"></use></g></g><g><use xlink:href="#cc1vCXHdM" opacity="1" fill="url(#gradientdw52dT1M)"></use><g><use xlink:href="#cc1vCXHdM" opacity="1" fill-opacity="0" stroke="#000000" stroke-width="1" stroke-opacity="0"></use></g><g><use xlink:href="#cc1vCXHdM" opacity="1" fill-opacity="0" stroke="#000000" stroke-width="1" stroke-opacity="0"></use></g></g><g><use xlink:href="#f47IGMuds4" opacity="1" fill="url(#gradientaHoBnXuYU)"></use><g><use xlink:href="#f47IGMuds4" opacity="1" fill-opacity="0" stroke="#000000" stroke-width="1" stroke-opacity="0"></use></g><g><use xlink:href="#f47IGMuds4" opacity="1" fill-opacity="0" stroke="#000000" stroke-width="1" stroke-opacity="0"></use></g></g><g><use xlink:href="#b1jEADrhWC" opacity="1" fill="#ed8a19" fill-opacity="1"></use><g><use xlink:href="#b1jEADrhWC" opacity="1" fill-opacity="0" stroke="#000000" stroke-width="1" stroke-opacity="0"></use></g></g><g><use xlink:href="#aaYnen61q" opacity="1" fill="#ed8a19" fill-opacity="1"></use><g><use xlink:href="#aaYnen61q" opacity="1" fill-opacity="0" stroke="#000000" stroke-width="1" stroke-opacity="0"></use></g></g><g><use xlink:href="#b5pbyVaU2A" opacity="1" fill="#ed8a19" fill-opacity="1"></use><g><use xlink:href="#b5pbyVaU2A" opacity="1" fill-opacity="0" stroke="#000000" stroke-width="1" stroke-opacity="0"></use></g></g><g><use xlink:href="#erZGJZVSn" opacity="1" fill="#ed8a19" fill-opacity="1"></use><g><use xlink:href="#erZGJZVSn" opacity="1" fill-opacity="0" stroke="#000000" stroke-width="1" stroke-opacity="0"></use></g></g><g><use xlink:href="#bjrTdvKXV" opacity="1" fill="#ed8a19" fill-opacity="1"></use><g><use xlink:href="#bjrTdvKXV" opacity="1" fill-opacity="0" stroke="#000000" stroke-width="1" stroke-opacity="0"></use></g></g><g><use xlink:href="#aL9ommMda" opacity="1" fill="url(#gradienta4hoaJpAh7)"></use><g><use xlink:href="#aL9ommMda" opacity="1" fill-opacity="0" stroke="#000000" stroke-width="1" stroke-opacity="0"></use></g><g><use xlink:href="#aL9ommMda" opacity="1" fill-opacity="0" stroke="#000000" stroke-width="1" stroke-opacity="0"></use></g></g><g><use xlink:href="#a9mkBKRiaK" opacity="1" fill="#a1a7cf" fill-opacity="0.63"></use><g><use xlink:href="#a9mkBKRiaK" opacity="1" fill-opacity="0" stroke="#000000" stroke-width="1" stroke-opacity="0"></use></g><g><use xlink:href="#a9mkBKRiaK" opacity="1" fill-opacity="0" stroke="#000000" stroke-width="1" stroke-opacity="0"></use></g></g><g><use xlink:href="#dkgXAXqkK" opacity="1" fill="#a1a7cf" fill-opacity="0.63"></use><g><use xlink:href="#dkgXAXqkK" opacity="1" fill-opacity="0" stroke="#000000" stroke-width="1" stroke-opacity="0"></use></g><g><use xlink:href="#dkgXAXqkK" opacity="1" fill-opacity="0" stroke="#000000" stroke-width="1" stroke-opacity="0"></use></g></g><g><use xlink:href="#aQFxpImkE" opacity="1" fill="url(#gradientb2Xe89oOCW)"></use><g><use xlink:href="#aQFxpImkE" opacity="1" fill-opacity="0" stroke="#000000" stroke-width="1" stroke-opacity="0"></use></g><g><use xlink:href="#aQFxpImkE" opacity="1" fill-opacity="0" stroke="#000000" stroke-width="1" stroke-opacity="0"></use></g></g><g><use xlink:href="#a19eiNlkeU" opacity="1" fill="url(#gradienth5qkj0z7qT)"></use><g><use xlink:href="#a19eiNlkeU" opacity="1" fill-opacity="0" stroke="#000000" stroke-width="1" stroke-opacity="0"></use></g><g><use xlink:href="#a19eiNlkeU" opacity="1" fill-opacity="0" stroke="#000000" stroke-width="1" stroke-opacity="0"></use></g></g><g><use xlink:href="#bsCnWYzf" opacity="1" fill="url(#gradientkd7cU0IeJ)"></use><g><use xlink:href="#bsCnWYzf" opacity="1" fill-opacity="0" stroke="#000000" stroke-width="1" stroke-opacity="0"></use></g><g><use xlink:href="#bsCnWYzf" opacity="1" fill-opacity="0" stroke="#000000" stroke-width="1" stroke-opacity="0"></use></g></g><g><use xlink:href="#a6YUhcmWw" opacity="1" fill="url(#gradientaN7mR3vUB)"></use><g><use xlink:href="#a6YUhcmWw" opacity="1" fill-opacity="0" stroke="#000000" stroke-width="1" stroke-opacity="0"></use></g><g><use xlink:href="#a6YUhcmWw" opacity="1" fill-opacity="0" stroke="#000000" stroke-width="1" stroke-opacity="0"></use></g></g><g><use xlink:href="#h34EPzdlhX" opacity="1" fill="url(#gradienta2e7tFjW3)"></use><g><use xlink:href="#h34EPzdlhX" opacity="1" fill-opacity="0" stroke="#000000" stroke-width="1" stroke-opacity="0"></use></g><g><use xlink:href="#h34EPzdlhX" opacity="1" fill-opacity="0" stroke="#000000" stroke-width="1" stroke-opacity="0"></use></g></g><g><use xlink:href="#d63EfBJSEY" opacity="1" fill="#a1a7cf" fill-opacity="0.63"></use><g><use xlink:href="#d63EfBJSEY" opacity="1" fill-opacity="0" stroke="#000000" stroke-width="1" stroke-opacity="0"></use></g><g><use xlink:href="#d63EfBJSEY" opacity="1" fill-opacity="0" stroke="#000000" stroke-width="1" stroke-opacity="0"></use></g></g><g><use xlink:href="#eDrIZyABO" opacity="1" fill="#dae5fe" fill-opacity="1"></use><g><use xlink:href="#eDrIZyABO" opacity="1" fill-opacity="0" stroke="#000000" stroke-width="1" stroke-opacity="0"></use></g><g><use xlink:href="#eDrIZyABO" opacity="1" fill-opacity="0" stroke="#000000" stroke-width="1" stroke-opacity="0"></use></g></g><g><use xlink:href="#djqUE35Z9" opacity="1" fill="#dae5fe" fill-opacity="1"></use><g><use xlink:href="#djqUE35Z9" opacity="1" fill-opacity="0" stroke="#000000" stroke-width="1" stroke-opacity="0"></use></g><g><use xlink:href="#djqUE35Z9" opacity="1" fill-opacity="0" stroke="#000000" stroke-width="1" stroke-opacity="0"></use></g></g><g><use xlink:href="#a3nDEqC9B" opacity="1" fill="#dae5fe" fill-opacity="1"></use><g><use xlink:href="#a3nDEqC9B" opacity="1" fill-opacity="0" stroke="#000000" stroke-width="1" stroke-opacity="0"></use></g><g><use xlink:href="#a3nDEqC9B" opacity="1" fill-opacity="0" stroke="#000000" stroke-width="1" stroke-opacity="0"></use></g></g><g><use xlink:href="#amyi0O8tM" opacity="1" fill="#dae5fe" fill-opacity="1"></use><g><use xlink:href="#amyi0O8tM" opacity="1" fill-opacity="0" stroke="#000000" stroke-width="1" stroke-opacity="0"></use></g><g><use xlink:href="#amyi0O8tM" opacity="1" fill-opacity="0" stroke="#000000" stroke-width="1" stroke-opacity="0"></use></g></g><g><use xlink:href="#a22k2NZXD5" opacity="1" fill="#dae5fe" fill-opacity="1"></use><g><use xlink:href="#a22k2NZXD5" opacity="1" fill-opacity="0" stroke="#000000" stroke-width="1" stroke-opacity="0"></use></g><g><use xlink:href="#a22k2NZXD5" opacity="1" fill-opacity="0" stroke="#000000" stroke-width="1" stroke-opacity="0"></use></g></g><g><use xlink:href="#grpfiNdxX" opacity="1" fill="#dae5fe" fill-opacity="1"></use><g><use xlink:href="#grpfiNdxX" opacity="1" fill-opacity="0" stroke="#000000" stroke-width="1" stroke-opacity="0"></use></g><g><use xlink:href="#grpfiNdxX" opacity="1" fill-opacity="0" stroke="#000000" stroke-width="1" stroke-opacity="0"></use></g></g><g><use xlink:href="#bmbqgtkxX" opacity="1" fill="#a1a7cf" fill-opacity="0.64"></use><g><use xlink:href="#bmbqgtkxX" opacity="1" fill-opacity="0" stroke="#000000" stroke-width="1" stroke-opacity="0"></use></g></g><g><use xlink:href="#cu3te0Lik" opacity="1" fill="#a1a7cf" fill-opacity="0.64"></use><g><use xlink:href="#cu3te0Lik" opacity="1" fill-opacity="0" stroke="#000000" stroke-width="1" stroke-opacity="0"></use></g></g><g><use xlink:href="#a2WiDG4QgZ" opacity="1" fill="#a1a7cf" fill-opacity="0.64"></use><g><use xlink:href="#a2WiDG4QgZ" opacity="1" fill-opacity="0" stroke="#000000" stroke-width="1" stroke-opacity="0"></use></g></g><g><use xlink:href="#b1EtkS3LDt" opacity="1" fill="#a1a7cf" fill-opacity="0.64"></use><g><use xlink:href="#b1EtkS3LDt" opacity="1" fill-opacity="0" stroke="#000000" stroke-width="1" stroke-opacity="0"></use></g></g><g><use xlink:href="#j3mouXIvp" opacity="1" fill="#a1a7cf" fill-opacity="0.64"></use><g><use xlink:href="#j3mouXIvp" opacity="1" fill-opacity="0" stroke="#000000" stroke-width="1" stroke-opacity="0"></use></g></g><g><use xlink:href="#a6CVS93NiP" opacity="1" fill="#dae0ef" fill-opacity="1"></use><g><use xlink:href="#a6CVS93NiP" opacity="1" fill-opacity="0" stroke="#000000" stroke-width="1" stroke-opacity="0"></use></g><g><use xlink:href="#a6CVS93NiP" opacity="1" fill-opacity="0" stroke="#000000" stroke-width="1" stroke-opacity="0"></use></g></g><g><use xlink:href="#a1Qu5XsjgH" opacity="1" fill="#dae0ef" fill-opacity="1"></use><g><use xlink:href="#a1Qu5XsjgH" opacity="1" fill-opacity="0" stroke="#000000" stroke-width="1" stroke-opacity="0"></use></g><g><use xlink:href="#a1Qu5XsjgH" opacity="1" fill-opacity="0" stroke="#000000" stroke-width="1" stroke-opacity="0"></use></g></g><g><use xlink:href="#aiL3ygnfN" opacity="1" fill="#dae0ef" fill-opacity="1"></use><g><use xlink:href="#aiL3ygnfN" opacity="1" fill-opacity="0" stroke="#000000" stroke-width="1" stroke-opacity="0"></use></g><g><use xlink:href="#aiL3ygnfN" opacity="1" fill-opacity="0" stroke="#000000" stroke-width="1" stroke-opacity="0"></use></g></g><g><use xlink:href="#b1xF7EMSau" opacity="1" fill="#dae0ef" fill-opacity="1"></use><g><use xlink:href="#b1xF7EMSau" opacity="1" fill-opacity="0" stroke="#000000" stroke-width="1" stroke-opacity="0"></use></g><g><use xlink:href="#b1xF7EMSau" opacity="1" fill-opacity="0" stroke="#000000" stroke-width="1" stroke-opacity="0"></use></g></g><g><use xlink:href="#c17QI0SyCF" opacity="1" fill="#dae0ef" fill-opacity="1"></use><g><use xlink:href="#c17QI0SyCF" opacity="1" fill-opacity="0" stroke="#000000" stroke-width="1" stroke-opacity="0"></use></g><g><use xlink:href="#c17QI0SyCF" opacity="1" fill-opacity="0" stroke="#000000" stroke-width="1" stroke-opacity="0"></use></g></g><g><use xlink:href="#b19lzel8Ou" opacity="1" fill="#dae0ef" fill-opacity="1"></use><g><use xlink:href="#b19lzel8Ou" opacity="1" fill-opacity="0" stroke="#000000" stroke-width="1" stroke-opacity="0"></use></g><g><use xlink:href="#b19lzel8Ou" opacity="1" fill-opacity="0" stroke="#000000" stroke-width="1" stroke-opacity="0"></use></g></g><g><use xlink:href="#b1fdgGpMw5" opacity="1" fill="#4d5bcc" fill-opacity="1"></use></g><g><use xlink:href="#a7jeunbCYB" opacity="1" fill="url(#gradienta2sZPXq1y)"></use><g><use xlink:href="#a7jeunbCYB" opacity="1" fill-opacity="0" stroke="#000000" stroke-width="1" stroke-opacity="0"></use></g><g><use xlink:href="#a7jeunbCYB" opacity="1" fill-opacity="0" stroke="#000000" stroke-width="1" stroke-opacity="0"></use></g></g></g></g></svg>